courier-prime_italic.sfdir
StartChar: exclam
Encoding: 33 33 1
Width: 1228
Flags: W
LayerCount: 2
Back
Fore
SplineSet
554 -22 m 0,0,1
 525 -22 525 -22 500.5 -11.5 c 128,-1,2
 476 -1 476 -1 458.5 17 c 128,-1,3
 441 35 441 35 431.5 59 c 128,-1,4
 422 83 422 83 422 110 c 0,5,6
 422 146 422 146 437 178 c 128,-1,7
 452 210 452 210 477 234 c 128,-1,8
 502 258 502 258 534 272 c 128,-1,9
 566 286 566 286 600 286 c 0,10,11
 629 286 629 286 653.5 275.5 c 128,-1,12
 678 265 678 265 695.5 247 c 128,-1,13
 713 229 713 229 722.5 205 c 128,-1,14
 732 181 732 181 732 153 c 0,15,16
 732 117 732 117 717 85 c 128,-1,17
 702 53 702 53 677.5 29.5 c 128,-1,18
 653 6 653 6 620.5 -8 c 128,-1,19
 588 -22 588 -22 554 -22 c 0,0,1
812 1209 m 2,20,21
 857 1209 857 1209 844 1159 c 2,22,-1
 681 512 l 2,23,24
 669 464 669 464 615 464 c 0,25,26
 589 464 589 464 576.5 476.5 c 128,-1,27
 564 489 564 489 566 512 c 2,28,-1
 632 1159 l 2,29,30
 636 1209 636 1209 682 1209 c 2,31,-1
 812 1209 l 2,20,21
EndSplineSet
EndChar
StartChar: quotedbl
Encoding: 34 34 2
Width: 1228
Flags: W
LayerCount: 2
Back
Fore
SplineSet
649 1209 m 2,0,1
 695 1209 695 1209 681 1159 c 2,2,-1
 547 709 l 2,3,4
 539 683 539 683 519 669 c 128,-1,5
 499 655 499 655 469 655 c 0,6,7
 440 655 440 655 424.5 669 c 128,-1,8
 409 683 409 683 411 709 c 2,9,-1
 435 1159 l 2,10,11
 438 1209 438 1209 485 1209 c 2,12,-1
 649 1209 l 2,0,1
1029 1209 m 2,13,14
 1075 1209 1075 1209 1061 1159 c 2,15,-1
 927 709 l 2,16,17
 919 683 919 683 899 669 c 128,-1,18
 879 655 879 655 849 655 c 0,19,20
 820 655 820 655 804.5 669 c 128,-1,21
 789 683 789 683 791 709 c 2,22,-1
 815 1159 l 2,23,24
 818 1209 818 1209 865 1209 c 2,25,-1
 1029 1209 l 2,13,14
EndSplineSet
EndChar
StartChar: numbersign
Encoding: 35 35 3
Width: 1228
Flags: W
LayerCount: 2
Back
Fore
SplineSet
534 861 m 1,0,-1
 689 1176 l 2,1,2
 697 1193 697 1193 714 1201 c 128,-1,3
 731 1209 731 1209 749 1209 c 0,4,5
 764 1209 764 1209 777.5 1204.5 c 128,-1,6
 791 1200 791 1200 800 1191 c 128,-1,7
 809 1182 809 1182 811.5 1169.5 c 128,-1,8
 814 1157 814 1157 807 1142 c 2,9,-1
 669 861 l 1,10,-1
 888 861 l 1,11,-1
 1043 1176 l 2,12,13
 1051 1193 1051 1193 1068 1201 c 128,-1,14
 1085 1209 1085 1209 1103 1209 c 0,15,16
 1118 1209 1118 1209 1131.5 1204.5 c 128,-1,17
 1145 1200 1145 1200 1154 1191 c 128,-1,18
 1163 1182 1163 1182 1165.5 1169.5 c 128,-1,19
 1168 1157 1168 1157 1161 1142 c 2,20,-1
 1023 861 l 1,21,-1
 1206 861 l 2,22,23
 1240 861 1240 861 1252 846 c 128,-1,24
 1264 831 1264 831 1257 793 c 0,25,26
 1251 755 1251 755 1233.5 740 c 128,-1,27
 1216 725 1216 725 1182 725 c 2,28,-1
 957 725 l 1,29,-1
 833 472 l 1,30,-1
 1038 472 l 2,31,32
 1072 472 1072 472 1084 457 c 128,-1,33
 1096 442 1096 442 1089 404 c 256,34,35
 1082 366 1082 366 1065 351 c 128,-1,36
 1048 336 1048 336 1014 336 c 2,37,-1
 766 336 l 1,38,-1
 607 11 l 2,39,40
 599 -6 599 -6 582.5 -14 c 128,-1,41
 566 -22 566 -22 547 -22 c 0,42,43
 532 -22 532 -22 518.5 -17.5 c 128,-1,44
 505 -13 505 -13 496 -4 c 128,-1,45
 487 5 487 5 484 17.5 c 128,-1,46
 481 30 481 30 489 45 c 2,47,-1
 631 336 l 1,48,-1
 412 336 l 1,49,-1
 253 11 l 2,50,51
 245 -6 245 -6 228.5 -14 c 128,-1,52
 212 -22 212 -22 193 -22 c 0,53,54
 178 -22 178 -22 164.5 -17.5 c 128,-1,55
 151 -13 151 -13 142 -4 c 128,-1,56
 133 5 133 5 130 17.5 c 128,-1,57
 127 30 127 30 135 45 c 2,58,-1
 277 336 l 1,59,-1
 92 336 l 2,60,61
 58 336 58 336 46 351 c 128,-1,62
 34 366 34 366 41 404 c 256,63,64
 48 442 48 442 65 457 c 128,-1,65
 82 472 82 472 116 472 c 2,66,-1
 344 472 l 1,67,-1
 468 725 l 1,68,-1
 260 725 l 2,69,70
 226 725 226 725 214.5 740 c 128,-1,71
 203 755 203 755 209 793 c 0,72,73
 216 831 216 831 233 846 c 128,-1,74
 250 861 250 861 284 861 c 2,75,-1
 534 861 l 1,0,-1
479 472 m 1,76,-1
 698 472 l 1,77,-1
 822 725 l 1,78,-1
 603 725 l 1,79,-1
 479 472 l 1,76,-1
EndSplineSet
EndChar
StartChar: dollar
Encoding: 36 36 4
Width: 1228
Flags: W
LayerCount: 2
Back
Fore
SplineSet
291 183 m 2,0,1
 285 148 285 148 266 133 c 128,-1,2
 247 118 247 118 205 118 c 256,3,4
 163 118 163 118 149 133 c 128,-1,5
 135 148 135 148 141 183 c 2,6,-1
 183 423 l 2,7,8
 189 458 189 458 208.5 473 c 128,-1,9
 228 488 228 488 270 488 c 0,10,11
 292 488 292 488 302 478.5 c 128,-1,12
 312 469 312 469 317 447 c 0,13,14
 333 372 333 372 381.5 329 c 128,-1,15
 430 286 430 286 515 271 c 1,16,-1
 565 554 l 1,17,18
 526 559 526 559 487 566.5 c 128,-1,19
 448 574 448 574 410 587 c 0,20,21
 376 598 376 598 347.5 614 c 128,-1,22
 319 630 319 630 298 652 c 128,-1,23
 277 674 277 674 265.5 702.5 c 128,-1,24
 254 731 254 731 254 769 c 0,25,26
 254 831 254 831 279 888 c 128,-1,27
 304 945 304 945 354 989 c 128,-1,28
 404 1033 404 1033 480 1059.5 c 128,-1,29
 556 1086 556 1086 658 1086 c 1,30,-1
 687 1247 l 2,31,32
 693 1282 693 1282 712.5 1297 c 128,-1,33
 732 1312 732 1312 769 1312 c 256,34,35
 806 1312 806 1312 819.5 1297 c 128,-1,36
 833 1282 833 1282 827 1247 c 2,37,-1
 795 1069 l 1,38,39
 896 1040 896 1040 956 976 c 1,40,-1
 964 1021 l 2,41,42
 970 1056 970 1056 989 1071 c 128,-1,43
 1008 1086 1008 1086 1050 1086 c 256,44,45
 1092 1086 1092 1086 1106 1071 c 128,-1,46
 1120 1056 1120 1056 1114 1021 c 2,47,-1
 1080 831 l 2,48,49
 1074 796 1074 796 1055 781 c 128,-1,50
 1036 766 1036 766 994 766 c 0,51,52
 959 766 959 766 950 792 c 0,53,54
 929 853 929 853 883.5 885.5 c 128,-1,55
 838 918 838 918 771 931 c 1,56,-1
 728 684 l 1,57,58
 770 679 770 679 811.5 671 c 128,-1,59
 853 663 853 663 895 650 c 0,60,61
 929 639 929 639 958.5 622.5 c 128,-1,62
 988 606 988 606 1010 583 c 128,-1,63
 1032 560 1032 560 1044 529.5 c 128,-1,64
 1056 499 1056 499 1056 460 c 0,65,66
 1056 427 1056 427 1047.5 389.5 c 128,-1,67
 1039 352 1039 352 1019.5 314.5 c 128,-1,68
 1000 277 1000 277 968 242 c 128,-1,69
 936 207 936 207 888.5 180 c 128,-1,70
 841 153 841 153 776.5 136 c 128,-1,71
 712 119 712 119 628 118 c 1,72,-1
 597 -60 l 2,73,74
 591 -95 591 -95 571.5 -110 c 128,-1,75
 552 -125 552 -125 515 -125 c 256,76,77
 478 -125 478 -125 464.5 -110 c 128,-1,78
 451 -95 451 -95 457 -60 c 2,79,-1
 490 129 l 1,80,81
 371 154 371 154 301 239 c 1,82,-1
 291 183 l 2,0,1
654 263 m 1,83,84
 725 266 725 266 772 284.5 c 128,-1,85
 819 303 819 303 846.5 328.5 c 128,-1,86
 874 354 874 354 885 382 c 128,-1,87
 896 410 896 410 896 433 c 0,88,89
 896 470 896 470 866 490.5 c 128,-1,90
 836 511 836 511 788 522 c 0,91,92
 766 527 766 527 745 530.5 c 128,-1,93
 724 534 724 534 702 537 c 1,94,-1
 654 263 l 1,83,84
633 941 m 1,95,96
 577 939 577 939 535.5 926 c 128,-1,97
 494 913 494 913 467 893 c 128,-1,98
 440 873 440 873 427 847.5 c 128,-1,99
 414 822 414 822 414 795 c 0,100,101
 414 760 414 760 443.5 742 c 128,-1,102
 473 724 473 724 523 713 c 0,103,104
 555 706 555 706 591 701 c 1,105,-1
 633 941 l 1,95,96
EndSplineSet
EndChar
StartChar: percent
Encoding: 37 37 5
Width: 1228
Flags: W
LayerCount: 2
Back
Fore
SplineSet
836 -22 m 0,0,1
 785 -22 785 -22 742.5 -3.5 c 128,-1,2
 700 15 700 15 668.5 47.5 c 128,-1,3
 637 80 637 80 619.5 123 c 128,-1,4
 602 166 602 166 602 215 c 0,5,6
 602 280 602 280 628.5 337 c 128,-1,7
 655 394 655 394 699.5 436 c 128,-1,8
 744 478 744 478 801 502 c 128,-1,9
 858 526 858 526 920 526 c 0,10,11
 971 526 971 526 1013.5 507 c 128,-1,12
 1056 488 1056 488 1087.5 456 c 128,-1,13
 1119 424 1119 424 1136.5 381 c 128,-1,14
 1154 338 1154 338 1154 289 c 0,15,16
 1154 224 1154 224 1127 167 c 128,-1,17
 1100 110 1100 110 1056 68 c 128,-1,18
 1012 26 1012 26 954.5 2 c 128,-1,19
 897 -22 897 -22 836 -22 c 0,0,1
853 108 m 0,20,21
 886 108 886 108 916.5 121.5 c 128,-1,22
 947 135 947 135 971 158.5 c 128,-1,23
 995 182 995 182 1009.5 212.5 c 128,-1,24
 1024 243 1024 243 1024 277 c 0,25,26
 1024 302 1024 302 1015 324 c 128,-1,27
 1006 346 1006 346 990 362 c 128,-1,28
 974 378 974 378 951.5 387 c 128,-1,29
 929 396 929 396 903 396 c 0,30,31
 870 396 870 396 839.5 382 c 128,-1,32
 809 368 809 368 785 345 c 128,-1,33
 761 322 761 322 746.5 291.5 c 128,-1,34
 732 261 732 261 732 227 c 0,35,36
 732 176 732 176 765.5 142 c 128,-1,37
 799 108 799 108 853 108 c 0,20,21
376 661 m 0,38,39
 325 661 325 661 282.5 679.5 c 128,-1,40
 240 698 240 698 208.5 730.5 c 128,-1,41
 177 763 177 763 159.5 806 c 128,-1,42
 142 849 142 849 142 898 c 0,43,44
 142 963 142 963 168.5 1020 c 128,-1,45
 195 1077 195 1077 239.5 1119 c 128,-1,46
 284 1161 284 1161 341 1185 c 128,-1,47
 398 1209 398 1209 460 1209 c 0,48,49
 511 1209 511 1209 553.5 1190 c 128,-1,50
 596 1171 596 1171 627.5 1139 c 128,-1,51
 659 1107 659 1107 676.5 1064 c 128,-1,52
 694 1021 694 1021 694 972 c 0,53,54
 694 907 694 907 667 850 c 128,-1,55
 640 793 640 793 596 751 c 128,-1,56
 552 709 552 709 494.5 685 c 128,-1,57
 437 661 437 661 376 661 c 0,38,39
393 791 m 0,58,59
 426 791 426 791 456.5 804.5 c 128,-1,60
 487 818 487 818 511 841.5 c 128,-1,61
 535 865 535 865 549.5 895.5 c 128,-1,62
 564 926 564 926 564 960 c 0,63,64
 564 985 564 985 555 1007 c 128,-1,65
 546 1029 546 1029 530 1045 c 128,-1,66
 514 1061 514 1061 491.5 1070 c 128,-1,67
 469 1079 469 1079 443 1079 c 0,68,69
 410 1079 410 1079 379.5 1065 c 128,-1,70
 349 1051 349 1051 325 1028 c 128,-1,71
 301 1005 301 1005 286.5 974.5 c 128,-1,72
 272 944 272 944 272 910 c 0,73,74
 272 859 272 859 305.5 825 c 128,-1,75
 339 791 339 791 393 791 c 0,58,59
1119 1059 m 2,76,77
 1148 1082 1148 1082 1170.5 1080.5 c 128,-1,78
 1193 1079 1193 1079 1213 1054 c 0,79,80
 1253 1004 1253 1004 1198 959 c 2,81,-1
 177 129 l 2,82,83
 121 84 121 84 83 134 c 0,84,85
 63 159 63 159 66.5 182.5 c 128,-1,86
 70 206 70 206 99 229 c 2,87,-1
 1119 1059 l 2,76,77
EndSplineSet
EndChar
StartChar: ampersand
Encoding: 38 38 6
Width: 1228
Flags: W
LayerCount: 2
Back
Fore
SplineSet
1004 924 m 2,0,1
 998 889 998 889 979 874 c 128,-1,2
 960 859 960 859 918 859 c 256,3,4
 876 859 876 859 862 874 c 128,-1,5
 848 889 848 889 854 924 c 2,6,-1
 870 1014 l 1,7,8
 838 1036 838 1036 794.5 1048.5 c 128,-1,9
 751 1061 751 1061 694 1061 c 0,10,11
 650 1061 650 1061 611.5 1045.5 c 128,-1,12
 573 1030 573 1030 544 1002 c 128,-1,13
 515 974 515 974 498.5 935 c 128,-1,14
 482 896 482 896 482 850 c 0,15,16
 482 809 482 809 495.5 773.5 c 128,-1,17
 509 738 509 738 535 702 c 2,18,-1
 768 374 l 1,19,20
 796 418 796 418 822 466.5 c 128,-1,21
 848 515 848 515 873 569 c 0,22,23
 881 587 881 587 895 599 c 128,-1,24
 909 611 909 611 932 611 c 2,25,-1
 1093 611 l 2,26,27
 1127 611 1127 611 1139 596 c 128,-1,28
 1151 581 1151 581 1144 543 c 256,29,30
 1137 505 1137 505 1120 490 c 128,-1,31
 1103 475 1103 475 1069 475 c 2,32,-1
 986 475 l 1,33,34
 957 412 957 412 924.5 356.5 c 128,-1,35
 892 301 892 301 856 251 c 1,36,-1
 939 136 l 1,37,-1
 1023 136 l 2,38,39
 1057 136 1057 136 1069 121 c 128,-1,40
 1081 106 1081 106 1074 68 c 0,41,42
 1068 30 1068 30 1051 15 c 128,-1,43
 1034 0 1034 0 1000 0 c 2,44,-1
 896 0 l 2,45,46
 874 0 874 0 855 8 c 128,-1,47
 836 16 836 16 823 33 c 2,48,-1
 753 130 l 1,49,50
 679 58 679 58 596 18 c 128,-1,51
 513 -22 513 -22 422 -22 c 0,52,53
 350 -22 350 -22 295.5 0 c 128,-1,54
 241 22 241 22 203.5 60.5 c 128,-1,55
 166 99 166 99 147 150 c 128,-1,56
 128 201 128 201 128 258 c 0,57,58
 128 323 128 323 147.5 378.5 c 128,-1,59
 167 434 167 434 201.5 481.5 c 128,-1,60
 236 529 236 529 284 569 c 128,-1,61
 332 609 332 609 388 643 c 1,62,63
 362 685 362 685 344 735 c 128,-1,64
 326 785 326 785 326 843 c 0,65,66
 326 909 326 909 351.5 974.5 c 128,-1,67
 377 1040 377 1040 426 1092 c 128,-1,68
 475 1144 475 1144 546.5 1176.5 c 128,-1,69
 618 1209 618 1209 711 1209 c 0,70,71
 807 1209 807 1209 882.5 1180 c 128,-1,72
 958 1151 958 1151 1015 1105 c 0,73,74
 1033 1090 1033 1090 1027 1051 c 2,75,-1
 1004 924 l 2,0,1
438 126 m 0,76,77
 503 126 503 126 560.5 157 c 128,-1,78
 618 188 618 188 671 245 c 1,79,-1
 466 533 l 1,80,81
 430 511 430 511 397.5 485 c 128,-1,82
 365 459 365 459 340 427 c 128,-1,83
 315 395 315 395 300.5 357 c 128,-1,84
 286 319 286 319 286 274 c 0,85,86
 286 208 286 208 326 167 c 128,-1,87
 366 126 366 126 438 126 c 0,76,77
EndSplineSet
EndChar
StartChar: quotesingle
Encoding: 39 39 7
Width: 1228
Flags: W
LayerCount: 2
Back
Fore
SplineSet
839 1209 m 2,0,1
 885 1209 885 1209 871 1159 c 2,2,-1
 737 709 l 2,3,4
 729 683 729 683 709 669 c 128,-1,5
 689 655 689 655 659 655 c 0,6,7
 630 655 630 655 614.5 669 c 128,-1,8
 599 683 599 683 601 709 c 2,9,-1
 625 1159 l 2,10,11
 628 1209 628 1209 675 1209 c 2,12,-1
 839 1209 l 2,0,1
EndSplineSet
EndChar
StartChar: parenleft
Encoding: 40 40 8
Width: 1228
Flags: W
LayerCount: 2
Back
Fore
SplineSet
440 302 m 0,0,1
 440 195 440 195 463.5 104 c 128,-1,2
 487 13 487 13 527 -62 c 128,-1,3
 567 -137 567 -137 618.5 -195 c 128,-1,4
 670 -253 670 -253 726 -295 c 0,5,6
 733 -300 733 -300 734.5 -309.5 c 128,-1,7
 736 -319 736 -319 733 -330 c 128,-1,8
 730 -341 730 -341 723 -353 c 128,-1,9
 716 -365 716 -365 707 -375 c 0,10,11
 690 -393 690 -393 669.5 -401.5 c 128,-1,12
 649 -410 649 -410 630 -397 c 0,13,14
 566 -354 566 -354 505.5 -286 c 128,-1,15
 445 -218 445 -218 397.5 -129.5 c 128,-1,16
 350 -41 350 -41 321.5 67.5 c 128,-1,17
 293 176 293 176 293 302 c 0,18,19
 293 462 293 462 340 614.5 c 128,-1,20
 387 767 387 767 471 900 c 128,-1,21
 555 1033 555 1033 672 1140 c 128,-1,22
 789 1247 789 1247 929 1315 c 0,23,24
 953 1326 953 1326 971.5 1312 c 128,-1,25
 990 1298 990 1298 1000 1274 c 0,26,27
 1006 1261 1006 1261 1008.5 1247 c 128,-1,28
 1011 1233 1011 1233 1010 1220.5 c 128,-1,29
 1009 1208 1009 1208 1004 1198 c 128,-1,30
 999 1188 999 1188 990 1183 c 0,31,32
 863 1117 863 1117 761 1024.5 c 128,-1,33
 659 932 659 932 588 819 c 128,-1,34
 517 706 517 706 478.5 575.5 c 128,-1,35
 440 445 440 445 440 302 c 0,0,1
EndSplineSet
EndChar
StartChar: parenright
Encoding: 41 41 9
Width: 1228
Flags: W
LayerCount: 2
Back
Fore
SplineSet
808 615 m 0,0,1
 808 722 808 722 784.5 813 c 128,-1,2
 761 904 761 904 721 979 c 128,-1,3
 681 1054 681 1054 629.5 1112 c 128,-1,4
 578 1170 578 1170 522 1212 c 0,5,6
 515 1217 515 1217 513.5 1226.5 c 128,-1,7
 512 1236 512 1236 515 1247 c 128,-1,8
 518 1258 518 1258 525 1270 c 128,-1,9
 532 1282 532 1282 541 1292 c 0,10,11
 558 1310 558 1310 578.5 1318.5 c 128,-1,12
 599 1327 599 1327 618 1314 c 0,13,14
 682 1270 682 1270 742.5 1202.5 c 128,-1,15
 803 1135 803 1135 850 1046.5 c 128,-1,16
 897 958 897 958 926 849.5 c 128,-1,17
 955 741 955 741 955 615 c 0,18,19
 955 455 955 455 908 302.5 c 128,-1,20
 861 150 861 150 777 17 c 128,-1,21
 693 -116 693 -116 576 -223 c 128,-1,22
 459 -330 459 -330 319 -398 c 0,23,24
 295 -409 295 -409 276.5 -395 c 128,-1,25
 258 -381 258 -381 248 -357 c 0,26,27
 242 -344 242 -344 239.5 -330 c 128,-1,28
 237 -316 237 -316 238 -303.5 c 128,-1,29
 239 -291 239 -291 244 -281 c 128,-1,30
 249 -271 249 -271 258 -266 c 0,31,32
 385 -200 385 -200 487 -107.5 c 128,-1,33
 589 -15 589 -15 660 98 c 128,-1,34
 731 211 731 211 769.5 341.5 c 128,-1,35
 808 472 808 472 808 615 c 0,0,1
EndSplineSet
EndChar
StartChar: asterisk
Encoding: 42 42 10
Width: 1228
Flags: W
LayerCount: 2
Back
Fore
SplineSet
878 411 m 0,0,1
 834 385 834 385 805 398 c 128,-1,2
 776 411 776 411 762 446 c 2,3,-1
 667 683 l 1,4,-1
 492 441 l 2,5,6
 466 405 466 405 430 398.5 c 128,-1,7
 394 392 394 392 361 419 c 0,8,9
 328 447 328 447 327 482.5 c 128,-1,10
 326 518 326 518 360 547 c 2,11,-1
 593 750 l 1,12,-1
 330 804 l 2,13,14
 291 812 291 812 280 840 c 128,-1,15
 269 868 269 868 289 913 c 0,16,17
 310 959 310 959 339 970 c 128,-1,18
 368 981 368 981 403 964 c 2,19,-1
 641 842 l 1,20,-1
 652 1119 l 2,21,22
 654 1161 654 1161 680.5 1185 c 128,-1,23
 707 1209 707 1209 754 1209 c 256,24,25
 801 1209 801 1209 820 1185 c 128,-1,26
 839 1161 839 1161 827 1119 c 2,27,-1
 741 837 l 1,28,-1
 1004 955 l 2,29,30
 1045 973 1045 973 1076 957.5 c 128,-1,31
 1107 942 1107 942 1113 897 c 0,32,33
 1120 852 1120 852 1099.5 823.5 c 128,-1,34
 1079 795 1079 795 1037 787 c 2,35,-1
 754 739 l 1,36,-1
 908 527 l 2,37,38
 931 496 931 496 926 466.5 c 128,-1,39
 921 437 921 437 878 411 c 0,0,1
EndSplineSet
EndChar
StartChar: plus
Encoding: 43 43 11
Width: 1228
Flags: W
LayerCount: 2
Back
Fore
SplineSet
590 650 m 1,0,-1
 645 963 l 2,1,2
 651 997 651 997 668.5 1011.5 c 128,-1,3
 686 1026 686 1026 724 1026 c 256,4,5
 762 1026 762 1026 774.5 1011.5 c 128,-1,6
 787 997 787 997 781 963 c 2,7,-1
 726 650 l 1,8,-1
 1039 650 l 2,9,10
 1073 650 1073 650 1085 635 c 128,-1,11
 1097 620 1097 620 1090 582 c 256,12,13
 1083 544 1083 544 1066 529 c 128,-1,14
 1049 514 1049 514 1015 514 c 2,15,-1
 702 514 l 1,16,-1
 647 201 l 2,17,18
 641 167 641 167 623.5 152.5 c 128,-1,19
 606 138 606 138 568 138 c 256,20,21
 530 138 530 138 517.5 152.5 c 128,-1,22
 505 167 505 167 511 201 c 2,23,-1
 566 514 l 1,24,-1
 253 514 l 2,25,26
 219 514 219 514 207 529 c 128,-1,27
 195 544 195 544 202 582 c 256,28,29
 209 620 209 620 226 635 c 128,-1,30
 243 650 243 650 277 650 c 2,31,-1
 590 650 l 1,0,-1
EndSplineSet
EndChar
StartChar: comma
Encoding: 44 44 12
Width: 1228
Flags: W
LayerCount: 2
Back
Fore
SplineSet
387 -253 m 2,0,1
 358 -294 358 -294 312 -294 c 0,2,3
 283 -294 283 -294 266 -277 c 128,-1,4
 249 -260 249 -260 261 -228 c 2,5,-1
 445 254 l 2,6,7
 460 294 460 294 504 294 c 2,8,-1
 712 294 l 2,9,10
 737 294 737 294 742 275.5 c 128,-1,11
 747 257 747 257 729 231 c 2,12,-1
 387 -253 l 2,0,1
EndSplineSet
EndChar
StartChar: period
Encoding: 46 46 14
Width: 1228
Flags: W
LayerCount: 2
Back
Fore
SplineSet
544 -22 m 0,0,1
 512 -22 512 -22 485.5 -10.5 c 128,-1,2
 459 1 459 1 439.5 20.5 c 128,-1,3
 420 40 420 40 409 67 c 128,-1,4
 398 94 398 94 398 124 c 0,5,6
 398 164 398 164 414.5 199 c 128,-1,7
 431 234 431 234 459 260 c 128,-1,8
 487 286 487 286 522 301 c 128,-1,9
 557 316 557 316 595 316 c 0,10,11
 627 316 627 316 653.5 304.5 c 128,-1,12
 680 293 680 293 699.5 273.5 c 128,-1,13
 719 254 719 254 729.5 228 c 128,-1,14
 740 202 740 202 740 172 c 0,15,16
 740 132 740 132 723.5 96.5 c 128,-1,17
 707 61 707 61 680 35 c 128,-1,18
 653 9 653 9 617.5 -6.5 c 128,-1,19
 582 -22 582 -22 544 -22 c 0,0,1
EndSplineSet
EndChar
StartChar: slash
Encoding: 47 47 15
Width: 1228
Flags: W
LayerCount: 2
Back
Fore
SplineSet
232 -267 m 2,0,1
 222 -283 222 -283 202 -290 c 128,-1,2
 182 -297 182 -297 159 -297 c 0,3,4
 141 -297 141 -297 123.5 -292.5 c 128,-1,5
 106 -288 106 -288 94 -279.5 c 128,-1,6
 82 -271 82 -271 78.5 -259.5 c 128,-1,7
 75 -248 75 -248 84 -233 c 2,8,-1
 1038 1305 l 2,9,10
 1048 1321 1048 1321 1068 1328 c 128,-1,11
 1088 1335 1088 1335 1111 1335 c 0,12,13
 1129 1335 1129 1335 1146.5 1330.5 c 128,-1,14
 1164 1326 1164 1326 1176 1317.5 c 128,-1,15
 1188 1309 1188 1309 1191.5 1297.5 c 128,-1,16
 1195 1286 1195 1286 1186 1271 c 2,17,-1
 232 -267 l 2,0,1
EndSplineSet
EndChar
StartChar: zero
Encoding: 48 48 16
Width: 1228
Flags: W
LayerCount: 2
Back
Fore
SplineSet
731 1061 m 0,0,1
 672 1061 672 1061 622.5 1033 c 128,-1,2
 573 1005 573 1005 532 957.5 c 128,-1,3
 491 910 491 910 460 847 c 128,-1,4
 429 784 429 784 408 713.5 c 128,-1,5
 387 643 387 643 376 569 c 128,-1,6
 365 495 365 495 365 426 c 0,7,8
 365 280 365 280 418.5 203 c 128,-1,9
 472 126 472 126 566 126 c 0,10,11
 624 126 624 126 674 154 c 128,-1,12
 724 182 724 182 765 229.5 c 128,-1,13
 806 277 806 277 837 340 c 128,-1,14
 868 403 868 403 889 473.5 c 128,-1,15
 910 544 910 544 921 618 c 128,-1,16
 932 692 932 692 932 761 c 0,17,18
 932 907 932 907 878.5 984 c 128,-1,19
 825 1061 825 1061 731 1061 c 0,0,1
744 1209 m 0,20,21
 825 1209 825 1209 888.5 1176.5 c 128,-1,22
 952 1144 952 1144 996.5 1085 c 128,-1,23
 1041 1026 1041 1026 1064 942 c 128,-1,24
 1087 858 1087 858 1087 756 c 0,25,26
 1087 677 1087 677 1073.5 588.5 c 128,-1,27
 1060 500 1060 500 1031.5 413.5 c 128,-1,28
 1003 327 1003 327 960 248.5 c 128,-1,29
 917 170 917 170 857.5 109.5 c 128,-1,30
 798 49 798 49 722 13.5 c 128,-1,31
 646 -22 646 -22 553 -22 c 0,32,33
 472 -22 472 -22 408.5 10.5 c 128,-1,34
 345 43 345 43 300.5 102 c 128,-1,35
 256 161 256 161 233 245 c 128,-1,36
 210 329 210 329 210 431 c 0,37,38
 210 510 210 510 223.5 598.5 c 128,-1,39
 237 687 237 687 265.5 773.5 c 128,-1,40
 294 860 294 860 337 938.5 c 128,-1,41
 380 1017 380 1017 439.5 1077.5 c 128,-1,42
 499 1138 499 1138 575 1173.5 c 128,-1,43
 651 1209 651 1209 744 1209 c 0,20,21
EndSplineSet
EndChar
StartChar: one
Encoding: 49 49 17
Width: 1228
Flags: W
LayerCount: 2
Back
Fore
SplineSet
522 136 m 1,0,-1
 679 1027 l 1,1,-1
 419 938 l 2,2,3
 396 930 396 930 378 940.5 c 128,-1,4
 360 951 360 951 352 989 c 0,5,6
 344 1025 344 1025 355 1046 c 128,-1,7
 366 1067 366 1067 392 1075 c 2,8,-1
 786 1208 l 2,9,10
 819 1219 819 1219 838.5 1201.5 c 128,-1,11
 858 1184 858 1184 851 1146 c 2,12,-1
 672 136 l 1,13,-1
 947 136 l 2,14,15
 981 136 981 136 993 121 c 128,-1,16
 1005 106 1005 106 998 68 c 0,17,18
 992 30 992 30 975 15 c 128,-1,19
 958 0 958 0 924 0 c 2,20,-1
 250 0 l 2,21,22
 216 0 216 0 204 15 c 128,-1,23
 192 30 192 30 198 68 c 0,24,25
 205 106 205 106 222 121 c 128,-1,26
 239 136 239 136 273 136 c 2,27,-1
 522 136 l 1,0,-1
EndSplineSet
EndChar
StartChar: two
Encoding: 50 50 18
Width: 1228
Flags: W
LayerCount: 2
Back
Fore
SplineSet
180 0 m 2,0,1
 146 0 146 0 134 15 c 128,-1,2
 122 30 122 30 128 68 c 0,3,4
 135 106 135 106 153 122 c 2,5,-1
 672 568 l 2,6,7
 714 604 714 604 746.5 635 c 128,-1,8
 779 666 779 666 803.5 694 c 128,-1,9
 828 722 828 722 845.5 748.5 c 128,-1,10
 863 775 863 775 874 803 c 0,11,12
 882 825 882 825 888 849.5 c 128,-1,13
 894 874 894 874 894 901 c 0,14,15
 894 975 894 975 845 1018 c 128,-1,16
 796 1061 796 1061 698 1061 c 0,17,18
 638 1061 638 1061 583 1043.5 c 128,-1,19
 528 1026 528 1026 480 1000 c 1,20,-1
 461 895 l 2,21,22
 455 860 455 860 436 845 c 128,-1,23
 417 830 417 830 375 830 c 256,24,25
 333 830 333 830 319 845 c 128,-1,26
 305 860 305 860 311 895 c 2,27,-1
 338 1048 l 2,28,29
 345 1087 345 1087 371 1103 c 0,30,31
 450 1153 450 1153 535.5 1181 c 128,-1,32
 621 1209 621 1209 713 1209 c 0,33,34
 790 1209 790 1209 853 1189 c 128,-1,35
 916 1169 916 1169 960.5 1132 c 128,-1,36
 1005 1095 1005 1095 1029 1041.5 c 128,-1,37
 1053 988 1053 988 1053 921 c 0,38,39
 1053 886 1053 886 1047 850 c 128,-1,40
 1041 814 1041 814 1028 779 c 0,41,42
 1013 738 1013 738 990.5 701 c 128,-1,43
 968 664 968 664 937 627.5 c 128,-1,44
 906 591 906 591 867 554 c 128,-1,45
 828 517 828 517 781 477 c 2,46,-1
 384 136 l 1,47,-1
 830 136 l 1,48,-1
 856 282 l 2,49,50
 862 317 862 317 881.5 332 c 128,-1,51
 901 347 901 347 943 347 c 256,52,53
 985 347 985 347 998.5 332 c 128,-1,54
 1012 317 1012 317 1006 282 c 2,55,-1
 968 68 l 2,56,57
 962 30 962 30 945 15 c 128,-1,58
 928 0 928 0 894 0 c 2,59,-1
 180 0 l 2,0,1
EndSplineSet
EndChar
StartChar: three
Encoding: 51 51 19
Width: 1228
Flags: W
LayerCount: 2
Back
Fore
SplineSet
534 -22 m 0,0,1
 484 -22 484 -22 435 -13 c 128,-1,2
 386 -4 386 -4 340.5 12.5 c 128,-1,3
 295 29 295 29 254 52 c 128,-1,4
 213 75 213 75 179 104 c 0,5,6
 156 123 156 123 156.5 146 c 128,-1,7
 157 169 157 169 175 197 c 0,8,9
 184 210 184 210 194.5 221.5 c 128,-1,10
 205 233 205 233 217 238.5 c 128,-1,11
 229 244 229 244 242 242.5 c 128,-1,12
 255 241 255 241 268 229 c 0,13,14
 325 181 325 181 397.5 153.5 c 128,-1,15
 470 126 470 126 550 126 c 0,16,17
 632 126 632 126 688.5 150.5 c 128,-1,18
 745 175 745 175 780 213.5 c 128,-1,19
 815 252 815 252 830.5 299.5 c 128,-1,20
 846 347 846 347 846 392 c 0,21,22
 846 473 846 473 789.5 514 c 128,-1,23
 733 555 733 555 630 555 c 2,24,-1
 557 555 l 2,25,26
 523 555 523 555 511.5 570 c 128,-1,27
 500 585 500 585 506 623 c 0,28,29
 513 661 513 661 530 676 c 128,-1,30
 547 691 547 691 581 691 c 2,31,-1
 636 691 l 2,32,33
 712 691 712 691 763.5 711.5 c 128,-1,34
 815 732 815 732 846.5 764 c 128,-1,35
 878 796 878 796 891 836.5 c 128,-1,36
 904 877 904 877 904 917 c 0,37,38
 904 985 904 985 854.5 1023 c 128,-1,39
 805 1061 805 1061 708 1061 c 0,40,41
 591 1061 591 1061 504 1022 c 1,42,-1
 492 955 l 2,43,44
 486 920 486 920 466.5 905 c 128,-1,45
 447 890 447 890 405 890 c 256,46,47
 363 890 363 890 349.5 905 c 128,-1,48
 336 920 336 920 342 955 c 2,49,-1
 362 1069 l 2,50,51
 366 1091 366 1091 374.5 1104 c 128,-1,52
 383 1117 383 1117 399 1126 c 0,53,54
 475 1168 475 1168 552.5 1188.5 c 128,-1,55
 630 1209 630 1209 723 1209 c 0,56,57
 800 1209 800 1209 862 1188.5 c 128,-1,58
 924 1168 924 1168 967.5 1130.5 c 128,-1,59
 1011 1093 1011 1093 1034.5 1041.5 c 128,-1,60
 1058 990 1058 990 1058 927 c 0,61,62
 1058 827 1058 827 1009.5 749.5 c 128,-1,63
 961 672 961 672 858 627 c 1,64,65
 927 596 927 596 965 536 c 128,-1,66
 1003 476 1003 476 1003 395 c 0,67,68
 1003 350 1003 350 992.5 301.5 c 128,-1,69
 982 253 982 253 959 207 c 128,-1,70
 936 161 936 161 899.5 119 c 128,-1,71
 863 77 863 77 811 46 c 128,-1,72
 759 15 759 15 690 -3.5 c 128,-1,73
 621 -22 621 -22 534 -22 c 0,0,1
EndSplineSet
EndChar
StartChar: four
Encoding: 52 52 20
Width: 1228
Flags: W
LayerCount: 2
Back
Fore
SplineSet
641 136 m 1,0,-1
 681 360 l 1,1,-1
 203 360 l 2,2,3
 169 360 169 360 157 375 c 128,-1,4
 145 390 145 390 152 428 c 0,5,6
 155 444 155 444 159 457 c 128,-1,7
 163 470 163 470 170 478 c 2,8,-1
 773 1151 l 2,9,10
 799 1181 799 1181 827 1195 c 128,-1,11
 855 1209 855 1209 894 1209 c 0,12,13
 941 1209 941 1209 957 1187.5 c 128,-1,14
 973 1166 973 1166 967 1131 c 2,15,-1
 855 496 l 1,16,-1
 1017 496 l 2,17,18
 1051 496 1051 496 1063 481 c 128,-1,19
 1075 466 1075 466 1068 428 c 256,20,21
 1061 390 1061 390 1044 375 c 128,-1,22
 1027 360 1027 360 993 360 c 2,23,-1
 831 360 l 1,24,-1
 791 136 l 1,25,-1
 923 136 l 2,26,27
 957 136 957 136 969 121 c 128,-1,28
 981 106 981 106 974 68 c 0,29,30
 968 30 968 30 951 15 c 128,-1,31
 934 0 934 0 900 0 c 2,32,-1
 470 0 l 2,33,34
 436 0 436 0 424 15 c 128,-1,35
 412 30 412 30 418 68 c 0,36,37
 425 106 425 106 442 121 c 128,-1,38
 459 136 459 136 493 136 c 2,39,-1
 641 136 l 1,0,-1
799 986 m 1,40,-1
 368 496 l 1,41,-1
 705 496 l 1,42,-1
 799 986 l 1,40,-1
EndSplineSet
EndChar
StartChar: five
Encoding: 53 53 21
Width: 1228
Flags: W
LayerCount: 2
Back
Fore
SplineSet
265 226 m 0,0,1
 321 181 321 181 391.5 153.5 c 128,-1,2
 462 126 462 126 540 126 c 0,3,4
 622 126 622 126 682 155.5 c 128,-1,5
 742 185 742 185 780 230.5 c 128,-1,6
 818 276 818 276 836.5 332.5 c 128,-1,7
 855 389 855 389 855 443 c 0,8,9
 855 531 855 531 802 584.5 c 128,-1,10
 749 638 749 638 650 638 c 0,11,12
 578 638 578 638 521.5 619.5 c 128,-1,13
 465 601 465 601 410 567 c 0,14,15
 393 557 393 557 359 557 c 0,16,17
 317 557 317 557 302 572 c 128,-1,18
 287 587 287 587 295 622 c 2,19,-1
 403 1122 l 2,20,21
 411 1157 411 1157 429.5 1172 c 128,-1,22
 448 1187 448 1187 490 1187 c 2,23,-1
 1024 1187 l 2,24,25
 1058 1187 1058 1187 1070 1172 c 128,-1,26
 1082 1157 1082 1157 1075 1119 c 256,27,28
 1068 1081 1068 1081 1051 1066 c 128,-1,29
 1034 1051 1034 1051 1000 1051 c 2,30,-1
 534 1051 l 1,31,-1
 465 735 l 1,32,33
 517 762 517 762 569.5 774 c 128,-1,34
 622 786 622 786 679 786 c 0,35,36
 759 786 759 786 821 761.5 c 128,-1,37
 883 737 883 737 926 693 c 128,-1,38
 969 649 969 649 991 588.5 c 128,-1,39
 1013 528 1013 528 1013 457 c 0,40,41
 1013 404 1013 404 1000.5 347.5 c 128,-1,42
 988 291 988 291 962.5 237.5 c 128,-1,43
 937 184 937 184 897.5 137 c 128,-1,44
 858 90 858 90 804.5 54.5 c 128,-1,45
 751 19 751 19 682 -1.5 c 128,-1,46
 613 -22 613 -22 529 -22 c 0,47,48
 431 -22 431 -22 340.5 10.5 c 128,-1,49
 250 43 250 43 181 97 c 0,50,51
 159 114 159 114 156.5 137.5 c 128,-1,52
 154 161 154 161 178 196 c 256,53,54
 202 231 202 231 223.5 237 c 128,-1,55
 245 243 245 243 265 226 c 0,0,1
EndSplineSet
EndChar
StartChar: six
Encoding: 54 54 22
Width: 1228
Flags: W
LayerCount: 2
Back
Fore
SplineSet
663 583 m 0,0,1
 606 583 606 583 552.5 565 c 128,-1,2
 499 547 499 547 457.5 513.5 c 128,-1,3
 416 480 416 480 391.5 431 c 128,-1,4
 367 382 367 382 367 319 c 0,5,6
 367 276 367 276 381.5 240.5 c 128,-1,7
 396 205 396 205 423.5 179.5 c 128,-1,8
 451 154 451 154 491 140 c 128,-1,9
 531 126 531 126 582 126 c 0,10,11
 663 126 663 126 720 153 c 128,-1,12
 777 180 777 180 812 221 c 128,-1,13
 847 262 847 262 863 310.5 c 128,-1,14
 879 359 879 359 879 401 c 0,15,16
 879 485 879 485 823 534 c 128,-1,17
 767 583 767 583 663 583 c 0,0,1
1062 1062 m 0,18,19
 923 1055 923 1055 813.5 1018.5 c 128,-1,20
 704 982 704 982 621.5 921 c 128,-1,21
 539 860 539 860 483.5 778.5 c 128,-1,22
 428 697 428 697 397 600 c 1,23,24
 462 664 462 664 540.5 697.5 c 128,-1,25
 619 731 619 731 705 731 c 0,26,27
 778 731 778 731 839.5 708 c 128,-1,28
 901 685 901 685 944.5 644 c 128,-1,29
 988 603 988 603 1012.5 545 c 128,-1,30
 1037 487 1037 487 1037 417 c 0,31,32
 1037 336 1037 336 1006.5 257.5 c 128,-1,33
 976 179 976 179 916.5 117 c 128,-1,34
 857 55 857 55 769 16.5 c 128,-1,35
 681 -22 681 -22 566 -22 c 0,36,37
 513 -22 513 -22 463.5 -9.5 c 128,-1,38
 414 3 414 3 372.5 28 c 128,-1,39
 331 53 331 53 298.5 90 c 128,-1,40
 266 127 266 127 246 176 c 0,41,42
 213 255 213 255 213 372 c 0,43,44
 213 468 213 468 234.5 565.5 c 128,-1,45
 256 663 256 663 300.5 754 c 128,-1,46
 345 845 345 845 413 925 c 128,-1,47
 481 1005 481 1005 575 1065.5 c 128,-1,48
 669 1126 669 1126 789 1164 c 128,-1,49
 909 1202 909 1202 1057 1209 c 0,50,51
 1079 1210 1079 1210 1094.5 1196.5 c 128,-1,52
 1110 1183 1110 1183 1110 1142 c 0,53,54
 1110 1097 1110 1097 1096 1080 c 128,-1,55
 1082 1063 1082 1063 1062 1062 c 0,18,19
EndSplineSet
EndChar
StartChar: seven
Encoding: 55 55 23
Width: 1228
Flags: W
LayerCount: 2
Back
Fore
SplineSet
963 1051 m 1,0,-1
 494 1051 l 1,1,-1
 468 905 l 2,2,3
 462 870 462 870 443 855 c 128,-1,4
 424 840 424 840 382 840 c 256,5,6
 340 840 340 840 326 855 c 128,-1,7
 312 870 312 870 318 905 c 2,8,-1
 356 1119 l 2,9,10
 363 1157 363 1157 380 1172 c 128,-1,11
 397 1187 397 1187 431 1187 c 2,12,-1
 1105 1187 l 2,13,14
 1139 1187 1139 1187 1151 1172 c 128,-1,15
 1163 1157 1163 1157 1156 1119 c 0,16,17
 1154 1106 1154 1106 1150 1095.5 c 128,-1,18
 1146 1085 1146 1085 1143 1079 c 2,19,-1
 531 24 l 2,20,21
 517 0 517 0 492.5 -11 c 128,-1,22
 468 -22 468 -22 442 -22 c 0,23,24
 424 -22 424 -22 408 -16.5 c 128,-1,25
 392 -11 392 -11 382.5 -1 c 128,-1,26
 373 9 373 9 371 23.5 c 128,-1,27
 369 38 369 38 380 56 c 2,28,-1
 963 1051 l 1,0,-1
EndSplineSet
EndChar
StartChar: eight
Encoding: 56 56 24
Width: 1228
Flags: W
LayerCount: 2
Back
Fore
SplineSet
550 -22 m 0,0,1
 471 -22 471 -22 405 1.5 c 128,-1,2
 339 25 339 25 292 67 c 128,-1,3
 245 109 245 109 218.5 166 c 128,-1,4
 192 223 192 223 192 290 c 0,5,6
 192 353 192 353 212 406.5 c 128,-1,7
 232 460 232 460 267.5 503 c 128,-1,8
 303 546 303 546 350.5 579 c 128,-1,9
 398 612 398 612 452 635 c 1,10,11
 398 668 398 668 362.5 722 c 128,-1,12
 327 776 327 776 327 846 c 0,13,14
 327 903 327 903 354 967 c 128,-1,15
 381 1031 381 1031 434 1085 c 128,-1,16
 487 1139 487 1139 565.5 1174 c 128,-1,17
 644 1209 644 1209 747 1209 c 0,18,19
 819 1209 819 1209 878 1187 c 128,-1,20
 937 1165 937 1165 980 1126 c 128,-1,21
 1023 1087 1023 1087 1046.5 1035 c 128,-1,22
 1070 983 1070 983 1070 923 c 0,23,24
 1070 869 1070 869 1053.5 824 c 128,-1,25
 1037 779 1037 779 1008 742 c 128,-1,26
 979 705 979 705 940 676 c 128,-1,27
 901 647 901 647 857 625 c 1,28,29
 927 590 927 590 970.5 528.5 c 128,-1,30
 1014 467 1014 467 1014 384 c 0,31,32
 1014 315 1014 315 984.5 243 c 128,-1,33
 955 171 955 171 896.5 112 c 128,-1,34
 838 53 838 53 751 15.5 c 128,-1,35
 664 -22 664 -22 550 -22 c 0,0,1
641 554 m 0,36,37
 572 554 572 554 518 532 c 128,-1,38
 464 510 464 510 427.5 474 c 128,-1,39
 391 438 391 438 371.5 392.5 c 128,-1,40
 352 347 352 347 352 301 c 0,41,42
 352 262 352 262 367 230 c 128,-1,43
 382 198 382 198 410 174.5 c 128,-1,44
 438 151 438 151 477.5 138.5 c 128,-1,45
 517 126 517 126 566 126 c 0,46,47
 634 126 634 126 687.5 148 c 128,-1,48
 741 170 741 170 778.5 205.5 c 128,-1,49
 816 241 816 241 835.5 286.5 c 128,-1,50
 855 332 855 332 855 379 c 0,51,52
 855 418 855 418 840 450.5 c 128,-1,53
 825 483 825 483 797.5 506 c 128,-1,54
 770 529 770 529 730 541.5 c 128,-1,55
 690 554 690 554 641 554 c 0,36,37
666 693 m 0,56,57
 717 693 717 693 762.5 710 c 128,-1,58
 808 727 808 727 842 756.5 c 128,-1,59
 876 786 876 786 896 825.5 c 128,-1,60
 916 865 916 865 916 910 c 0,61,62
 916 981 916 981 865 1021 c 128,-1,63
 814 1061 814 1061 731 1061 c 0,64,65
 671 1061 671 1061 624.5 1042 c 128,-1,66
 578 1023 578 1023 545.5 992.5 c 128,-1,67
 513 962 513 962 496.5 924 c 128,-1,68
 480 886 480 886 480 847 c 0,69,70
 480 814 480 814 493.5 785.5 c 128,-1,71
 507 757 507 757 531.5 736.5 c 128,-1,72
 556 716 556 716 590 704.5 c 128,-1,73
 624 693 624 693 666 693 c 0,56,57
EndSplineSet
EndChar
StartChar: nine
Encoding: 57 57 25
Width: 1228
Flags: W
LayerCount: 2
Back
Fore
SplineSet
633 604 m 0,0,1
 690 604 690 604 743.5 622 c 128,-1,2
 797 640 797 640 838.5 673.5 c 128,-1,3
 880 707 880 707 904.5 756 c 128,-1,4
 929 805 929 805 929 868 c 0,5,6
 929 911 929 911 914.5 946.5 c 128,-1,7
 900 982 900 982 872.5 1007.5 c 128,-1,8
 845 1033 845 1033 805 1047 c 128,-1,9
 765 1061 765 1061 714 1061 c 0,10,11
 633 1061 633 1061 576 1034 c 128,-1,12
 519 1007 519 1007 484 966 c 128,-1,13
 449 925 449 925 433 876.5 c 128,-1,14
 417 828 417 828 417 786 c 0,15,16
 417 702 417 702 473 653 c 128,-1,17
 529 604 529 604 633 604 c 0,0,1
234 125 m 0,18,19
 373 132 373 132 482.5 168.5 c 128,-1,20
 592 205 592 205 674.5 266 c 128,-1,21
 757 327 757 327 812.5 408.5 c 128,-1,22
 868 490 868 490 899 587 c 1,23,24
 834 523 834 523 755.5 489.5 c 128,-1,25
 677 456 677 456 591 456 c 0,26,27
 517 456 517 456 456 479 c 128,-1,28
 395 502 395 502 351.5 543 c 128,-1,29
 308 584 308 584 283.5 642 c 128,-1,30
 259 700 259 700 259 770 c 0,31,32
 259 851 259 851 289.5 929.5 c 128,-1,33
 320 1008 320 1008 379.5 1070 c 128,-1,34
 439 1132 439 1132 527 1170.5 c 128,-1,35
 615 1209 615 1209 730 1209 c 0,36,37
 783 1209 783 1209 832.5 1196.5 c 128,-1,38
 882 1184 882 1184 923.5 1159 c 128,-1,39
 965 1134 965 1134 997.5 1097 c 128,-1,40
 1030 1060 1030 1060 1050 1011 c 0,41,42
 1083 931 1083 931 1083 815 c 0,43,44
 1083 719 1083 719 1061.5 621.5 c 128,-1,45
 1040 524 1040 524 995.5 433 c 128,-1,46
 951 342 951 342 883 262 c 128,-1,47
 815 182 815 182 721 121.5 c 128,-1,48
 627 61 627 61 507 23 c 128,-1,49
 387 -15 387 -15 239 -22 c 0,50,51
 216 -23 216 -23 201 -9.5 c 128,-1,52
 186 4 186 4 186 45 c 0,53,54
 186 90 186 90 200 107 c 128,-1,55
 214 124 214 124 234 125 c 0,18,19
EndSplineSet
EndChar
StartChar: colon
Encoding: 58 58 26
Width: 1228
Flags: W
LayerCount: 2
Back
Fore
SplineSet
544 -22 m 0,0,1
 512 -22 512 -22 485.5 -10.5 c 128,-1,2
 459 1 459 1 439.5 20.5 c 128,-1,3
 420 40 420 40 409 67 c 128,-1,4
 398 94 398 94 398 124 c 0,5,6
 398 164 398 164 414.5 199 c 128,-1,7
 431 234 431 234 459 260 c 128,-1,8
 487 286 487 286 522 301 c 128,-1,9
 557 316 557 316 595 316 c 0,10,11
 627 316 627 316 653.5 304.5 c 128,-1,12
 680 293 680 293 699.5 273.5 c 128,-1,13
 719 254 719 254 729.5 228 c 128,-1,14
 740 202 740 202 740 172 c 0,15,16
 740 132 740 132 723.5 96.5 c 128,-1,17
 707 61 707 61 680 35 c 128,-1,18
 653 9 653 9 617.5 -6.5 c 128,-1,19
 582 -22 582 -22 544 -22 c 0,0,1
656 608 m 0,20,21
 624 608 624 608 597.5 619.5 c 128,-1,22
 571 631 571 631 551.5 650.5 c 128,-1,23
 532 670 532 670 521 697 c 128,-1,24
 510 724 510 724 510 754 c 0,25,26
 510 794 510 794 526.5 829 c 128,-1,27
 543 864 543 864 571 890 c 128,-1,28
 599 916 599 916 634 931 c 128,-1,29
 669 946 669 946 707 946 c 0,30,31
 739 946 739 946 765.5 934.5 c 128,-1,32
 792 923 792 923 811.5 903.5 c 128,-1,33
 831 884 831 884 841.5 858 c 128,-1,34
 852 832 852 832 852 802 c 0,35,36
 852 762 852 762 835.5 726.5 c 128,-1,37
 819 691 819 691 792 665 c 128,-1,38
 765 639 765 639 729.5 623.5 c 128,-1,39
 694 608 694 608 656 608 c 0,20,21
EndSplineSet
EndChar
StartChar: semicolon
Encoding: 59 59 27
Width: 1228
Flags: W
LayerCount: 2
Back
Fore
SplineSet
656 608 m 0,0,1
 624 608 624 608 597.5 619.5 c 128,-1,2
 571 631 571 631 551.5 650.5 c 128,-1,3
 532 670 532 670 521 697 c 128,-1,4
 510 724 510 724 510 754 c 0,5,6
 510 794 510 794 526.5 829 c 128,-1,7
 543 864 543 864 571 890 c 128,-1,8
 599 916 599 916 634 931 c 128,-1,9
 669 946 669 946 707 946 c 0,10,11
 739 946 739 946 765.5 934.5 c 128,-1,12
 792 923 792 923 811.5 903.5 c 128,-1,13
 831 884 831 884 841.5 858 c 128,-1,14
 852 832 852 832 852 802 c 0,15,16
 852 762 852 762 835.5 726.5 c 128,-1,17
 819 691 819 691 792 665 c 128,-1,18
 765 639 765 639 729.5 623.5 c 128,-1,19
 694 608 694 608 656 608 c 0,0,1
387 -253 m 2,20,21
 358 -294 358 -294 312 -294 c 0,22,23
 283 -294 283 -294 266 -277 c 128,-1,24
 249 -260 249 -260 261 -228 c 2,25,-1
 445 254 l 2,26,27
 460 294 460 294 504 294 c 2,28,-1
 712 294 l 2,29,30
 737 294 737 294 742 275.5 c 128,-1,31
 747 257 747 257 729 231 c 2,32,-1
 387 -253 l 2,20,21
EndSplineSet
EndChar
StartChar: less
Encoding: 60 60 28
Width: 1228
Flags: W
LayerCount: 2
Back
Fore
SplineSet
988 261 m 2,0,1
 1017 246 1017 246 1020 223.5 c 128,-1,2
 1023 201 1023 201 1000 166 c 0,3,4
 977 133 977 133 953.5 125.5 c 128,-1,5
 930 118 930 118 902 133 c 2,6,-1
 192 514 l 2,7,8
 170 526 170 526 161 541.5 c 128,-1,9
 152 557 152 557 157 583 c 256,10,11
 162 609 162 609 176 624.5 c 128,-1,12
 190 640 190 640 216 652 c 2,13,-1
 1061 1033 l 2,14,15
 1094 1048 1094 1048 1116 1037 c 128,-1,16
 1138 1026 1138 1026 1149 993 c 0,17,18
 1160 958 1160 958 1151.5 933.5 c 128,-1,19
 1143 909 1143 909 1108 894 c 2,20,-1
 386 576 l 1,21,-1
 988 261 l 2,0,1
EndSplineSet
EndChar
StartChar: equal
Encoding: 61 61 29
Width: 1228
Flags: W
LayerCount: 2
Back
Fore
SplineSet
1074 850 m 2,0,1
 1108 850 1108 850 1120 835 c 128,-1,2
 1132 820 1132 820 1125 782 c 0,3,4
 1119 744 1119 744 1101.5 729 c 128,-1,5
 1084 714 1084 714 1050 714 c 2,6,-1
 288 714 l 2,7,8
 254 714 254 714 242.5 729 c 128,-1,9
 231 744 231 744 237 782 c 0,10,11
 244 820 244 820 261 835 c 128,-1,12
 278 850 278 850 312 850 c 2,13,-1
 1074 850 l 2,0,1
1004 450 m 2,14,15
 1038 450 1038 450 1050 435 c 128,-1,16
 1062 420 1062 420 1055 382 c 256,17,18
 1048 344 1048 344 1031 329 c 128,-1,19
 1014 314 1014 314 980 314 c 2,20,-1
 218 314 l 2,21,22
 184 314 184 314 172 329 c 128,-1,23
 160 344 160 344 167 382 c 256,24,25
 174 420 174 420 191 435 c 128,-1,26
 208 450 208 450 242 450 c 2,27,-1
 1004 450 l 2,14,15
EndSplineSet
EndChar
StartChar: greater
Encoding: 62 62 30
Width: 1228
Flags: W
LayerCount: 2
Back
Fore
SplineSet
304 905 m 2,0,1
 275 920 275 920 272 942.5 c 128,-1,2
 269 965 269 965 292 1000 c 0,3,4
 315 1033 315 1033 338.5 1040.5 c 128,-1,5
 362 1048 362 1048 390 1033 c 2,6,-1
 1100 652 l 2,7,8
 1122 640 1122 640 1131 624.5 c 128,-1,9
 1140 609 1140 609 1135 583 c 256,10,11
 1130 557 1130 557 1116 541.5 c 128,-1,12
 1102 526 1102 526 1076 514 c 2,13,-1
 231 133 l 2,14,15
 198 118 198 118 176 129 c 128,-1,16
 154 140 154 140 143 173 c 0,17,18
 132 208 132 208 140.5 232.5 c 128,-1,19
 149 257 149 257 184 272 c 2,20,-1
 906 590 l 1,21,-1
 304 905 l 2,0,1
EndSplineSet
EndChar
StartChar: question
Encoding: 63 63 31
Width: 1228
Flags: W
LayerCount: 2
Back
Fore
SplineSet
514 -22 m 0,0,1
 488 -22 488 -22 466 -12.5 c 128,-1,2
 444 -3 444 -3 428 13 c 128,-1,3
 412 29 412 29 403.5 50.5 c 128,-1,4
 395 72 395 72 395 97 c 0,5,6
 395 130 395 130 408.5 158.5 c 128,-1,7
 422 187 422 187 444.5 208 c 128,-1,8
 467 229 467 229 496 241.5 c 128,-1,9
 525 254 525 254 555 254 c 0,10,11
 581 254 581 254 603 244.5 c 128,-1,12
 625 235 625 235 640.5 219 c 128,-1,13
 656 203 656 203 665 181 c 128,-1,14
 674 159 674 159 674 134 c 0,15,16
 674 102 674 102 660.5 73.5 c 128,-1,17
 647 45 647 45 624.5 24 c 128,-1,18
 602 3 602 3 573 -9.5 c 128,-1,19
 544 -22 544 -22 514 -22 c 0,0,1
372 1067 m 2,20,21
 379 1108 379 1108 407 1123 c 0,22,23
 572 1209 572 1209 751 1209 c 0,24,25
 826 1209 826 1209 883.5 1189.5 c 128,-1,26
 941 1170 941 1170 980.5 1135.5 c 128,-1,27
 1020 1101 1020 1101 1040.5 1052.5 c 128,-1,28
 1061 1004 1061 1004 1061 947 c 0,29,30
 1061 904 1061 904 1050 860.5 c 128,-1,31
 1039 817 1039 817 1018 777 c 256,32,33
 997 737 997 737 965 705 c 128,-1,34
 933 673 933 673 890.5 646 c 128,-1,35
 848 619 848 619 795 594.5 c 128,-1,36
 742 570 742 570 679 546 c 1,37,-1
 645 410 l 2,38,39
 639 387 639 387 619 373 c 128,-1,40
 599 359 599 359 567 359 c 256,41,42
 535 359 535 359 519.5 373 c 128,-1,43
 504 387 504 387 507 410 c 2,44,-1
 531 605 l 2,45,46
 535 643 535 643 570 656 c 2,47,-1
 644 684 l 2,48,49
 731 717 731 717 785.5 748 c 128,-1,50
 840 779 840 779 869 820 c 0,51,52
 886 843 886 843 894 872 c 128,-1,53
 902 901 902 901 902 930 c 0,54,55
 902 990 902 990 860.5 1025.5 c 128,-1,56
 819 1061 819 1061 736 1061 c 0,57,58
 675 1061 675 1061 619.5 1050 c 128,-1,59
 564 1039 564 1039 513 1019 c 1,60,-1
 498 935 l 2,61,62
 492 900 492 900 473 885 c 128,-1,63
 454 870 454 870 412 870 c 256,64,65
 370 870 370 870 356 885 c 128,-1,66
 342 900 342 900 348 935 c 2,67,-1
 372 1067 l 2,20,21
EndSplineSet
EndChar
StartChar: at
Encoding: 64 64 32
Width: 1228
Flags: W
LayerCount: 2
Back
Fore
SplineSet
462 132 m 0,0,1
 430 132 430 132 402.5 143 c 128,-1,2
 375 154 375 154 354.5 176 c 128,-1,3
 334 198 334 198 322 230 c 128,-1,4
 310 262 310 262 310 303 c 0,5,6
 310 350 310 350 326 404 c 128,-1,7
 342 458 342 458 370 512 c 128,-1,8
 398 566 398 566 436 615 c 128,-1,9
 474 664 474 664 518.5 702 c 128,-1,10
 563 740 563 740 611 762.5 c 128,-1,11
 659 785 659 785 708 785 c 0,12,13
 756 785 756 785 781.5 757.5 c 128,-1,14
 807 730 807 730 818 685 c 1,15,-1
 860 748 l 2,16,17
 867 758 867 758 882.5 759.5 c 128,-1,18
 898 761 898 761 920 752 c 0,19,20
 939 744 939 744 948 732.5 c 128,-1,21
 957 721 957 721 951 706 c 2,22,-1
 821 404 l 2,23,24
 802 362 802 362 802 328 c 0,25,26
 802 297 802 297 818.5 280 c 128,-1,27
 835 263 835 263 864 263 c 0,28,29
 901 263 901 263 931.5 280 c 128,-1,30
 962 297 962 297 986.5 325.5 c 128,-1,31
 1011 354 1011 354 1028.5 391.5 c 128,-1,32
 1046 429 1046 429 1058 470.5 c 128,-1,33
 1070 512 1070 512 1076 554 c 128,-1,34
 1082 596 1082 596 1082 634 c 0,35,36
 1082 709 1082 709 1060 768.5 c 128,-1,37
 1038 828 1038 828 996 869.5 c 128,-1,38
 954 911 954 911 892.5 933 c 128,-1,39
 831 955 831 955 753 955 c 0,40,41
 667 955 667 955 589.5 926.5 c 128,-1,42
 512 898 512 898 446 849 c 128,-1,43
 380 800 380 800 327.5 734.5 c 128,-1,44
 275 669 275 669 238 594 c 128,-1,45
 201 519 201 519 181 439 c 128,-1,46
 161 359 161 359 161 282 c 0,47,48
 161 209 161 209 181.5 151.5 c 128,-1,49
 202 94 202 94 243 53.5 c 128,-1,50
 284 13 284 13 344 -8.5 c 128,-1,51
 404 -30 404 -30 484 -30 c 0,52,53
 556 -30 556 -30 624 -19.5 c 128,-1,54
 692 -9 692 -9 746 7 c 0,55,56
 782 17 782 17 792 -35 c 0,57,58
 803 -88 803 -88 770 -101 c 0,59,60
 713 -124 713 -124 635.5 -138.5 c 128,-1,61
 558 -153 558 -153 475 -153 c 0,62,63
 371 -153 371 -153 290 -123.5 c 128,-1,64
 209 -94 209 -94 153 -39.5 c 128,-1,65
 97 15 97 15 67.5 93.5 c 128,-1,66
 38 172 38 172 38 270 c 0,67,68
 38 369 38 369 63 468 c 128,-1,69
 88 567 88 567 134 656.5 c 128,-1,70
 180 746 180 746 245 823 c 128,-1,71
 310 900 310 900 391.5 957 c 128,-1,72
 473 1014 473 1014 568.5 1046 c 128,-1,73
 664 1078 664 1078 770 1078 c 0,74,75
 871 1078 871 1078 951.5 1046 c 128,-1,76
 1032 1014 1032 1014 1087.5 956 c 128,-1,77
 1143 898 1143 898 1172.5 818 c 128,-1,78
 1202 738 1202 738 1202 641 c 0,79,80
 1202 546 1202 546 1177.5 455.5 c 128,-1,81
 1153 365 1153 365 1107 294.5 c 128,-1,82
 1061 224 1061 224 995 180.5 c 128,-1,83
 929 137 929 137 847 137 c 0,84,85
 782 137 782 137 743.5 170.5 c 128,-1,86
 705 204 705 204 691 267 c 1,87,88
 636 204 636 204 581 168 c 128,-1,89
 526 132 526 132 462 132 c 0,0,1
500 266 m 0,90,91
 532 266 532 266 562 283.5 c 128,-1,92
 592 301 592 301 619 329 c 128,-1,93
 646 357 646 357 669 392 c 128,-1,94
 692 427 692 427 708.5 463 c 128,-1,95
 725 499 725 499 734 532.5 c 128,-1,96
 743 566 743 566 743 590 c 0,97,98
 743 658 743 658 682 658 c 0,99,100
 660 658 660 658 634 642.5 c 128,-1,101
 608 627 608 627 582 601 c 128,-1,102
 556 575 556 575 531.5 541.5 c 128,-1,103
 507 508 507 508 488.5 471 c 128,-1,104
 470 434 470 434 459 397 c 128,-1,105
 448 360 448 360 448 327 c 0,106,107
 448 295 448 295 462.5 280.5 c 128,-1,108
 477 266 477 266 500 266 c 0,90,91
EndSplineSet
EndChar
StartChar: A
Encoding: 65 65 33
Width: 1228
Flags: W
LayerCount: 2
Back
Fore
SplineSet
360 136 m 2,0,1
 394 136 394 136 406 121 c 128,-1,2
 418 106 418 106 411 68 c 0,3,4
 405 30 405 30 388 15 c 128,-1,5
 371 0 371 0 337 0 c 2,6,-1
 3 0 l 2,7,8
 -31 0 -31 0 -43 15 c 128,-1,9
 -55 30 -55 30 -49 68 c 0,10,11
 -42 106 -42 106 -25 121 c 128,-1,12
 -8 136 -8 136 26 136 c 2,13,-1
 79 136 l 1,14,-1
 572 1051 l 1,15,-1
 388 1051 l 2,16,17
 354 1051 354 1051 342 1066 c 128,-1,18
 330 1081 330 1081 337 1119 c 256,19,20
 344 1157 344 1157 361 1172 c 128,-1,21
 378 1187 378 1187 412 1187 c 2,22,-1
 776 1187 l 2,23,24
 816 1187 816 1187 837.5 1172 c 128,-1,25
 859 1157 859 1157 865 1122 c 2,26,-1
 1044 136 l 1,27,-1
 1108 136 l 2,28,29
 1142 136 1142 136 1154 121 c 128,-1,30
 1166 106 1166 106 1159 68 c 0,31,32
 1153 30 1153 30 1136 15 c 128,-1,33
 1119 0 1119 0 1085 0 c 2,34,-1
 731 0 l 2,35,36
 697 0 697 0 685 15 c 128,-1,37
 673 30 673 30 679 68 c 0,38,39
 686 106 686 106 703 121 c 128,-1,40
 720 136 720 136 754 136 c 2,41,-1
 894 136 l 1,42,-1
 854 374 l 1,43,-1
 369 374 l 1,44,-1
 244 136 l 1,45,-1
 360 136 l 2,0,1
440 510 m 1,46,-1
 832 510 l 1,47,-1
 742 1051 l 1,48,-1
 723 1051 l 1,49,-1
 440 510 l 1,46,-1
EndSplineSet
EndChar
StartChar: B
Encoding: 66 66 34
Width: 1228
Flags: W
LayerCount: 2
Back
Fore
SplineSet
73 0 m 2,0,1
 39 0 39 0 27 15 c 128,-1,2
 15 30 15 30 21 68 c 0,3,4
 28 106 28 106 45 121 c 128,-1,5
 62 136 62 136 96 136 c 2,6,-1
 218 136 l 1,7,-1
 380 1051 l 1,8,-1
 258 1051 l 2,9,10
 224 1051 224 1051 212 1066 c 128,-1,11
 200 1081 200 1081 207 1119 c 256,12,13
 214 1157 214 1157 231 1172 c 128,-1,14
 248 1187 248 1187 282 1187 c 2,15,-1
 773 1187 l 2,16,17
 853 1187 853 1187 913 1167 c 128,-1,18
 973 1147 973 1147 1013.5 1111.5 c 128,-1,19
 1054 1076 1054 1076 1074 1026.5 c 128,-1,20
 1094 977 1094 977 1094 918 c 0,21,22
 1094 811 1094 811 1045.5 742.5 c 128,-1,23
 997 674 997 674 914 631 c 1,24,25
 997 602 997 602 1041.5 540 c 128,-1,26
 1086 478 1086 478 1086 390 c 0,27,28
 1086 324 1086 324 1063.5 254.5 c 128,-1,29
 1041 185 1041 185 989.5 128.5 c 128,-1,30
 938 72 938 72 854.5 36 c 128,-1,31
 771 0 771 0 650 0 c 2,32,-1
 73 0 l 2,0,1
633 136 m 2,33,34
 702 136 702 136 756.5 153 c 128,-1,35
 811 170 811 170 849.5 202.5 c 128,-1,36
 888 235 888 235 908.5 281.5 c 128,-1,37
 929 328 929 328 929 388 c 0,38,39
 929 545 929 545 711 545 c 2,40,-1
 441 545 l 1,41,-1
 368 136 l 1,42,-1
 633 136 l 2,33,34
672 681 m 2,43,44
 744 681 744 681 795.5 699.5 c 128,-1,45
 847 718 847 718 879 749.5 c 128,-1,46
 911 781 911 781 926 822 c 128,-1,47
 941 863 941 863 941 907 c 0,48,49
 941 978 941 978 891 1014.5 c 128,-1,50
 841 1051 841 1051 737 1051 c 2,51,-1
 530 1051 l 1,52,-1
 465 681 l 1,53,-1
 672 681 l 2,43,44
EndSplineSet
EndChar
StartChar: C
Encoding: 67 67 35
Width: 1228
Flags: W
LayerCount: 2
Back
Fore
SplineSet
997 814 m 0,0,1
 1006 863 1006 863 997 908 c 128,-1,2
 988 953 988 953 960 987 c 128,-1,3
 932 1021 932 1021 882.5 1041 c 128,-1,4
 833 1061 833 1061 761 1061 c 256,5,6
 689 1061 689 1061 626.5 1037 c 128,-1,7
 564 1013 564 1013 512.5 971 c 128,-1,8
 461 929 461 929 421 871.5 c 128,-1,9
 381 814 381 814 353.5 747.5 c 128,-1,10
 326 681 326 681 312 607.5 c 128,-1,11
 298 534 298 534 298 461 c 0,12,13
 298 382 298 382 317.5 320 c 128,-1,14
 337 258 337 258 374 215 c 128,-1,15
 411 172 411 172 464.5 149 c 128,-1,16
 518 126 518 126 586 126 c 0,17,18
 686 126 686 126 780 157 c 128,-1,19
 874 188 874 188 956 242 c 0,20,21
 979 257 979 257 1003 249.5 c 128,-1,22
 1027 242 1027 242 1045 207 c 0,23,24
 1062 172 1062 172 1057.5 148 c 128,-1,25
 1053 124 1053 124 1023 106 c 0,26,27
 916 43 916 43 803.5 10.5 c 128,-1,28
 691 -22 691 -22 575 -22 c 0,29,30
 474 -22 474 -22 393 12 c 128,-1,31
 312 46 312 46 256 108 c 128,-1,32
 200 170 200 170 170 257.5 c 128,-1,33
 140 345 140 345 140 453 c 0,34,35
 140 550 140 550 160 643.5 c 128,-1,36
 180 737 180 737 218 821 c 128,-1,37
 256 905 256 905 311.5 976 c 128,-1,38
 367 1047 367 1047 437 1099 c 128,-1,39
 507 1151 507 1151 591.5 1180 c 128,-1,40
 676 1209 676 1209 772 1209 c 0,41,42
 871 1209 871 1209 938.5 1174.5 c 128,-1,43
 1006 1140 1006 1140 1044 1080 c 1,44,-1
 1055 1144 l 2,45,46
 1061 1179 1061 1179 1080.5 1194 c 128,-1,47
 1100 1209 1100 1209 1142 1209 c 256,48,49
 1184 1209 1184 1209 1197.5 1194 c 128,-1,50
 1211 1179 1211 1179 1205 1144 c 2,51,-1
 1147 814 l 2,52,53
 1141 779 1141 779 1122 764 c 128,-1,54
 1103 749 1103 749 1061 749 c 256,55,56
 1019 749 1019 749 1005 764 c 128,-1,57
 991 779 991 779 997 814 c 0,0,1
EndSplineSet
EndChar
StartChar: D
Encoding: 68 68 36
Width: 1228
Flags: W
LayerCount: 2
Back
Fore
SplineSet
370 1051 m 1,0,-1
 258 1051 l 2,1,2
 224 1051 224 1051 212 1066 c 128,-1,3
 200 1081 200 1081 207 1119 c 256,4,5
 214 1157 214 1157 231 1172 c 128,-1,6
 248 1187 248 1187 282 1187 c 2,7,-1
 738 1187 l 2,8,9
 840 1187 840 1187 923 1155 c 128,-1,10
 1006 1123 1006 1123 1064 1063 c 128,-1,11
 1122 1003 1122 1003 1153.5 917.5 c 128,-1,12
 1185 832 1185 832 1185 724 c 0,13,14
 1185 655 1185 655 1171 574.5 c 128,-1,15
 1157 494 1157 494 1126.5 413.5 c 128,-1,16
 1096 333 1096 333 1047 258.5 c 128,-1,17
 998 184 998 184 928.5 126.5 c 128,-1,18
 859 69 859 69 767.5 34.5 c 128,-1,19
 676 0 676 0 559 0 c 2,20,-1
 73 0 l 2,21,22
 39 0 39 0 27 15 c 128,-1,23
 15 30 15 30 21 68 c 0,24,25
 28 106 28 106 45 121 c 128,-1,26
 62 136 62 136 96 136 c 2,27,-1
 208 136 l 1,28,-1
 370 1051 l 1,0,-1
544 136 m 2,29,30
 634 136 634 136 705 163 c 128,-1,31
 776 190 776 190 829.5 235.5 c 128,-1,32
 883 281 883 281 921 340.5 c 128,-1,33
 959 400 959 400 982.5 465 c 128,-1,34
 1006 530 1006 530 1017 595.5 c 128,-1,35
 1028 661 1028 661 1028 719 c 0,36,37
 1028 882 1028 882 942.5 966.5 c 128,-1,38
 857 1051 857 1051 706 1051 c 2,39,-1
 520 1051 l 1,40,-1
 358 136 l 1,41,-1
 544 136 l 2,29,30
EndSplineSet
EndChar
StartChar: E
Encoding: 69 69 37
Width: 1228
Flags: W
LayerCount: 2
Back
Fore
SplineSet
360 1051 m 1,0,-1
 258 1051 l 2,1,2
 224 1051 224 1051 212 1066 c 128,-1,3
 200 1081 200 1081 207 1119 c 256,4,5
 214 1157 214 1157 231 1172 c 128,-1,6
 248 1187 248 1187 282 1187 c 2,7,-1
 1156 1187 l 2,8,9
 1190 1187 1190 1187 1202 1172 c 128,-1,10
 1214 1157 1214 1157 1207 1119 c 2,11,-1
 1162 865 l 2,12,13
 1156 830 1156 830 1137 815 c 128,-1,14
 1118 800 1118 800 1076 800 c 256,15,16
 1034 800 1034 800 1020 815 c 128,-1,17
 1006 830 1006 830 1012 865 c 2,18,-1
 1045 1051 l 1,19,-1
 510 1051 l 1,20,-1
 444 680 l 1,21,-1
 694 680 l 1,22,-1
 710 771 l 2,23,24
 717 806 717 806 736 821 c 128,-1,25
 755 836 755 836 797 836 c 256,26,27
 839 836 839 836 853 821 c 128,-1,28
 867 806 867 806 860 771 c 2,29,-1
 804 453 l 2,30,31
 798 418 798 418 779 403 c 128,-1,32
 760 388 760 388 718 388 c 256,33,34
 676 388 676 388 662 403 c 128,-1,35
 648 418 648 418 654 453 c 2,36,-1
 670 544 l 1,37,-1
 420 544 l 1,38,-1
 348 136 l 1,39,-1
 903 136 l 1,40,-1
 944 365 l 2,41,42
 950 400 950 400 969 415 c 128,-1,43
 988 430 988 430 1030 430 c 256,44,45
 1072 430 1072 430 1086 415 c 128,-1,46
 1100 400 1100 400 1094 365 c 2,47,-1
 1041 68 l 2,48,49
 1035 30 1035 30 1018 15 c 128,-1,50
 1001 0 1001 0 967 0 c 2,51,-1
 73 0 l 2,52,53
 39 0 39 0 27 15 c 128,-1,54
 15 30 15 30 21 68 c 0,55,56
 28 106 28 106 45 121 c 128,-1,57
 62 136 62 136 96 136 c 2,58,-1
 198 136 l 1,59,-1
 360 1051 l 1,0,-1
EndSplineSet
EndChar
StartChar: F
Encoding: 70 70 38
Width: 1228
Flags: W
LayerCount: 2
Back
Fore
SplineSet
390 1051 m 1,0,-1
 258 1051 l 2,1,2
 224 1051 224 1051 212 1066 c 128,-1,3
 200 1081 200 1081 207 1119 c 256,4,5
 214 1157 214 1157 231 1172 c 128,-1,6
 248 1187 248 1187 282 1187 c 2,7,-1
 1186 1187 l 2,8,9
 1220 1187 1220 1187 1232 1172 c 128,-1,10
 1244 1157 1244 1157 1237 1119 c 2,11,-1
 1190 855 l 2,12,13
 1184 820 1184 820 1165 805 c 128,-1,14
 1146 790 1146 790 1104 790 c 256,15,16
 1062 790 1062 790 1048 805 c 128,-1,17
 1034 820 1034 820 1040 855 c 2,18,-1
 1075 1051 l 1,19,-1
 540 1051 l 1,20,-1
 471 660 l 1,21,-1
 721 660 l 1,22,-1
 737 751 l 2,23,24
 743 786 743 786 762 801 c 128,-1,25
 781 816 781 816 823 816 c 256,26,27
 865 816 865 816 879 801 c 128,-1,28
 893 786 893 786 887 751 c 2,29,-1
 831 433 l 2,30,31
 825 398 825 398 805.5 383 c 128,-1,32
 786 368 786 368 744 368 c 256,33,34
 702 368 702 368 688.5 383 c 128,-1,35
 675 398 675 398 681 433 c 2,36,-1
 697 524 l 1,37,-1
 447 524 l 1,38,-1
 378 136 l 1,39,-1
 610 136 l 2,40,41
 644 136 644 136 656 121 c 128,-1,42
 668 106 668 106 661 68 c 0,43,44
 655 30 655 30 638 15 c 128,-1,45
 621 0 621 0 587 0 c 2,46,-1
 73 0 l 2,47,48
 39 0 39 0 27 15 c 128,-1,49
 15 30 15 30 21 68 c 0,50,51
 28 106 28 106 45 121 c 128,-1,52
 62 136 62 136 96 136 c 2,53,-1
 228 136 l 1,54,-1
 390 1051 l 1,0,-1
EndSplineSet
EndChar
StartChar: G
Encoding: 71 71 39
Width: 1228
Flags: W
LayerCount: 2
Back
Fore
SplineSet
678 410 m 2,0,1
 644 410 644 410 632 425 c 128,-1,2
 620 440 620 440 627 478 c 256,3,4
 634 516 634 516 651 531 c 128,-1,5
 668 546 668 546 702 546 c 2,6,-1
 1131 546 l 2,7,8
 1165 546 1165 546 1177 531 c 128,-1,9
 1189 516 1189 516 1182 478 c 256,10,11
 1175 440 1175 440 1158 425 c 128,-1,12
 1141 410 1141 410 1107 410 c 2,13,-1
 1075 410 l 1,14,-1
 1026 134 l 2,15,16
 1021 110 1021 110 1009 92 c 128,-1,17
 997 74 997 74 978 65 c 0,18,19
 887 20 887 20 783 -1 c 128,-1,20
 679 -22 679 -22 565 -22 c 0,21,22
 463 -22 463 -22 381 12.5 c 128,-1,23
 299 47 299 47 241 110 c 128,-1,24
 183 173 183 173 152 262 c 128,-1,25
 121 351 121 351 121 460 c 0,26,27
 121 556 121 556 142 649 c 128,-1,28
 163 742 163 742 202 825.5 c 128,-1,29
 241 909 241 909 297.5 979 c 128,-1,30
 354 1049 354 1049 425 1100.5 c 128,-1,31
 496 1152 496 1152 581 1180.5 c 128,-1,32
 666 1209 666 1209 762 1209 c 0,33,34
 861 1209 861 1209 928 1176.5 c 128,-1,35
 995 1144 995 1144 1034 1090 c 1,36,-1
 1043 1144 l 2,37,38
 1049 1179 1049 1179 1068.5 1194 c 128,-1,39
 1088 1209 1088 1209 1130 1209 c 256,40,41
 1172 1209 1172 1209 1185.5 1194 c 128,-1,42
 1199 1179 1199 1179 1193 1144 c 2,43,-1
 1142 854 l 2,44,45
 1136 819 1136 819 1117 804 c 128,-1,46
 1098 789 1098 789 1056 789 c 256,47,48
 1014 789 1014 789 1000 804 c 128,-1,49
 986 819 986 819 992 854 c 0,50,51
 1000 899 1000 899 988.5 937 c 128,-1,52
 977 975 977 975 946.5 1002.5 c 128,-1,53
 916 1030 916 1030 867 1045.5 c 128,-1,54
 818 1061 818 1061 751 1061 c 0,55,56
 675 1061 675 1061 610 1036 c 128,-1,57
 545 1011 545 1011 492.5 968.5 c 128,-1,58
 440 926 440 926 400 868 c 128,-1,59
 360 810 360 810 333 743.5 c 128,-1,60
 306 677 306 677 292 606 c 128,-1,61
 278 535 278 535 278 465 c 0,62,63
 278 385 278 385 298.5 322.5 c 128,-1,64
 319 260 319 260 357 216 c 128,-1,65
 395 172 395 172 450.5 149 c 128,-1,66
 506 126 506 126 576 126 c 0,67,68
 661 126 661 126 737.5 139.5 c 128,-1,69
 814 153 814 153 885 183 c 1,70,-1
 925 410 l 1,71,-1
 678 410 l 2,0,1
EndSplineSet
EndChar
StartChar: H
Encoding: 72 72 40
Width: 1228
Flags: W
LayerCount: 2
Back
Fore
SplineSet
330 1051 m 1,0,-1
 258 1051 l 2,1,2
 224 1051 224 1051 212 1066 c 128,-1,3
 200 1081 200 1081 207 1119 c 256,4,5
 214 1157 214 1157 231 1172 c 128,-1,6
 248 1187 248 1187 282 1187 c 2,7,-1
 596 1187 l 2,8,9
 630 1187 630 1187 642 1172 c 128,-1,10
 654 1157 654 1157 647 1119 c 256,11,12
 640 1081 640 1081 623 1066 c 128,-1,13
 606 1051 606 1051 572 1051 c 2,14,-1
 480 1051 l 1,15,-1
 414 680 l 1,16,-1
 912 680 l 1,17,-1
 978 1051 l 1,18,-1
 886 1051 l 2,19,20
 852 1051 852 1051 840 1066 c 128,-1,21
 828 1081 828 1081 835 1119 c 256,22,23
 842 1157 842 1157 859 1172 c 128,-1,24
 876 1187 876 1187 910 1187 c 2,25,-1
 1224 1187 l 2,26,27
 1258 1187 1258 1187 1270 1172 c 128,-1,28
 1282 1157 1282 1157 1275 1119 c 256,29,30
 1268 1081 1268 1081 1251 1066 c 128,-1,31
 1234 1051 1234 1051 1200 1051 c 2,32,-1
 1128 1051 l 1,33,-1
 966 136 l 1,34,-1
 1038 136 l 2,35,36
 1072 136 1072 136 1084 121 c 128,-1,37
 1096 106 1096 106 1089 68 c 0,38,39
 1083 30 1083 30 1066 15 c 128,-1,40
 1049 0 1049 0 1015 0 c 2,41,-1
 701 0 l 2,42,43
 667 0 667 0 655 15 c 128,-1,44
 643 30 643 30 649 68 c 0,45,46
 656 106 656 106 673 121 c 128,-1,47
 690 136 690 136 724 136 c 2,48,-1
 816 136 l 1,49,-1
 888 544 l 1,50,-1
 390 544 l 1,51,-1
 318 136 l 1,52,-1
 410 136 l 2,53,54
 444 136 444 136 456 121 c 128,-1,55
 468 106 468 106 461 68 c 0,56,57
 455 30 455 30 438 15 c 128,-1,58
 421 0 421 0 387 0 c 2,59,-1
 73 0 l 2,60,61
 39 0 39 0 27 15 c 128,-1,62
 15 30 15 30 21 68 c 0,63,64
 28 106 28 106 45 121 c 128,-1,65
 62 136 62 136 96 136 c 2,66,-1
 168 136 l 1,67,-1
 330 1051 l 1,0,-1
EndSplineSet
EndChar
StartChar: I
Encoding: 73 73 41
Width: 1228
Flags: W
LayerCount: 2
Back
Fore
SplineSet
654 1051 m 1,0,-1
 388 1051 l 2,1,2
 354 1051 354 1051 342 1066 c 128,-1,3
 330 1081 330 1081 337 1119 c 256,4,5
 344 1157 344 1157 361 1172 c 128,-1,6
 378 1187 378 1187 412 1187 c 2,7,-1
 1074 1187 l 2,8,9
 1108 1187 1108 1187 1120 1172 c 128,-1,10
 1132 1157 1132 1157 1125 1119 c 256,11,12
 1118 1081 1118 1081 1101 1066 c 128,-1,13
 1084 1051 1084 1051 1050 1051 c 2,14,-1
 804 1051 l 1,15,-1
 642 136 l 1,16,-1
 928 136 l 2,17,18
 962 136 962 136 974 121 c 128,-1,19
 986 106 986 106 979 68 c 0,20,21
 973 30 973 30 956 15 c 128,-1,22
 939 0 939 0 905 0 c 2,23,-1
 203 0 l 2,24,25
 169 0 169 0 157 15 c 128,-1,26
 145 30 145 30 151 68 c 0,27,28
 158 106 158 106 175 121 c 128,-1,29
 192 136 192 136 226 136 c 2,30,-1
 492 136 l 1,31,-1
 654 1051 l 1,0,-1
EndSplineSet
EndChar
StartChar: J
Encoding: 74 74 42
Width: 1228
Flags: W
LayerCount: 2
Back
Fore
SplineSet
518 1051 m 2,0,1
 484 1051 484 1051 472 1066 c 128,-1,2
 460 1081 460 1081 467 1119 c 256,3,4
 474 1157 474 1157 491 1172 c 128,-1,5
 508 1187 508 1187 542 1187 c 2,6,-1
 1234 1187 l 2,7,8
 1268 1187 1268 1187 1280 1172 c 128,-1,9
 1292 1157 1292 1157 1285 1119 c 256,10,11
 1278 1081 1278 1081 1261 1066 c 128,-1,12
 1244 1051 1244 1051 1210 1051 c 2,13,-1
 1009 1051 l 1,14,-1
 882 333 l 2,15,16
 851 156 851 156 741 67 c 128,-1,17
 631 -22 631 -22 435 -22 c 0,18,19
 376 -22 376 -22 323 -10 c 128,-1,20
 270 2 270 2 225 23 c 128,-1,21
 180 44 180 44 144.5 73 c 128,-1,22
 109 102 109 102 84 135 c 0,23,24
 71 154 71 154 77 186 c 2,25,-1
 126 465 l 2,26,27
 133 500 133 500 152 515 c 128,-1,28
 171 530 171 530 213 530 c 256,29,30
 255 530 255 530 269 515 c 128,-1,31
 283 500 283 500 276 465 c 2,32,-1
 230 201 l 1,33,34
 300 126 300 126 447 126 c 0,35,36
 580 126 580 126 648.5 185 c 128,-1,37
 717 244 717 244 738 363 c 2,38,-1
 859 1051 l 1,39,-1
 518 1051 l 2,0,1
EndSplineSet
EndChar
StartChar: K
Encoding: 75 75 43
Width: 1228
Flags: W
LayerCount: 2
Back
Fore
SplineSet
370 1051 m 1,0,-1
 258 1051 l 2,1,2
 224 1051 224 1051 212 1066 c 128,-1,3
 200 1081 200 1081 207 1119 c 256,4,5
 214 1157 214 1157 231 1172 c 128,-1,6
 248 1187 248 1187 282 1187 c 2,7,-1
 636 1187 l 2,8,9
 670 1187 670 1187 682 1172 c 128,-1,10
 694 1157 694 1157 687 1119 c 256,11,12
 680 1081 680 1081 663 1066 c 128,-1,13
 646 1051 646 1051 612 1051 c 2,14,-1
 520 1051 l 1,15,-1
 447 635 l 1,16,-1
 949 1051 l 1,17,-1
 886 1051 l 2,18,19
 852 1051 852 1051 840 1066 c 128,-1,20
 828 1081 828 1081 835 1119 c 256,21,22
 842 1157 842 1157 859 1172 c 128,-1,23
 876 1187 876 1187 910 1187 c 2,24,-1
 1234 1187 l 2,25,26
 1268 1187 1268 1187 1280 1172 c 128,-1,27
 1292 1157 1292 1157 1285 1119 c 256,28,29
 1278 1081 1278 1081 1261 1066 c 128,-1,30
 1244 1051 1244 1051 1210 1051 c 2,31,-1
 1158 1051 l 1,32,-1
 663 646 l 1,33,34
 732 651 732 651 782.5 629 c 128,-1,35
 833 607 833 607 869 547 c 0,36,37
 891 510 891 510 904.5 465 c 128,-1,38
 918 420 918 420 928 374 c 128,-1,39
 938 328 938 328 947 284.5 c 128,-1,40
 956 241 956 241 968 208 c 256,41,42
 980 175 980 175 998 155.5 c 128,-1,43
 1016 136 1016 136 1045 136 c 2,44,-1
 1078 136 l 2,45,46
 1112 136 1112 136 1124 121 c 128,-1,47
 1136 106 1136 106 1129 68 c 0,48,49
 1123 30 1123 30 1106 15 c 128,-1,50
 1089 0 1089 0 1055 0 c 2,51,-1
 978 0 l 2,52,53
 933 0 933 0 894.5 31 c 128,-1,54
 856 62 856 62 830 139 c 0,55,56
 817 179 817 179 808 222.5 c 128,-1,57
 799 266 799 266 790 308.5 c 128,-1,58
 781 351 781 351 770.5 390 c 128,-1,59
 760 429 760 429 744 460 c 0,60,61
 726 495 726 495 692 513.5 c 128,-1,62
 658 532 658 532 610 532 c 0,63,64
 568 532 568 532 526 517.5 c 128,-1,65
 484 503 484 503 448 473 c 2,66,-1
 413 444 l 1,67,-1
 358 136 l 1,68,-1
 520 136 l 2,69,70
 554 136 554 136 566 121 c 128,-1,71
 578 106 578 106 571 68 c 0,72,73
 565 30 565 30 548 15 c 128,-1,74
 531 0 531 0 497 0 c 2,75,-1
 73 0 l 2,76,77
 39 0 39 0 27 15 c 128,-1,78
 15 30 15 30 21 68 c 0,79,80
 28 106 28 106 45 121 c 128,-1,81
 62 136 62 136 96 136 c 2,82,-1
 208 136 l 1,83,-1
 370 1051 l 1,0,-1
EndSplineSet
EndChar
StartChar: L
Encoding: 76 76 44
Width: 1228
Flags: W
LayerCount: 2
Back
Fore
SplineSet
420 1051 m 1,0,-1
 258 1051 l 2,1,2
 224 1051 224 1051 212 1066 c 128,-1,3
 200 1081 200 1081 207 1119 c 256,4,5
 214 1157 214 1157 231 1172 c 128,-1,6
 248 1187 248 1187 282 1187 c 2,7,-1
 836 1187 l 2,8,9
 870 1187 870 1187 882 1172 c 128,-1,10
 894 1157 894 1157 887 1119 c 256,11,12
 880 1081 880 1081 863 1066 c 128,-1,13
 846 1051 846 1051 812 1051 c 2,14,-1
 570 1051 l 1,15,-1
 408 136 l 1,16,-1
 903 136 l 1,17,-1
 961 465 l 2,18,19
 968 500 968 500 987 515 c 128,-1,20
 1006 530 1006 530 1048 530 c 256,21,22
 1090 530 1090 530 1104 515 c 128,-1,23
 1118 500 1118 500 1111 465 c 2,24,-1
 1041 68 l 2,25,26
 1035 30 1035 30 1018 15 c 128,-1,27
 1001 0 1001 0 967 0 c 2,28,-1
 73 0 l 2,29,30
 39 0 39 0 27 15 c 128,-1,31
 15 30 15 30 21 68 c 0,32,33
 28 106 28 106 45 121 c 128,-1,34
 62 136 62 136 96 136 c 2,35,-1
 258 136 l 1,36,-1
 420 1051 l 1,0,-1
EndSplineSet
EndChar
StartChar: M
Encoding: 77 77 45
Width: 1228
Flags: W
LayerCount: 2
Back
Fore
SplineSet
287 1051 m 1,0,-1
 238 1051 l 2,1,2
 204 1051 204 1051 192 1066 c 128,-1,3
 180 1081 180 1081 187 1119 c 256,4,5
 194 1157 194 1157 211 1172 c 128,-1,6
 228 1187 228 1187 262 1187 c 2,7,-1
 467 1187 l 2,8,9
 513 1187 513 1187 519 1154 c 2,10,-1
 634 545 l 1,11,-1
 962 1154 l 2,12,13
 979 1187 979 1187 1027 1187 c 2,14,-1
 1244 1187 l 2,15,16
 1278 1187 1278 1187 1290 1172 c 128,-1,17
 1302 1157 1302 1157 1295 1119 c 256,18,19
 1288 1081 1288 1081 1271 1066 c 128,-1,20
 1254 1051 1254 1051 1220 1051 c 2,21,-1
 1170 1051 l 1,22,-1
 1034 136 l 1,23,-1
 1088 136 l 2,24,25
 1122 136 1122 136 1134 121 c 128,-1,26
 1146 106 1146 106 1139 68 c 0,27,28
 1133 30 1133 30 1116 15 c 128,-1,29
 1099 0 1099 0 1065 0 c 2,30,-1
 751 0 l 2,31,32
 717 0 717 0 705 15 c 128,-1,33
 693 30 693 30 699 68 c 0,34,35
 706 106 706 106 723 121 c 128,-1,36
 740 136 740 136 774 136 c 2,37,-1
 885 136 l 1,38,-1
 1008 955 l 1,39,-1
 703 385 l 2,40,41
 684 350 684 350 659.5 335 c 128,-1,42
 635 320 635 320 600 320 c 256,43,44
 565 320 565 320 545.5 335 c 128,-1,45
 526 350 526 350 519 385 c 2,46,-1
 415 955 l 1,47,-1
 249 136 l 1,48,-1
 360 136 l 2,49,50
 394 136 394 136 406 121 c 128,-1,51
 418 106 418 106 411 68 c 0,52,53
 405 30 405 30 388 15 c 128,-1,54
 371 0 371 0 337 0 c 2,55,-1
 23 0 l 2,56,57
 -11 0 -11 0 -23 15 c 128,-1,58
 -35 30 -35 30 -29 68 c 0,59,60
 -22 106 -22 106 -5 121 c 128,-1,61
 12 136 12 136 46 136 c 2,62,-1
 100 136 l 1,63,-1
 287 1051 l 1,0,-1
EndSplineSet
EndChar
StartChar: N
Encoding: 78 78 46
Width: 1228
Flags: W
LayerCount: 2
Back
Fore
SplineSet
325 1051 m 1,0,-1
 248 1051 l 2,1,2
 214 1051 214 1051 202 1066 c 128,-1,3
 190 1081 190 1081 197 1119 c 256,4,5
 204 1157 204 1157 221 1172 c 128,-1,6
 238 1187 238 1187 272 1187 c 2,7,-1
 496 1187 l 2,8,9
 538 1187 538 1187 548 1159 c 2,10,-1
 870 298 l 1,11,-1
 1003 1051 l 1,12,-1
 886 1051 l 2,13,14
 852 1051 852 1051 840 1066 c 128,-1,15
 828 1081 828 1081 835 1119 c 256,16,17
 842 1157 842 1157 859 1172 c 128,-1,18
 876 1187 876 1187 910 1187 c 2,19,-1
 1234 1187 l 2,20,21
 1268 1187 1268 1187 1280 1172 c 128,-1,22
 1292 1157 1292 1157 1285 1119 c 256,23,24
 1278 1081 1278 1081 1261 1066 c 128,-1,25
 1244 1051 1244 1051 1210 1051 c 2,26,-1
 1153 1051 l 1,27,-1
 974 37 l 2,28,29
 969 11 969 11 948.5 -5.5 c 128,-1,30
 928 -22 928 -22 889 -22 c 0,31,32
 834 -22 834 -22 814 33 c 2,33,-1
 461 973 l 1,34,-1
 313 136 l 1,35,-1
 450 136 l 2,36,37
 484 136 484 136 496 121 c 128,-1,38
 508 106 508 106 501 68 c 0,39,40
 495 30 495 30 478 15 c 128,-1,41
 461 0 461 0 427 0 c 2,42,-1
 73 0 l 2,43,44
 39 0 39 0 27 15 c 128,-1,45
 15 30 15 30 21 68 c 0,46,47
 28 106 28 106 45 121 c 128,-1,48
 62 136 62 136 96 136 c 2,49,-1
 163 136 l 1,50,-1
 325 1051 l 1,0,-1
EndSplineSet
EndChar
StartChar: O
Encoding: 79 79 47
Width: 1228
Flags: W
LayerCount: 2
Back
Fore
SplineSet
1185 728 m 0,0,1
 1185 638 1185 638 1166.5 547 c 128,-1,2
 1148 456 1148 456 1112 373 c 128,-1,3
 1076 290 1076 290 1023 217.5 c 128,-1,4
 970 145 970 145 900 92 c 128,-1,5
 830 39 830 39 743.5 8.5 c 128,-1,6
 657 -22 657 -22 555 -22 c 256,7,8
 453 -22 453 -22 371 12 c 128,-1,9
 289 46 289 46 231 109 c 128,-1,10
 173 172 173 172 142 260.5 c 128,-1,11
 111 349 111 349 111 458 c 0,12,13
 111 548 111 548 129.5 639 c 128,-1,14
 148 730 148 730 184 813.5 c 128,-1,15
 220 897 220 897 273.5 969 c 128,-1,16
 327 1041 327 1041 397 1094.5 c 128,-1,17
 467 1148 467 1148 553.5 1178.5 c 128,-1,18
 640 1209 640 1209 742 1209 c 256,19,20
 844 1209 844 1209 926 1174.5 c 128,-1,21
 1008 1140 1008 1140 1065.5 1077 c 128,-1,22
 1123 1014 1123 1014 1154 925.5 c 128,-1,23
 1185 837 1185 837 1185 728 c 0,0,1
1028 722 m 0,24,25
 1028 801 1028 801 1008 864 c 128,-1,26
 988 927 988 927 949.5 970.5 c 128,-1,27
 911 1014 911 1014 856 1037.5 c 128,-1,28
 801 1061 801 1061 731 1061 c 0,29,30
 655 1061 655 1061 591.5 1036 c 128,-1,31
 528 1011 528 1011 476.5 967.5 c 128,-1,32
 425 924 425 924 386 865.5 c 128,-1,33
 347 807 347 807 321 741 c 128,-1,34
 295 675 295 675 281.5 604 c 128,-1,35
 268 533 268 533 268 465 c 0,36,37
 268 385 268 385 288.5 322.5 c 128,-1,38
 309 260 309 260 347 216 c 128,-1,39
 385 172 385 172 440.5 149 c 128,-1,40
 496 126 496 126 566 126 c 0,41,42
 641 126 641 126 705 151 c 128,-1,43
 769 176 769 176 820 219.5 c 128,-1,44
 871 263 871 263 910 321.5 c 128,-1,45
 949 380 949 380 975.5 446 c 128,-1,46
 1002 512 1002 512 1015 583 c 128,-1,47
 1028 654 1028 654 1028 722 c 0,24,25
EndSplineSet
EndChar
StartChar: P
Encoding: 80 80 48
Width: 1228
Flags: W
LayerCount: 2
Back
Fore
SplineSet
420 1051 m 1,0,-1
 258 1051 l 2,1,2
 224 1051 224 1051 212 1066 c 128,-1,3
 200 1081 200 1081 207 1119 c 256,4,5
 214 1157 214 1157 231 1172 c 128,-1,6
 248 1187 248 1187 282 1187 c 2,7,-1
 819 1187 l 2,8,9
 908 1187 908 1187 977 1164.5 c 128,-1,10
 1046 1142 1046 1142 1093 1100.5 c 128,-1,11
 1140 1059 1140 1059 1164.5 1001.5 c 128,-1,12
 1189 944 1189 944 1189 875 c 0,13,14
 1189 796 1189 796 1162 717 c 128,-1,15
 1135 638 1135 638 1077 575 c 128,-1,16
 1019 512 1019 512 927.5 472.5 c 128,-1,17
 836 433 836 433 706 433 c 2,18,-1
 461 433 l 1,19,-1
 408 136 l 1,20,-1
 648 136 l 2,21,22
 682 136 682 136 694 121 c 128,-1,23
 706 106 706 106 699 68 c 0,24,25
 693 30 693 30 676 15 c 128,-1,26
 659 0 659 0 625 0 c 2,27,-1
 73 0 l 2,28,29
 39 0 39 0 27 15 c 128,-1,30
 15 30 15 30 21 68 c 0,31,32
 28 106 28 106 45 121 c 128,-1,33
 62 136 62 136 96 136 c 2,34,-1
 258 136 l 1,35,-1
 420 1051 l 1,0,-1
699 569 m 2,36,37
 789 569 789 569 852 594.5 c 128,-1,38
 915 620 915 620 955 661.5 c 128,-1,39
 995 703 995 703 1013 755 c 128,-1,40
 1031 807 1031 807 1031 861 c 0,41,42
 1031 951 1031 951 969.5 1001 c 128,-1,43
 908 1051 908 1051 784 1051 c 2,44,-1
 570 1051 l 1,45,-1
 485 569 l 1,46,-1
 699 569 l 2,36,37
EndSplineSet
EndChar
StartChar: Q
Encoding: 81 81 49
Width: 1228
Flags: W
LayerCount: 2
Back
Fore
SplineSet
1189 746 m 0,0,1
 1189 663 1189 663 1172 577.5 c 128,-1,2
 1155 492 1155 492 1120 412 c 128,-1,3
 1085 332 1085 332 1033.5 262 c 128,-1,4
 982 192 982 192 912 140 c 128,-1,5
 842 88 842 88 755 58 c 128,-1,6
 668 28 668 28 563 28 c 0,7,8
 549 28 549 28 535.5 28.5 c 128,-1,9
 522 29 522 29 508 30 c 1,10,-1
 360 -100 l 1,11,12
 404 -85 404 -85 440.5 -79 c 128,-1,13
 477 -73 477 -73 509 -73 c 0,14,15
 543 -73 543 -73 573 -78 c 128,-1,16
 603 -83 603 -83 631 -89 c 128,-1,17
 659 -95 659 -95 686 -100 c 128,-1,18
 713 -105 713 -105 742 -105 c 0,19,20
 780 -105 780 -105 821.5 -93 c 128,-1,21
 863 -81 863 -81 914 -48 c 0,22,23
 933 -36 933 -36 953 -48.5 c 128,-1,24
 973 -61 973 -61 986 -84 c 256,25,26
 999 -107 999 -107 999 -134.5 c 128,-1,27
 999 -162 999 -162 973 -179 c 0,28,29
 903 -226 903 -226 848.5 -242.5 c 128,-1,30
 794 -259 794 -259 746 -259 c 0,31,32
 711 -259 711 -259 678.5 -253 c 128,-1,33
 646 -247 646 -247 612 -239.5 c 128,-1,34
 578 -232 578 -232 541 -226 c 128,-1,35
 504 -220 504 -220 461 -220 c 0,36,37
 413 -220 413 -220 356.5 -230.5 c 128,-1,38
 300 -241 300 -241 229 -269 c 0,39,40
 208 -277 208 -277 188 -266.5 c 128,-1,41
 168 -256 168 -256 151 -233 c 0,42,43
 133 -208 133 -208 128.5 -183 c 128,-1,44
 124 -158 124 -158 141 -142 c 2,45,-1
 362 67 l 1,46,47
 245 118 245 118 180.5 227.5 c 128,-1,48
 116 337 116 337 116 492 c 0,49,50
 116 575 116 575 133 660.5 c 128,-1,51
 150 746 150 746 185 826 c 128,-1,52
 220 906 220 906 271.5 975.5 c 128,-1,53
 323 1045 323 1045 393 1097 c 128,-1,54
 463 1149 463 1149 550 1179 c 128,-1,55
 637 1209 637 1209 742 1209 c 0,56,57
 844 1209 844 1209 927 1176.5 c 128,-1,58
 1010 1144 1010 1144 1068 1083.5 c 128,-1,59
 1126 1023 1126 1023 1157.5 937.5 c 128,-1,60
 1189 852 1189 852 1189 746 c 0,0,1
1031 737 m 0,61,62
 1031 892 1031 892 952 976.5 c 128,-1,63
 873 1061 873 1061 731 1061 c 0,64,65
 654 1061 654 1061 590.5 1037.5 c 128,-1,66
 527 1014 527 1014 476 973 c 128,-1,67
 425 932 425 932 387 877 c 128,-1,68
 349 822 349 822 323.5 760 c 128,-1,69
 298 698 298 698 285.5 631 c 128,-1,70
 273 564 273 564 273 500 c 0,71,72
 273 423 273 423 293.5 362.5 c 128,-1,73
 314 302 314 302 353 260.5 c 128,-1,74
 392 219 392 219 448 197.5 c 128,-1,75
 504 176 504 176 575 176 c 0,76,77
 651 176 651 176 715 199.5 c 128,-1,78
 779 223 779 223 829.5 264 c 128,-1,79
 880 305 880 305 918 360 c 128,-1,80
 956 415 956 415 981 477 c 128,-1,81
 1006 539 1006 539 1018.5 605.5 c 128,-1,82
 1031 672 1031 672 1031 737 c 0,61,62
EndSplineSet
EndChar
StartChar: R
Encoding: 82 82 50
Width: 1228
Flags: W
LayerCount: 2
Back
Fore
SplineSet
530 1051 m 1,0,-1
 459 651 l 1,1,-1
 662 651 l 2,2,3
 756 651 756 651 816 673.5 c 128,-1,4
 876 696 876 696 910.5 731 c 128,-1,5
 945 766 945 766 958 808.5 c 128,-1,6
 971 851 971 851 971 891 c 0,7,8
 971 969 971 969 912.5 1010 c 128,-1,9
 854 1051 854 1051 743 1051 c 2,10,-1
 530 1051 l 1,0,-1
788 546 m 1,11,12
 813 534 813 534 834 514 c 128,-1,13
 855 494 855 494 871 470 c 0,14,15
 888 443 888 443 902 412 c 128,-1,16
 916 381 916 381 928 349.5 c 128,-1,17
 940 318 940 318 950.5 287.5 c 128,-1,18
 961 257 961 257 972 230 c 0,19,20
 988 188 988 188 1007.5 162 c 128,-1,21
 1027 136 1027 136 1056 136 c 2,22,-1
 1078 136 l 2,23,24
 1112 136 1112 136 1124 121 c 128,-1,25
 1136 106 1136 106 1129 68 c 0,26,27
 1123 30 1123 30 1106 15 c 128,-1,28
 1089 0 1089 0 1055 0 c 2,29,-1
 996 0 l 2,30,31
 953 0 953 0 913 33 c 128,-1,32
 873 66 873 66 843 146 c 0,33,34
 831 179 831 179 819.5 213 c 128,-1,35
 808 247 808 247 796 280 c 128,-1,36
 784 313 784 313 770.5 343.5 c 128,-1,37
 757 374 757 374 740 401 c 0,38,39
 720 434 720 434 696 456 c 128,-1,40
 672 478 672 478 643 491 c 128,-1,41
 614 504 614 504 578 509.5 c 128,-1,42
 542 515 542 515 497 515 c 2,43,-1
 435 515 l 1,44,-1
 368 136 l 1,45,-1
 498 136 l 2,46,47
 532 136 532 136 544 121 c 128,-1,48
 556 106 556 106 549 68 c 0,49,50
 543 30 543 30 526 15 c 128,-1,51
 509 0 509 0 475 0 c 2,52,-1
 73 0 l 2,53,54
 39 0 39 0 27 15 c 128,-1,55
 15 30 15 30 21 68 c 0,56,57
 28 106 28 106 45 121 c 128,-1,58
 62 136 62 136 96 136 c 2,59,-1
 218 136 l 1,60,-1
 380 1051 l 1,61,-1
 258 1051 l 2,62,63
 224 1051 224 1051 212 1066 c 128,-1,64
 200 1081 200 1081 207 1119 c 256,65,66
 214 1157 214 1157 231 1172 c 128,-1,67
 248 1187 248 1187 282 1187 c 2,68,-1
 778 1187 l 2,69,70
 863 1187 863 1187 928.5 1166.5 c 128,-1,71
 994 1146 994 1146 1038.5 1109 c 128,-1,72
 1083 1072 1083 1072 1106 1020 c 128,-1,73
 1129 968 1129 968 1129 906 c 0,74,75
 1129 832 1129 832 1103.5 772.5 c 128,-1,76
 1078 713 1078 713 1032.5 667.5 c 128,-1,77
 987 622 987 622 924.5 591.5 c 128,-1,78
 862 561 862 561 788 546 c 1,11,12
EndSplineSet
EndChar
StartChar: S
Encoding: 83 83 51
Width: 1228
Flags: W
LayerCount: 2
Back
Fore
SplineSet
248 821 m 0,0,1
 248 885 248 885 273 953.5 c 128,-1,2
 298 1022 298 1022 351.5 1079 c 128,-1,3
 405 1136 405 1136 489.5 1172.5 c 128,-1,4
 574 1209 574 1209 694 1209 c 0,5,6
 740 1209 740 1209 783 1199 c 128,-1,7
 826 1189 826 1189 863.5 1171.5 c 128,-1,8
 901 1154 901 1154 932.5 1130 c 128,-1,9
 964 1106 964 1106 987 1078 c 1,10,-1
 999 1144 l 2,11,12
 1005 1179 1005 1179 1024.5 1194 c 128,-1,13
 1044 1209 1044 1209 1086 1209 c 256,14,15
 1128 1209 1128 1209 1141.5 1194 c 128,-1,16
 1155 1179 1155 1179 1149 1144 c 2,17,-1
 1109 914 l 2,18,19
 1103 879 1103 879 1083.5 864 c 128,-1,20
 1064 849 1064 849 1022 849 c 0,21,22
 985 849 985 849 975 875 c 0,23,24
 942 968 942 968 863.5 1014.5 c 128,-1,25
 785 1061 785 1061 675 1061 c 0,26,27
 605 1061 605 1061 554.5 1041 c 128,-1,28
 504 1021 504 1021 471.5 990.5 c 128,-1,29
 439 960 439 960 423.5 922.5 c 128,-1,30
 408 885 408 885 408 849 c 0,31,32
 408 807 408 807 435 782 c 128,-1,33
 462 757 462 757 507 740 c 0,34,35
 548 724 548 724 600 713 c 128,-1,36
 652 702 652 702 707.5 689.5 c 128,-1,37
 763 677 763 677 817.5 661 c 128,-1,38
 872 645 872 645 919 620 c 0,39,40
 949 603 949 603 974.5 582 c 128,-1,41
 1000 561 1000 561 1018.5 533.5 c 128,-1,42
 1037 506 1037 506 1047 471 c 128,-1,43
 1057 436 1057 436 1057 392 c 0,44,45
 1057 346 1057 346 1046.5 297 c 128,-1,46
 1036 248 1036 248 1012.5 202 c 128,-1,47
 989 156 989 156 952 115.5 c 128,-1,48
 915 75 915 75 861.5 44.5 c 128,-1,49
 808 14 808 14 737 -4 c 128,-1,50
 666 -22 666 -22 575 -22 c 0,51,52
 472 -22 472 -22 391.5 16.5 c 128,-1,53
 311 55 311 55 260 126 c 1,54,-1
 245 43 l 2,55,56
 239 8 239 8 220 -7 c 128,-1,57
 201 -22 201 -22 159 -22 c 256,58,59
 117 -22 117 -22 103 -7 c 128,-1,60
 89 8 89 8 95 43 c 2,61,-1
 148 343 l 2,62,63
 154 378 154 378 173 393 c 128,-1,64
 192 408 192 408 234 408 c 0,65,66
 277 408 277 408 285 366 c 0,67,68
 305 250 305 250 383.5 188 c 128,-1,69
 462 126 462 126 594 126 c 0,70,71
 670 126 670 126 726.5 145.5 c 128,-1,72
 783 165 783 165 821 197.5 c 128,-1,73
 859 230 859 230 878 272.5 c 128,-1,74
 897 315 897 315 897 361 c 0,75,76
 897 409 897 409 872 440 c 128,-1,77
 847 471 847 471 805 492 c 0,78,79
 765 512 765 512 714 525 c 128,-1,80
 663 538 663 538 608.5 550 c 128,-1,81
 554 562 554 562 499 576 c 128,-1,82
 444 590 444 590 397 611 c 0,83,84
 365 626 365 626 337.5 645 c 128,-1,85
 310 664 310 664 290 689 c 128,-1,86
 270 714 270 714 259 746.5 c 128,-1,87
 248 779 248 779 248 821 c 0,0,1
EndSplineSet
EndChar
StartChar: T
Encoding: 84 84 52
Width: 1228
Flags: W
LayerCount: 2
Back
Fore
SplineSet
654 1051 m 1,0,-1
 387 1051 l 1,1,-1
 332 742 l 2,2,3
 326 707 326 707 307 692 c 128,-1,4
 288 677 288 677 246 677 c 256,5,6
 204 677 204 677 190 692 c 128,-1,7
 176 707 176 707 182 742 c 2,8,-1
 249 1119 l 2,9,10
 256 1157 256 1157 273 1172 c 128,-1,11
 290 1187 290 1187 324 1187 c 2,12,-1
 1182 1187 l 2,13,14
 1216 1187 1216 1187 1228 1172 c 128,-1,15
 1240 1157 1240 1157 1233 1119 c 2,16,-1
 1166 742 l 2,17,18
 1160 707 1160 707 1141 692 c 128,-1,19
 1122 677 1122 677 1080 677 c 256,20,21
 1038 677 1038 677 1024 692 c 128,-1,22
 1010 707 1010 707 1016 742 c 2,23,-1
 1071 1051 l 1,24,-1
 804 1051 l 1,25,-1
 642 136 l 1,26,-1
 888 136 l 2,27,28
 922 136 922 136 934 121 c 128,-1,29
 946 106 946 106 939 68 c 0,30,31
 933 30 933 30 916 15 c 128,-1,32
 899 0 899 0 865 0 c 2,33,-1
 243 0 l 2,34,35
 209 0 209 0 197 15 c 128,-1,36
 185 30 185 30 191 68 c 0,37,38
 198 106 198 106 215 121 c 128,-1,39
 232 136 232 136 266 136 c 2,40,-1
 492 136 l 1,41,-1
 654 1051 l 1,0,-1
EndSplineSet
EndChar
StartChar: U
Encoding: 85 85 53
Width: 1228
Flags: W
LayerCount: 2
Back
Fore
SplineSet
248 1051 m 2,0,1
 214 1051 214 1051 202 1066 c 128,-1,2
 190 1081 190 1081 197 1119 c 256,3,4
 204 1157 204 1157 221 1172 c 128,-1,5
 238 1187 238 1187 272 1187 c 2,6,-1
 596 1187 l 2,7,8
 630 1187 630 1187 642 1172 c 128,-1,9
 654 1157 654 1157 647 1119 c 256,10,11
 640 1081 640 1081 623 1066 c 128,-1,12
 606 1051 606 1051 572 1051 c 2,13,-1
 460 1051 l 1,14,-1
 347 413 l 2,15,16
 338 362 338 362 338 321 c 0,17,18
 338 216 338 216 395 171 c 128,-1,19
 452 126 452 126 566 126 c 0,20,21
 634 126 634 126 687.5 141.5 c 128,-1,22
 741 157 741 157 780.5 191.5 c 128,-1,23
 820 226 820 226 845.5 280.5 c 128,-1,24
 871 335 871 335 885 413 c 2,25,-1
 998 1051 l 1,26,-1
 886 1051 l 2,27,28
 852 1051 852 1051 840 1066 c 128,-1,29
 828 1081 828 1081 835 1119 c 256,30,31
 842 1157 842 1157 859 1172 c 128,-1,32
 876 1187 876 1187 910 1187 c 2,33,-1
 1234 1187 l 2,34,35
 1268 1187 1268 1187 1280 1172 c 128,-1,36
 1292 1157 1292 1157 1285 1119 c 256,37,38
 1278 1081 1278 1081 1261 1066 c 128,-1,39
 1244 1051 1244 1051 1210 1051 c 2,40,-1
 1148 1051 l 1,41,-1
 1030 383 l 2,42,43
 1011 276 1011 276 971 199.5 c 128,-1,44
 931 123 931 123 871 73.5 c 128,-1,45
 811 24 811 24 731.5 1 c 128,-1,46
 652 -22 652 -22 555 -22 c 0,47,48
 470 -22 470 -22 402 -2 c 128,-1,49
 334 18 334 18 286 58 c 128,-1,50
 238 98 238 98 212 158 c 128,-1,51
 186 218 186 218 186 299 c 0,52,53
 186 323 186 323 188.5 349 c 128,-1,54
 191 375 191 375 196 403 c 2,55,-1
 310 1051 l 1,56,-1
 248 1051 l 2,0,1
EndSplineSet
EndChar
StartChar: V
Encoding: 86 86 54
Width: 1228
Flags: W
LayerCount: 2
Back
Fore
SplineSet
188 1051 m 2,0,1
 154 1051 154 1051 142 1066 c 128,-1,2
 130 1081 130 1081 137 1119 c 256,3,4
 144 1157 144 1157 161 1172 c 128,-1,5
 178 1187 178 1187 212 1187 c 2,6,-1
 586 1187 l 2,7,8
 620 1187 620 1187 632 1172 c 128,-1,9
 644 1157 644 1157 637 1119 c 256,10,11
 630 1081 630 1081 613 1066 c 128,-1,12
 596 1051 596 1051 562 1051 c 2,13,-1
 418 1051 l 1,14,-1
 568 167 l 1,15,-1
 1033 1051 l 1,16,-1
 936 1051 l 2,17,18
 902 1051 902 1051 890 1066 c 128,-1,19
 878 1081 878 1081 885 1119 c 256,20,21
 892 1157 892 1157 909 1172 c 128,-1,22
 926 1187 926 1187 960 1187 c 2,23,-1
 1294 1187 l 2,24,25
 1328 1187 1328 1187 1340 1172 c 128,-1,26
 1352 1157 1352 1157 1345 1119 c 256,27,28
 1338 1081 1338 1081 1321 1066 c 128,-1,29
 1304 1051 1304 1051 1270 1051 c 2,30,-1
 1196 1051 l 1,31,-1
 659 43 l 2,32,33
 640 8 640 8 611.5 -7 c 128,-1,34
 583 -22 583 -22 540 -22 c 256,35,36
 497 -22 497 -22 474 -7 c 128,-1,37
 451 8 451 8 445 43 c 2,38,-1
 267 1051 l 1,39,-1
 188 1051 l 2,0,1
EndSplineSet
EndChar
StartChar: W
Encoding: 87 87 55
Width: 1228
Flags: W
LayerCount: 2
Back
Fore
SplineSet
168 1051 m 2,0,1
 134 1051 134 1051 122 1066 c 128,-1,2
 110 1081 110 1081 117 1119 c 256,3,4
 124 1157 124 1157 141 1172 c 128,-1,5
 158 1187 158 1187 192 1187 c 2,6,-1
 536 1187 l 2,7,8
 570 1187 570 1187 582 1172 c 128,-1,9
 594 1157 594 1157 587 1119 c 256,10,11
 580 1081 580 1081 563 1066 c 128,-1,12
 546 1051 546 1051 512 1051 c 2,13,-1
 366 1051 l 1,14,-1
 325 254 l 1,15,-1
 614 838 l 2,16,17
 624 858 624 858 643.5 871.5 c 128,-1,18
 663 885 663 885 695 885 c 0,19,20
 728 885 728 885 742.5 875 c 128,-1,21
 757 865 757 865 760 845 c 2,22,-1
 844 247 l 1,23,-1
 1090 1051 l 1,24,-1
 966 1051 l 2,25,26
 932 1051 932 1051 920 1066 c 128,-1,27
 908 1081 908 1081 915 1119 c 256,28,29
 922 1157 922 1157 939 1172 c 128,-1,30
 956 1187 956 1187 990 1187 c 2,31,-1
 1314 1187 l 2,32,33
 1348 1187 1348 1187 1360 1172 c 128,-1,34
 1372 1157 1372 1157 1365 1119 c 256,35,36
 1358 1081 1358 1081 1341 1066 c 128,-1,37
 1324 1051 1324 1051 1290 1051 c 2,38,-1
 1240 1051 l 1,39,-1
 924 43 l 2,40,41
 912 6 912 6 888.5 -8 c 128,-1,42
 865 -22 865 -22 827 -22 c 256,43,44
 789 -22 789 -22 765 -7 c 128,-1,45
 741 8 741 8 736 43 c 2,46,-1
 654 624 l 1,47,-1
 364 43 l 2,48,49
 347 8 347 8 317 -7 c 128,-1,50
 287 -22 287 -22 249 -22 c 256,51,52
 211 -22 211 -22 192.5 -7.5 c 128,-1,53
 174 7 174 7 176 43 c 2,54,-1
 221 1051 l 1,55,-1
 168 1051 l 2,0,1
EndSplineSet
EndChar
StartChar: X
Encoding: 88 88 56
Width: 1228
Flags: W
LayerCount: 2
Back
Fore
SplineSet
258 1051 m 2,0,1
 224 1051 224 1051 212 1066 c 128,-1,2
 200 1081 200 1081 207 1119 c 256,3,4
 214 1157 214 1157 231 1172 c 128,-1,5
 248 1187 248 1187 282 1187 c 2,6,-1
 626 1187 l 2,7,8
 660 1187 660 1187 672 1172 c 128,-1,9
 684 1157 684 1157 677 1119 c 256,10,11
 670 1081 670 1081 653 1066 c 128,-1,12
 636 1051 636 1051 602 1051 c 2,13,-1
 505 1051 l 1,14,-1
 671 735 l 1,15,-1
 948 1051 l 1,16,-1
 896 1051 l 2,17,18
 862 1051 862 1051 850 1066 c 128,-1,19
 838 1081 838 1081 845 1119 c 256,20,21
 852 1157 852 1157 869 1172 c 128,-1,22
 886 1187 886 1187 920 1187 c 2,23,-1
 1224 1187 l 2,24,25
 1258 1187 1258 1187 1270 1172 c 128,-1,26
 1282 1157 1282 1157 1275 1119 c 256,27,28
 1268 1081 1268 1081 1251 1066 c 128,-1,29
 1234 1051 1234 1051 1200 1051 c 2,30,-1
 1143 1051 l 1,31,-1
 747 607 l 1,32,-1
 1002 136 l 1,33,-1
 1068 136 l 2,34,35
 1102 136 1102 136 1114 121 c 128,-1,36
 1126 106 1126 106 1119 68 c 0,37,38
 1113 30 1113 30 1096 15 c 128,-1,39
 1079 0 1079 0 1045 0 c 2,40,-1
 691 0 l 2,41,42
 657 0 657 0 645 15 c 128,-1,43
 633 30 633 30 639 68 c 0,44,45
 646 106 646 106 663 121 c 128,-1,46
 680 136 680 136 714 136 c 2,47,-1
 831 136 l 1,48,-1
 640 501 l 1,49,-1
 315 136 l 1,50,-1
 390 136 l 2,51,52
 424 136 424 136 436 121 c 128,-1,53
 448 106 448 106 441 68 c 0,54,55
 435 30 435 30 418 15 c 128,-1,56
 401 0 401 0 367 0 c 2,57,-1
 43 0 l 2,58,59
 9 0 9 0 -3 15 c 128,-1,60
 -15 30 -15 30 -9 68 c 0,61,62
 -2 106 -2 106 15 121 c 128,-1,63
 32 136 32 136 66 136 c 2,64,-1
 120 136 l 1,65,-1
 564 629 l 1,66,-1
 335 1051 l 1,67,-1
 258 1051 l 2,0,1
EndSplineSet
EndChar
StartChar: Y
Encoding: 89 89 57
Width: 1228
Flags: W
LayerCount: 2
Back
Fore
SplineSet
556 499 m 1,0,-1
 312 1051 l 1,1,-1
 238 1051 l 2,2,3
 204 1051 204 1051 192 1066 c 128,-1,4
 180 1081 180 1081 187 1119 c 256,5,6
 194 1157 194 1157 211 1172 c 128,-1,7
 228 1187 228 1187 262 1187 c 2,8,-1
 596 1187 l 2,9,10
 630 1187 630 1187 642 1172 c 128,-1,11
 654 1157 654 1157 647 1119 c 256,12,13
 640 1081 640 1081 623 1066 c 128,-1,14
 606 1051 606 1051 572 1051 c 2,15,-1
 475 1051 l 1,16,-1
 653 642 l 1,17,-1
 977 1051 l 1,18,-1
 916 1051 l 2,19,20
 882 1051 882 1051 870 1066 c 128,-1,21
 858 1081 858 1081 865 1119 c 256,22,23
 872 1157 872 1157 889 1172 c 128,-1,24
 906 1187 906 1187 940 1187 c 2,25,-1
 1244 1187 l 2,26,27
 1278 1187 1278 1187 1290 1172 c 128,-1,28
 1302 1157 1302 1157 1295 1119 c 256,29,30
 1288 1081 1288 1081 1271 1066 c 128,-1,31
 1254 1051 1254 1051 1220 1051 c 2,32,-1
 1156 1051 l 1,33,-1
 704 486 l 1,34,-1
 642 136 l 1,35,-1
 878 136 l 2,36,37
 912 136 912 136 924 121 c 128,-1,38
 936 106 936 106 929 68 c 0,39,40
 923 30 923 30 906 15 c 128,-1,41
 889 0 889 0 855 0 c 2,42,-1
 253 0 l 2,43,44
 219 0 219 0 207 15 c 128,-1,45
 195 30 195 30 201 68 c 0,46,47
 208 106 208 106 225 121 c 128,-1,48
 242 136 242 136 276 136 c 2,49,-1
 492 136 l 1,50,-1
 556 499 l 1,0,-1
EndSplineSet
EndChar
StartChar: Z
Encoding: 90 90 58
Width: 1228
Flags: W
LayerCount: 2
Back
Fore
SplineSet
872 136 m 1,0,-1
 920 405 l 2,1,2
 926 440 926 440 945 455 c 128,-1,3
 964 470 964 470 1006 470 c 256,4,5
 1048 470 1048 470 1062 455 c 128,-1,6
 1076 440 1076 440 1070 405 c 2,7,-1
 1010 68 l 2,8,9
 1004 30 1004 30 987 15 c 128,-1,10
 970 0 970 0 936 0 c 2,11,-1
 170 0 l 2,12,13
 136 0 136 0 124 15 c 128,-1,14
 112 30 112 30 118 68 c 0,15,16
 121 82 121 82 126.5 92 c 128,-1,17
 132 102 132 102 140 111 c 2,18,-1
 935 1051 l 1,19,-1
 443 1051 l 1,20,-1
 399 802 l 2,21,22
 393 767 393 767 373.5 752 c 128,-1,23
 354 737 354 737 312 737 c 256,24,25
 270 737 270 737 256.5 752 c 128,-1,26
 243 767 243 767 249 802 c 2,27,-1
 305 1119 l 2,28,29
 312 1157 312 1157 329 1172 c 128,-1,30
 346 1187 346 1187 380 1187 c 2,31,-1
 1116 1187 l 2,32,33
 1150 1187 1150 1187 1162 1172 c 128,-1,34
 1174 1157 1174 1157 1167 1119 c 0,35,36
 1162 1094 1162 1094 1150 1080 c 2,37,-1
 350 136 l 1,38,-1
 872 136 l 1,0,-1
EndSplineSet
EndChar
StartChar: bracketleft
Encoding: 91 91 59
Width: 1228
Flags: W
LayerCount: 2
Back
Fore
SplineSet
691 -257 m 2,0,1
 725 -257 725 -257 737 -272 c 128,-1,2
 749 -287 749 -287 742 -325 c 256,3,4
 735 -363 735 -363 718 -378 c 128,-1,5
 701 -393 701 -393 667 -393 c 2,6,-1
 253 -393 l 2,7,8
 219 -393 219 -393 207 -378 c 128,-1,9
 195 -363 195 -363 202 -325 c 2,10,-1
 479 1244 l 2,11,12
 486 1282 486 1282 503 1297 c 128,-1,13
 520 1312 520 1312 554 1312 c 2,14,-1
 968 1312 l 2,15,16
 1002 1312 1002 1312 1014 1297 c 128,-1,17
 1026 1282 1026 1282 1019 1244 c 256,18,19
 1012 1206 1012 1206 995 1191 c 128,-1,20
 978 1176 978 1176 944 1176 c 2,21,-1
 617 1176 l 1,22,-1
 364 -257 l 1,23,-1
 691 -257 l 2,0,1
EndSplineSet
EndChar
StartChar: backslash
Encoding: 92 92 60
Width: 1228
Flags: W
LayerCount: 2
Back
Fore
SplineSet
360 1271 m 2,0,1
 356 1286 356 1286 362.5 1297.5 c 128,-1,2
 369 1309 369 1309 381.5 1317.5 c 128,-1,3
 394 1326 394 1326 410.5 1330.5 c 128,-1,4
 427 1335 427 1335 444 1335 c 0,5,6
 464 1335 464 1335 479.5 1328 c 128,-1,7
 495 1321 495 1321 500 1305 c 2,8,-1
 910 -233 l 2,9,10
 914 -248 914 -248 907.5 -259.5 c 128,-1,11
 901 -271 901 -271 888 -279.5 c 128,-1,12
 875 -288 875 -288 858 -292.5 c 128,-1,13
 841 -297 841 -297 825 -297 c 0,14,15
 805 -297 805 -297 790 -290 c 128,-1,16
 775 -283 775 -283 770 -267 c 2,17,-1
 360 1271 l 2,0,1
EndSplineSet
EndChar
StartChar: bracketright
Encoding: 93 93 61
Width: 1228
Flags: W
LayerCount: 2
Back
Fore
SplineSet
885 1176 m 1,0,-1
 558 1176 l 2,1,2
 524 1176 524 1176 512 1191 c 128,-1,3
 500 1206 500 1206 507 1244 c 256,4,5
 514 1282 514 1282 531 1297 c 128,-1,6
 548 1312 548 1312 582 1312 c 2,7,-1
 996 1312 l 2,8,9
 1030 1312 1030 1312 1042 1297 c 128,-1,10
 1054 1282 1054 1282 1047 1244 c 2,11,-1
 770 -325 l 2,12,13
 763 -363 763 -363 746 -378 c 128,-1,14
 729 -393 729 -393 695 -393 c 2,15,-1
 281 -393 l 2,16,17
 247 -393 247 -393 235 -378 c 128,-1,18
 223 -363 223 -363 230 -325 c 256,19,20
 237 -287 237 -287 254 -272 c 128,-1,21
 271 -257 271 -257 305 -257 c 2,22,-1
 632 -257 l 1,23,-1
 885 1176 l 1,0,-1
EndSplineSet
EndChar
StartChar: asciicircum
Encoding: 94 94 62
Width: 1228
Flags: W
LayerCount: 2
Back
Fore
SplineSet
408 527 m 2,0,1
 402 517 402 517 391 511.5 c 128,-1,2
 380 506 380 506 366.5 503.5 c 128,-1,3
 353 501 353 501 338.5 502 c 128,-1,4
 324 503 324 503 311 507 c 0,5,6
 297 511 297 511 285 518 c 128,-1,7
 273 525 273 525 266.5 534.5 c 128,-1,8
 260 544 260 544 260.5 555.5 c 128,-1,9
 261 567 261 567 270 581 c 2,10,-1
 682 1172 l 2,11,12
 695 1190 695 1190 711.5 1199.5 c 128,-1,13
 728 1209 728 1209 757 1209 c 256,14,15
 786 1209 786 1209 798.5 1199.5 c 128,-1,16
 811 1190 811 1190 818 1172 c 2,17,-1
 1022 581 l 2,18,19
 1031 556 1031 556 1014 537.5 c 128,-1,20
 997 519 997 519 971 510 c 0,21,22
 943 500 943 500 916 503.5 c 128,-1,23
 889 507 889 507 882 527 c 2,24,-1
 728 1007 l 1,25,-1
 408 527 l 2,0,1
EndSplineSet
EndChar
StartChar: underscore
Encoding: 95 95 63
Width: 1228
Flags: W
LayerCount: 2
Back
Fore
SplineSet
-44 -393 m 2,0,1
 -50 -393 -50 -393 -53.5 -391 c 128,-1,2
 -57 -389 -57 -389 -58.5 -381.5 c 128,-1,3
 -60 -374 -60 -374 -59.5 -361 c 128,-1,4
 -59 -348 -59 -348 -55 -325 c 0,5,6
 -47 -280 -47 -280 -39 -268.5 c 128,-1,7
 -31 -257 -31 -257 -20 -257 c 2,8,-1
 1217 -257 l 2,9,10
 1223 -257 1223 -257 1227 -259 c 128,-1,11
 1231 -261 1231 -261 1232.5 -268.5 c 128,-1,12
 1234 -276 1234 -276 1233 -289.5 c 128,-1,13
 1232 -303 1232 -303 1228 -325 c 0,14,15
 1224 -348 1224 -348 1220.5 -361 c 128,-1,16
 1217 -374 1217 -374 1212.5 -381.5 c 128,-1,17
 1208 -389 1208 -389 1203.5 -391 c 128,-1,18
 1199 -393 1199 -393 1193 -393 c 2,19,-1
 -44 -393 l 2,0,1
EndSplineSet
EndChar
StartChar: grave
Encoding: 96 96 64
Width: 1228
Flags: W
LayerCount: 2
Back
Fore
SplineSet
942 1133 m 2,0,1
 959 1123 959 1123 963.5 1105.5 c 128,-1,2
 968 1088 968 1088 961 1071 c 256,3,4
 954 1054 954 1054 939.5 1043.5 c 128,-1,5
 925 1033 925 1033 906 1039 c 2,6,-1
 425 1202 l 2,7,8
 415 1205 415 1205 408 1212.5 c 128,-1,9
 401 1220 401 1220 400 1232.5 c 128,-1,10
 399 1245 399 1245 404.5 1263.5 c 128,-1,11
 410 1282 410 1282 425 1309 c 0,12,13
 441 1337 441 1337 454 1351.5 c 128,-1,14
 467 1366 467 1366 478.5 1371 c 128,-1,15
 490 1376 490 1376 501.5 1373 c 128,-1,16
 513 1370 513 1370 526 1363 c 2,17,-1
 942 1133 l 2,0,1
EndSplineSet
EndChar
StartChar: a
Encoding: 97 97 65
Width: 1228
Flags: W
LayerCount: 2
Back
Fore
SplineSet
485 -22 m 0,0,1
 404 -22 404 -22 337 5 c 128,-1,2
 270 32 270 32 222 82.5 c 128,-1,3
 174 133 174 133 147.5 204.5 c 128,-1,4
 121 276 121 276 121 366 c 0,5,6
 121 431 121 431 134.5 499 c 128,-1,7
 148 567 148 567 176 631.5 c 128,-1,8
 204 696 204 696 246 753 c 128,-1,9
 288 810 288 810 345 853 c 128,-1,10
 402 896 402 896 474.5 921 c 128,-1,11
 547 946 547 946 635 946 c 0,12,13
 686 946 686 946 731.5 933 c 128,-1,14
 777 920 777 920 815.5 896 c 128,-1,15
 854 872 854 872 885 839 c 128,-1,16
 916 806 916 806 940 766 c 1,17,-1
 959 869 l 2,18,19
 965 904 965 904 981.5 919 c 128,-1,20
 998 934 998 934 1040 934 c 256,21,22
 1082 934 1082 934 1093.5 919 c 128,-1,23
 1105 904 1105 904 1099 869 c 2,24,-1
 981 201 l 2,25,26
 976 170 976 170 986.5 153 c 128,-1,27
 997 136 997 136 1025 136 c 2,28,-1
 1050 136 l 2,29,30
 1084 136 1084 136 1096 121 c 128,-1,31
 1108 106 1108 106 1101 68 c 0,32,33
 1095 30 1095 30 1078 15 c 128,-1,34
 1061 0 1061 0 1027 0 c 2,35,-1
 976 0 l 2,36,37
 914 0 914 0 874.5 38.5 c 128,-1,38
 835 77 835 77 830 143 c 1,39,40
 677 -22 677 -22 485 -22 c 0,0,1
511 126 m 0,41,42
 600 126 600 126 669.5 162 c 128,-1,43
 739 198 739 198 786.5 256.5 c 128,-1,44
 834 315 834 315 859 389.5 c 128,-1,45
 884 464 884 464 884 541 c 0,46,47
 884 602 884 602 866 650 c 128,-1,48
 848 698 848 698 814.5 731 c 128,-1,49
 781 764 781 764 734 781 c 128,-1,50
 687 798 687 798 629 798 c 0,51,52
 545 798 545 798 479.5 761 c 128,-1,53
 414 724 414 724 369 664 c 128,-1,54
 324 604 324 604 301 528 c 128,-1,55
 278 452 278 452 278 375 c 0,56,57
 278 319 278 319 293 273 c 128,-1,58
 308 227 308 227 337 194.5 c 128,-1,59
 366 162 366 162 410 144 c 128,-1,60
 454 126 454 126 511 126 c 0,41,42
EndSplineSet
EndChar
StartChar: b
Encoding: 98 98 66
Width: 1228
Flags: W
LayerCount: 2
Back
Fore
SplineSet
595 -22 m 0,0,1
 544 -22 544 -22 498.5 -9 c 128,-1,2
 453 4 453 4 414.5 28 c 128,-1,3
 376 52 376 52 345 85 c 128,-1,4
 314 118 314 118 290 158 c 1,5,-1
 271 55 l 2,6,7
 265 20 265 20 248.5 5 c 128,-1,8
 232 -10 232 -10 190 -10 c 256,9,10
 148 -10 148 -10 136.5 5 c 128,-1,11
 125 20 125 20 131 55 c 2,12,-1
 329 1176 l 1,13,-1
 227 1176 l 2,14,15
 193 1176 193 1176 181 1191 c 128,-1,16
 169 1206 169 1206 176 1244 c 256,17,18
 183 1282 183 1282 200 1297 c 128,-1,19
 217 1312 217 1312 251 1312 c 2,20,-1
 440 1312 l 2,21,22
 474 1312 474 1312 486 1297 c 128,-1,23
 498 1282 498 1282 491 1244 c 2,24,-1
 411 791 l 1,25,26
 483 866 483 866 565.5 906 c 128,-1,27
 648 946 648 946 745 946 c 0,28,29
 826 946 826 946 893 919 c 128,-1,30
 960 892 960 892 1008 841.5 c 128,-1,31
 1056 791 1056 791 1082.5 719.5 c 128,-1,32
 1109 648 1109 648 1109 558 c 0,33,34
 1109 493 1109 493 1095.5 425 c 128,-1,35
 1082 357 1082 357 1054 292.5 c 128,-1,36
 1026 228 1026 228 984 171 c 128,-1,37
 942 114 942 114 885 71 c 128,-1,38
 828 28 828 28 755.5 3 c 128,-1,39
 683 -22 683 -22 595 -22 c 0,0,1
719 798 m 0,40,41
 630 798 630 798 560.5 762 c 128,-1,42
 491 726 491 726 443.5 667.5 c 128,-1,43
 396 609 396 609 371 534.5 c 128,-1,44
 346 460 346 460 346 383 c 0,45,46
 346 321 346 321 364 273.5 c 128,-1,47
 382 226 382 226 415.5 193 c 128,-1,48
 449 160 449 160 496 143 c 128,-1,49
 543 126 543 126 601 126 c 0,50,51
 685 126 685 126 750.5 163 c 128,-1,52
 816 200 816 200 861 260 c 128,-1,53
 906 320 906 320 929 396 c 128,-1,54
 952 472 952 472 952 549 c 0,55,56
 952 605 952 605 937 651 c 128,-1,57
 922 697 922 697 893 729.5 c 128,-1,58
 864 762 864 762 820 780 c 128,-1,59
 776 798 776 798 719 798 c 0,40,41
EndSplineSet
EndChar
StartChar: c
Encoding: 99 99 67
Width: 1228
Flags: W
LayerCount: 2
Back
Fore
SplineSet
911 238 m 0,0,1
 934 254 934 254 959 250 c 128,-1,2
 984 246 984 246 1004 211 c 0,3,4
 1041 145 1041 145 979 105 c 0,5,6
 887 46 887 46 773.5 12 c 128,-1,7
 660 -22 660 -22 545 -22 c 0,8,9
 449 -22 449 -22 372 8.5 c 128,-1,10
 295 39 295 39 242 93 c 128,-1,11
 189 147 189 147 160.5 220.5 c 128,-1,12
 132 294 132 294 132 380 c 0,13,14
 132 490 132 490 173 592 c 128,-1,15
 214 694 214 694 288.5 773 c 128,-1,16
 363 852 363 852 467.5 899 c 128,-1,17
 572 946 572 946 700 946 c 0,18,19
 792 946 792 946 862 909.5 c 128,-1,20
 932 873 932 873 971 811 c 1,21,-1
 984 881 l 2,22,23
 991 916 991 916 1009.5 931 c 128,-1,24
 1028 946 1028 946 1070 946 c 256,25,26
 1112 946 1112 946 1126 931 c 128,-1,27
 1140 916 1140 916 1134 881 c 2,28,-1
 1083 591 l 2,29,30
 1077 556 1077 556 1059 541 c 128,-1,31
 1041 526 1041 526 999 526 c 256,32,33
 957 526 957 526 943 541 c 128,-1,34
 929 556 929 556 934 591 c 0,35,36
 941 636 941 636 929 674 c 128,-1,37
 917 712 917 712 886.5 739.5 c 128,-1,38
 856 767 856 767 807 782.5 c 128,-1,39
 758 798 758 798 689 798 c 0,40,41
 603 798 603 798 530 765 c 128,-1,42
 457 732 457 732 403.5 675.5 c 128,-1,43
 350 619 350 619 320 545.5 c 128,-1,44
 290 472 290 472 290 391 c 0,45,46
 290 332 290 332 308.5 283.5 c 128,-1,47
 327 235 327 235 362 200 c 128,-1,48
 397 165 397 165 447 145.5 c 128,-1,49
 497 126 497 126 561 126 c 0,50,51
 653 126 653 126 741.5 154.5 c 128,-1,52
 830 183 830 183 911 238 c 0,0,1
EndSplineSet
EndChar
StartChar: d
Encoding: 100 100 68
Width: 1228
Flags: W
LayerCount: 2
Back
Fore
SplineSet
1061 136 m 2,0,1
 1095 136 1095 136 1107 121 c 128,-1,2
 1119 106 1119 106 1112 68 c 0,3,4
 1106 30 1106 30 1089 15 c 128,-1,5
 1072 0 1072 0 1038 0 c 2,6,-1
 879 0 l 2,7,8
 845 0 845 0 832.5 15 c 128,-1,9
 820 30 820 30 827 68 c 2,10,-1
 840 138 l 1,11,12
 764 60 764 60 678 19 c 128,-1,13
 592 -22 592 -22 495 -22 c 0,14,15
 414 -22 414 -22 346.5 4 c 128,-1,16
 279 30 279 30 230.5 78.5 c 128,-1,17
 182 127 182 127 155 195.5 c 128,-1,18
 128 264 128 264 128 350 c 0,19,20
 128 457 128 457 163 555.5 c 128,-1,21
 198 654 198 654 264.5 730 c 128,-1,22
 331 806 331 806 427 851 c 128,-1,23
 523 896 523 896 646 896 c 0,24,25
 746 896 746 896 817.5 852 c 128,-1,26
 889 808 889 808 934 730 c 1,27,-1
 1013 1176 l 1,28,-1
 811 1176 l 2,29,30
 777 1176 777 1176 765 1191 c 128,-1,31
 753 1206 753 1206 760 1244 c 256,32,33
 767 1282 767 1282 784 1297 c 128,-1,34
 801 1312 801 1312 835 1312 c 2,35,-1
 1124 1312 l 2,36,37
 1158 1312 1158 1312 1170 1297 c 128,-1,38
 1182 1282 1182 1282 1175 1244 c 2,39,-1
 979 136 l 1,40,-1
 1061 136 l 2,0,1
521 126 m 0,41,42
 614 126 614 126 683.5 161 c 128,-1,43
 753 196 753 196 798.5 251 c 128,-1,44
 844 306 844 306 866.5 373.5 c 128,-1,45
 889 441 889 441 889 506 c 0,46,47
 889 564 889 564 870.5 609 c 128,-1,48
 852 654 852 654 818 685 c 128,-1,49
 784 716 784 716 736 732 c 128,-1,50
 688 748 688 748 630 748 c 0,51,52
 546 748 546 748 481.5 714.5 c 128,-1,53
 417 681 417 681 373.5 626.5 c 128,-1,54
 330 572 330 572 307.5 502.5 c 128,-1,55
 285 433 285 433 285 362 c 0,56,57
 285 309 285 309 300 265.5 c 128,-1,58
 315 222 315 222 345 191 c 128,-1,59
 375 160 375 160 419 143 c 128,-1,60
 463 126 463 126 521 126 c 0,41,42
EndSplineSet
EndChar
StartChar: e
Encoding: 101 101 69
Width: 1228
Flags: W
LayerCount: 2
Back
Fore
SplineSet
969 66 m 0,0,1
 927 47 927 47 876 31 c 128,-1,2
 825 15 825 15 769.5 3 c 128,-1,3
 714 -9 714 -9 655.5 -15.5 c 128,-1,4
 597 -22 597 -22 539 -22 c 0,5,6
 444 -22 444 -22 371.5 4 c 128,-1,7
 299 30 299 30 249 79 c 128,-1,8
 199 128 199 128 173.5 197.5 c 128,-1,9
 148 267 148 267 148 354 c 0,10,11
 148 478 148 478 189.5 586 c 128,-1,12
 231 694 231 694 306 774 c 128,-1,13
 381 854 381 854 486 900 c 128,-1,14
 591 946 591 946 719 946 c 0,15,16
 802 946 802 946 869 924 c 128,-1,17
 936 902 936 902 982.5 863 c 128,-1,18
 1029 824 1029 824 1054 770.5 c 128,-1,19
 1079 717 1079 717 1079 655 c 0,20,21
 1079 604 1079 604 1066.5 562 c 128,-1,22
 1054 520 1054 520 1027 488.5 c 128,-1,23
 1000 457 1000 457 957 437 c 128,-1,24
 914 417 914 417 853 411 c 2,25,-1
 304 354 l 1,26,27
 306 232 306 232 372 177.5 c 128,-1,28
 438 123 438 123 554 123 c 0,29,30
 604 123 604 123 655 130 c 128,-1,31
 706 137 706 137 754 149.5 c 128,-1,32
 802 162 802 162 846.5 179 c 128,-1,33
 891 196 891 196 929 215 c 0,34,35
 954 228 954 228 976 216 c 128,-1,36
 998 204 998 204 1010 166 c 0,37,38
 1022 127 1022 127 1011.5 103.5 c 128,-1,39
 1001 80 1001 80 969 66 c 0,0,1
704 801 m 0,40,41
 626 801 626 801 562.5 777.5 c 128,-1,42
 499 754 499 754 450.5 713 c 128,-1,43
 402 672 402 672 368.5 615.5 c 128,-1,44
 335 559 335 559 319 492 c 1,45,-1
 822 550 l 2,46,47
 880 556 880 556 900.5 581 c 128,-1,48
 921 606 921 606 921 650 c 0,49,50
 921 681 921 681 907.5 709 c 128,-1,51
 894 737 894 737 867 757 c 128,-1,52
 840 777 840 777 799 789 c 128,-1,53
 758 801 758 801 704 801 c 0,40,41
EndSplineSet
EndChar
StartChar: f
Encoding: 102 102 70
Width: 1228
Flags: W
LayerCount: 2
Back
Fore
SplineSet
566 844 m 1,0,-1
 588 967 l 2,1,2
 603 1049 603 1049 636.5 1114 c 128,-1,3
 670 1179 670 1179 721 1224 c 128,-1,4
 772 1269 772 1269 840 1293 c 128,-1,5
 908 1317 908 1317 992 1317 c 0,6,7
 1063 1317 1063 1317 1127.5 1303 c 128,-1,8
 1192 1289 1192 1289 1249 1266 c 0,9,10
 1274 1255 1274 1255 1287 1233.5 c 128,-1,11
 1300 1212 1300 1212 1286 1174 c 0,12,13
 1272 1133 1272 1133 1250 1123.5 c 128,-1,14
 1228 1114 1228 1114 1204 1124 c 0,15,16
 1150 1146 1150 1146 1093 1158.5 c 128,-1,17
 1036 1171 1036 1171 976 1171 c 0,18,19
 870 1171 870 1171 812 1114 c 128,-1,20
 754 1057 754 1057 736 954 c 2,21,-1
 716 844 l 1,22,-1
 1062 844 l 2,23,24
 1096 844 1096 844 1108 829 c 128,-1,25
 1120 814 1120 814 1113 776 c 0,26,27
 1107 738 1107 738 1089.5 723 c 128,-1,28
 1072 708 1072 708 1038 708 c 2,29,-1
 692 708 l 1,30,-1
 551 -96 l 2,31,32
 524 -248 524 -248 434.5 -331.5 c 128,-1,33
 345 -415 345 -415 194 -415 c 0,34,35
 121 -415 121 -415 52 -394 c 128,-1,36
 -17 -373 -17 -373 -78 -329 c 0,37,38
 -100 -313 -100 -313 -105 -290 c 128,-1,39
 -110 -267 -110 -267 -87 -231 c 0,40,41
 -65 -196 -65 -196 -42 -190.5 c 128,-1,42
 -19 -185 -19 -185 1 -200 c 0,43,44
 49 -236 49 -236 101 -252.5 c 128,-1,45
 153 -269 153 -269 207 -269 c 0,46,47
 289 -269 289 -269 337.5 -224.5 c 128,-1,48
 386 -180 386 -180 403 -83 c 2,49,-1
 542 708 l 1,50,-1
 344 708 l 2,51,52
 310 708 310 708 298.5 723 c 128,-1,53
 287 738 287 738 293 776 c 0,54,55
 300 814 300 814 317 829 c 128,-1,56
 334 844 334 844 368 844 c 2,57,-1
 566 844 l 1,0,-1
EndSplineSet
EndChar
StartChar: g
Encoding: 103 103 71
Width: 1228
Flags: W
LayerCount: 2
Back
Fore
SplineSet
518 28 m 0,0,1
 437 28 437 28 369.5 54 c 128,-1,2
 302 80 302 80 254 128.5 c 128,-1,3
 206 177 206 177 179 245.5 c 128,-1,4
 152 314 152 314 152 400 c 0,5,6
 152 507 152 507 187 605.5 c 128,-1,7
 222 704 222 704 288.5 780 c 128,-1,8
 355 856 355 856 451 901 c 128,-1,9
 547 946 547 946 670 946 c 0,10,11
 773 946 773 946 846.5 898 c 128,-1,12
 920 850 920 850 965 766 c 1,13,-1
 984 869 l 2,14,15
 990 904 990 904 1006.5 919 c 128,-1,16
 1023 934 1023 934 1065 934 c 256,17,18
 1107 934 1107 934 1118.5 919 c 128,-1,19
 1130 904 1130 904 1124 869 c 2,20,-1
 962 -45 l 2,21,22
 930 -225 930 -225 811 -320 c 128,-1,23
 692 -415 692 -415 494 -415 c 0,24,25
 407 -415 407 -415 323.5 -400 c 128,-1,26
 240 -385 240 -385 166 -355 c 0,27,28
 140 -344 140 -344 131.5 -321.5 c 128,-1,29
 123 -299 123 -299 139 -261 c 0,30,31
 155 -222 155 -222 176 -211 c 128,-1,32
 197 -200 197 -200 221 -211 c 0,33,34
 287 -240 287 -240 362 -253.5 c 128,-1,35
 437 -267 437 -267 510 -267 c 0,36,37
 577 -267 577 -267 629.5 -249.5 c 128,-1,38
 682 -232 682 -232 720.5 -199.5 c 128,-1,39
 759 -167 759 -167 783 -122 c 128,-1,40
 807 -77 807 -77 817 -22 c 2,41,-1
 851 174 l 1,42,43
 778 102 778 102 696.5 65 c 128,-1,44
 615 28 615 28 518 28 c 0,0,1
545 176 m 0,45,46
 638 176 638 176 707.5 211 c 128,-1,47
 777 246 777 246 822.5 301 c 128,-1,48
 868 356 868 356 890.5 423.5 c 128,-1,49
 913 491 913 491 913 556 c 0,50,51
 913 614 913 614 894.5 659 c 128,-1,52
 876 704 876 704 842 735 c 128,-1,53
 808 766 808 766 760 782 c 128,-1,54
 712 798 712 798 654 798 c 0,55,56
 570 798 570 798 505.5 764.5 c 128,-1,57
 441 731 441 731 397.5 676.5 c 128,-1,58
 354 622 354 622 331.5 552.5 c 128,-1,59
 309 483 309 483 309 412 c 0,60,61
 309 359 309 359 324 315.5 c 128,-1,62
 339 272 339 272 369 241 c 128,-1,63
 399 210 399 210 443 193 c 128,-1,64
 487 176 487 176 545 176 c 0,45,46
EndSplineSet
EndChar
StartChar: h
Encoding: 104 104 72
Width: 1228
Flags: W
LayerCount: 2
Back
Fore
SplineSet
444 750 m 1,0,1
 526 846 526 846 617 896 c 128,-1,2
 708 946 708 946 803 946 c 0,3,4
 863 946 863 946 910 927.5 c 128,-1,5
 957 909 957 909 990 875.5 c 128,-1,6
 1023 842 1023 842 1040.5 794 c 128,-1,7
 1058 746 1058 746 1058 687 c 0,8,9
 1058 669 1058 669 1056.5 649.5 c 128,-1,10
 1055 630 1055 630 1051 610 c 2,11,-1
 967 136 l 1,12,-1
 1049 136 l 2,13,14
 1083 136 1083 136 1095 121 c 128,-1,15
 1107 106 1107 106 1100 68 c 0,16,17
 1094 30 1094 30 1077 15 c 128,-1,18
 1060 0 1060 0 1026 0 c 2,19,-1
 857 0 l 2,20,21
 823 0 823 0 810.5 15 c 128,-1,22
 798 30 798 30 805 68 c 2,23,-1
 900 605 l 2,24,25
 902 619 902 619 903.5 632 c 128,-1,26
 905 645 905 645 905 658 c 0,27,28
 905 722 905 722 873 760 c 128,-1,29
 841 798 841 798 772 798 c 0,30,31
 708 798 708 798 644.5 767 c 128,-1,32
 581 736 581 736 527.5 682 c 128,-1,33
 474 628 474 628 435 556 c 128,-1,34
 396 484 396 484 382 402 c 2,35,-1
 321 55 l 2,36,37
 315 20 315 20 296 5 c 128,-1,38
 277 -10 277 -10 235 -10 c 256,39,40
 193 -10 193 -10 179 5 c 128,-1,41
 165 20 165 20 171 55 c 2,42,-1
 369 1176 l 1,43,-1
 277 1176 l 2,44,45
 243 1176 243 1176 231 1191 c 128,-1,46
 219 1206 219 1206 226 1244 c 256,47,48
 233 1282 233 1282 250 1297 c 128,-1,49
 267 1312 267 1312 301 1312 c 2,50,-1
 480 1312 l 2,51,52
 514 1312 514 1312 526 1297 c 128,-1,53
 538 1282 538 1282 531 1244 c 2,54,-1
 444 750 l 1,0,1
EndSplineSet
EndChar
StartChar: i
Encoding: 105 105 73
Width: 1228
Flags: W
LayerCount: 2
Back
Fore
SplineSet
768 1168 m 2,0,1
 762 1133 762 1133 740.5 1118 c 128,-1,2
 719 1103 719 1103 662 1103 c 256,3,4
 605 1103 605 1103 588.5 1118 c 128,-1,5
 572 1133 572 1133 578 1168 c 2,6,-1
 601 1298 l 2,7,8
 607 1333 607 1333 629 1348 c 128,-1,9
 651 1363 651 1363 708 1363 c 256,10,11
 765 1363 765 1363 781 1348 c 128,-1,12
 797 1333 797 1333 791 1298 c 2,13,-1
 768 1168 l 2,0,1
298 788 m 2,14,15
 264 788 264 788 252.5 803 c 128,-1,16
 241 818 241 818 247 856 c 0,17,18
 254 894 254 894 271 909 c 128,-1,19
 288 924 288 924 322 924 c 2,20,-1
 662 924 l 2,21,22
 696 924 696 924 708 909 c 128,-1,23
 720 894 720 894 713 856 c 2,24,-1
 617 310 l 2,25,26
 614 292 614 292 612 275 c 128,-1,27
 610 258 610 258 610 244 c 0,28,29
 610 181 610 181 642 152.5 c 128,-1,30
 674 124 674 124 744 124 c 0,31,32
 802 124 802 124 858 143 c 128,-1,33
 914 162 914 162 976 200 c 0,34,35
 1001 215 1001 215 1023 205.5 c 128,-1,36
 1045 196 1045 196 1059 161 c 0,37,38
 1073 125 1073 125 1065 103 c 128,-1,39
 1057 81 1057 81 1029 65 c 0,40,41
 876 -22 876 -22 729 -22 c 0,42,43
 598 -22 598 -22 529 44.5 c 128,-1,44
 460 111 460 111 460 229 c 0,45,46
 460 269 460 269 467 307 c 2,47,-1
 551 788 l 1,48,-1
 298 788 l 2,14,15
EndSplineSet
EndChar
StartChar: j
Encoding: 106 106 74
Width: 1228
Flags: W
LayerCount: 2
Back
Fore
SplineSet
932 924 m 2,0,1
 966 924 966 924 978 909 c 128,-1,2
 990 894 990 894 983 856 c 2,3,-1
 822 -62 l 2,4,5
 807 -148 807 -148 778.5 -214 c 128,-1,6
 750 -280 750 -280 704 -324.5 c 128,-1,7
 658 -369 658 -369 593.5 -392 c 128,-1,8
 529 -415 529 -415 442 -415 c 0,9,10
 399 -415 399 -415 354 -406 c 128,-1,11
 309 -397 309 -397 266 -382 c 128,-1,12
 223 -367 223 -367 183 -346.5 c 128,-1,13
 143 -326 143 -326 110 -302 c 0,14,15
 88 -286 88 -286 82 -264 c 128,-1,16
 76 -242 76 -242 99 -204 c 256,17,18
 122 -166 122 -166 146 -161.5 c 128,-1,19
 170 -157 170 -157 190 -172 c 0,20,21
 249 -214 249 -214 318.5 -241.5 c 128,-1,22
 388 -269 388 -269 458 -269 c 0,23,24
 508 -269 508 -269 544.5 -255.5 c 128,-1,25
 581 -242 581 -242 606.5 -214.5 c 128,-1,26
 632 -187 632 -187 648 -145.5 c 128,-1,27
 664 -104 664 -104 674 -49 c 2,28,-1
 821 788 l 1,29,-1
 398 788 l 2,30,31
 364 788 364 788 352.5 803 c 128,-1,32
 341 818 341 818 347 856 c 0,33,34
 354 894 354 894 371 909 c 128,-1,35
 388 924 388 924 422 924 c 2,36,-1
 932 924 l 2,0,1
1038 1168 m 2,37,38
 1032 1133 1032 1133 1010.5 1118 c 128,-1,39
 989 1103 989 1103 932 1103 c 256,40,41
 875 1103 875 1103 858.5 1118 c 128,-1,42
 842 1133 842 1133 848 1168 c 2,43,-1
 871 1298 l 2,44,45
 877 1333 877 1333 899 1348 c 128,-1,46
 921 1363 921 1363 978 1363 c 256,47,48
 1035 1363 1035 1363 1051 1348 c 128,-1,49
 1067 1333 1067 1333 1061 1298 c 2,50,-1
 1038 1168 l 2,37,38
EndSplineSet
EndChar
StartChar: k
Encoding: 107 107 172
Width: 1228
Flags: W
LayerCount: 2
Back
Fore
SplineSet
1127 924 m 2,0,1
 1161 924 1161 924 1173 909 c 128,-1,2
 1185 894 1185 894 1178 856 c 0,3,4
 1172 818 1172 818 1154.5 803 c 128,-1,5
 1137 788 1137 788 1103 788 c 2,6,-1
 1048 788 l 1,7,-1
 634 486 l 1,8,9
 734 502 734 502 805 424 c 0,10,11
 832 395 832 395 849.5 359 c 128,-1,12
 867 323 867 323 881 287.5 c 128,-1,13
 895 252 895 252 908.5 220 c 128,-1,14
 922 188 922 188 940 167 c 0,15,16
 952 153 952 153 968 144.5 c 128,-1,17
 984 136 984 136 1005 136 c 2,18,-1
 1029 136 l 2,19,20
 1063 136 1063 136 1075 121 c 128,-1,21
 1087 106 1087 106 1080 68 c 0,22,23
 1074 30 1074 30 1057 15 c 128,-1,24
 1040 0 1040 0 1006 0 c 2,25,-1
 963 0 l 2,26,27
 929 0 929 0 899 9.5 c 128,-1,28
 869 19 869 19 848 40 c 0,29,30
 815 73 815 73 795 111.5 c 128,-1,31
 775 150 775 150 760 189 c 128,-1,32
 745 228 745 228 730.5 263.5 c 128,-1,33
 716 299 716 299 694 325 c 0,34,35
 670 352 670 352 636 365.5 c 128,-1,36
 602 379 602 379 564 379 c 0,37,38
 528 379 528 379 486.5 367.5 c 128,-1,39
 445 356 445 356 415 334 c 2,40,-1
 397 321 l 1,41,-1
 350 55 l 2,42,43
 344 20 344 20 325 5 c 128,-1,44
 306 -10 306 -10 264 -10 c 256,45,46
 222 -10 222 -10 208 5 c 128,-1,47
 194 20 194 20 200 55 c 2,48,-1
 398 1176 l 1,49,-1
 267 1176 l 2,50,51
 233 1176 233 1176 221 1191 c 128,-1,52
 209 1206 209 1206 216 1244 c 256,53,54
 223 1282 223 1282 240 1297 c 128,-1,55
 257 1312 257 1312 291 1312 c 2,56,-1
 509 1312 l 2,57,58
 543 1312 543 1312 555 1297 c 128,-1,59
 567 1282 567 1282 560 1244 c 2,60,-1
 428 497 l 1,61,-1
 823 788 l 1,62,-1
 769 788 l 2,63,64
 735 788 735 788 723.5 803 c 128,-1,65
 712 818 712 818 718 856 c 0,66,67
 725 894 725 894 742 909 c 128,-1,68
 759 924 759 924 793 924 c 2,69,-1
 1127 924 l 2,0,1
EndSplineSet
EndChar
StartChar: l
Encoding: 108 108 75
Width: 1228
Flags: W
LayerCount: 2
Back
Fore
SplineSet
1009 65 m 0,0,1
 856 -22 856 -22 709 -22 c 0,2,3
 578 -22 578 -22 509 44.5 c 128,-1,4
 440 111 440 111 440 229 c 0,5,6
 440 247 440 247 441.5 267 c 128,-1,7
 443 287 443 287 447 307 c 2,8,-1
 600 1176 l 1,9,-1
 327 1176 l 2,10,11
 293 1176 293 1176 281 1191 c 128,-1,12
 269 1206 269 1206 276 1244 c 256,13,14
 283 1282 283 1282 300 1297 c 128,-1,15
 317 1312 317 1312 351 1312 c 2,16,-1
 711 1312 l 2,17,18
 745 1312 745 1312 757 1297 c 128,-1,19
 769 1282 769 1282 762 1244 c 2,20,-1
 597 310 l 2,21,22
 594 291 594 291 592 274.5 c 128,-1,23
 590 258 590 258 590 243 c 0,24,25
 590 180 590 180 622.5 152 c 128,-1,26
 655 124 655 124 724 124 c 0,27,28
 782 124 782 124 838 143 c 128,-1,29
 894 162 894 162 956 200 c 0,30,31
 981 215 981 215 1003 205.5 c 128,-1,32
 1025 196 1025 196 1039 161 c 0,33,34
 1053 125 1053 125 1045 103 c 128,-1,35
 1037 81 1037 81 1009 65 c 0,0,1
EndSplineSet
EndChar
StartChar: m
Encoding: 109 109 76
Width: 1228
Flags: W
LayerCount: 2
Back
Fore
SplineSet
209 788 m 1,0,-1
 127 788 l 2,1,2
 93 788 93 788 81.5 803 c 128,-1,3
 70 818 70 818 76 856 c 0,4,5
 83 894 83 894 100 909 c 128,-1,6
 117 924 117 924 151 924 c 2,7,-1
 300 924 l 2,8,9
 334 924 334 924 346 909 c 128,-1,10
 358 894 358 894 351 856 c 2,11,-1
 334 757 l 1,12,13
 391 854 391 854 458.5 900 c 128,-1,14
 526 946 526 946 588 946 c 0,15,16
 654 946 654 946 697.5 900.5 c 128,-1,17
 741 855 741 855 746 765 c 1,18,19
 803 858 803 858 871.5 902 c 128,-1,20
 940 946 940 946 1005 946 c 0,21,22
 1042 946 1042 946 1074.5 932.5 c 128,-1,23
 1107 919 1107 919 1131 893 c 128,-1,24
 1155 867 1155 867 1169 828.5 c 128,-1,25
 1183 790 1183 790 1183 740 c 0,26,27
 1183 723 1183 723 1181.5 705.5 c 128,-1,28
 1180 688 1180 688 1176 668 c 2,29,-1
 1082 136 l 1,30,-1
 1144 136 l 2,31,32
 1178 136 1178 136 1190 121 c 128,-1,33
 1202 106 1202 106 1195 68 c 0,34,35
 1189 30 1189 30 1172 15 c 128,-1,36
 1155 0 1155 0 1121 0 c 2,37,-1
 972 0 l 2,38,39
 938 0 938 0 925.5 15 c 128,-1,40
 913 30 913 30 920 68 c 2,41,-1
 1025 660 l 2,42,43
 1027 674 1027 674 1028.5 687.5 c 128,-1,44
 1030 701 1030 701 1030 712 c 0,45,46
 1030 754 1030 754 1012 776 c 128,-1,47
 994 798 994 798 954 798 c 0,48,49
 918 798 918 798 881.5 770 c 128,-1,50
 845 742 845 742 812.5 693 c 128,-1,51
 780 644 780 644 754.5 578.5 c 128,-1,52
 729 513 729 513 716 437 c 2,53,-1
 649 55 l 2,54,55
 643 20 643 20 624 5 c 128,-1,56
 605 -10 605 -10 563 -10 c 256,57,58
 521 -10 521 -10 507 5 c 128,-1,59
 493 20 493 20 499 55 c 2,60,-1
 606 660 l 2,61,62
 608 674 608 674 609.5 687 c 128,-1,63
 611 700 611 700 611 712 c 0,64,65
 611 754 611 754 593 776 c 128,-1,66
 575 798 575 798 535 798 c 0,67,68
 499 798 499 798 462.5 770 c 128,-1,69
 426 742 426 742 393.5 693 c 128,-1,70
 361 644 361 644 335.5 578.5 c 128,-1,71
 310 513 310 513 297 437 c 2,72,-1
 230 55 l 2,73,74
 224 20 224 20 205 5 c 128,-1,75
 186 -10 186 -10 144 -10 c 256,76,77
 102 -10 102 -10 88 5 c 128,-1,78
 74 20 74 20 80 55 c 2,79,-1
 209 788 l 1,0,-1
EndSplineSet
EndChar
StartChar: n
Encoding: 110 110 77
Width: 1228
Flags: W
LayerCount: 2
Back
Fore
SplineSet
411 924 m 2,0,1
 445 924 445 924 457 909 c 128,-1,2
 469 894 469 894 462 856 c 2,3,-1
 441 736 l 1,4,5
 526 839 526 839 620 892.5 c 128,-1,6
 714 946 714 946 813 946 c 0,7,8
 873 946 873 946 920.5 927.5 c 128,-1,9
 968 909 968 909 1000.5 875 c 128,-1,10
 1033 841 1033 841 1050.5 793 c 128,-1,11
 1068 745 1068 745 1068 686 c 0,12,13
 1068 648 1068 648 1061 610 c 2,14,-1
 977 136 l 1,15,-1
 1059 136 l 2,16,17
 1093 136 1093 136 1105 121 c 128,-1,18
 1117 106 1117 106 1110 68 c 0,19,20
 1104 30 1104 30 1087 15 c 128,-1,21
 1070 0 1070 0 1036 0 c 2,22,-1
 867 0 l 2,23,24
 833 0 833 0 820.5 15 c 128,-1,25
 808 30 808 30 815 68 c 2,26,-1
 910 605 l 2,27,28
 912 619 912 619 913.5 632.5 c 128,-1,29
 915 646 915 646 915 659 c 0,30,31
 915 723 915 723 883 760.5 c 128,-1,32
 851 798 851 798 782 798 c 0,33,34
 718 798 718 798 654.5 767 c 128,-1,35
 591 736 591 736 537.5 682 c 128,-1,36
 484 628 484 628 445 556 c 128,-1,37
 406 484 406 484 392 402 c 2,38,-1
 331 55 l 2,39,40
 325 20 325 20 306 5 c 128,-1,41
 287 -10 287 -10 245 -10 c 256,42,43
 203 -10 203 -10 189 5 c 128,-1,44
 175 20 175 20 181 55 c 2,45,-1
 310 788 l 1,46,-1
 208 788 l 2,47,48
 174 788 174 788 162.5 803 c 128,-1,49
 151 818 151 818 157 856 c 0,50,51
 164 894 164 894 181 909 c 128,-1,52
 198 924 198 924 232 924 c 2,53,-1
 411 924 l 2,0,1
EndSplineSet
EndChar
StartChar: o
Encoding: 111 111 78
Width: 1228
Flags: W
LayerCount: 2
Back
Fore
SplineSet
126 386 m 0,0,1
 126 496 126 496 167.5 597 c 128,-1,2
 209 698 209 698 284.5 775.5 c 128,-1,3
 360 853 360 853 465.5 899.5 c 128,-1,4
 571 946 571 946 700 946 c 0,5,6
 794 946 794 946 872 915.5 c 128,-1,7
 950 885 950 885 1006 830.5 c 128,-1,8
 1062 776 1062 776 1093 701 c 128,-1,9
 1124 626 1124 626 1124 538 c 0,10,11
 1124 428 1124 428 1082.5 327 c 128,-1,12
 1041 226 1041 226 965.5 148.5 c 128,-1,13
 890 71 890 71 784.5 24.5 c 128,-1,14
 679 -22 679 -22 550 -22 c 0,15,16
 456 -22 456 -22 378 8.5 c 128,-1,17
 300 39 300 39 244 93.5 c 128,-1,18
 188 148 188 148 157 222.5 c 128,-1,19
 126 297 126 297 126 386 c 0,0,1
283 394 m 0,20,21
 283 334 283 334 302.5 285 c 128,-1,22
 322 236 322 236 358.5 200.5 c 128,-1,23
 395 165 395 165 447.5 145.5 c 128,-1,24
 500 126 500 126 566 126 c 0,25,26
 654 126 654 126 727.5 159 c 128,-1,27
 801 192 801 192 854.5 248 c 128,-1,28
 908 304 908 304 937.5 377 c 128,-1,29
 967 450 967 450 967 530 c 0,30,31
 967 590 967 590 947.5 639 c 128,-1,32
 928 688 928 688 891.5 723.5 c 128,-1,33
 855 759 855 759 802.5 778.5 c 128,-1,34
 750 798 750 798 684 798 c 0,35,36
 596 798 596 798 522.5 765 c 128,-1,37
 449 732 449 732 395.5 676 c 128,-1,38
 342 620 342 620 312.5 547 c 128,-1,39
 283 474 283 474 283 394 c 0,20,21
EndSplineSet
EndChar
StartChar: p
Encoding: 112 112 79
Width: 1228
Flags: W
LayerCount: 2
Back
Fore
SplineSet
755 946 m 0,0,1
 836 946 836 946 903.5 920 c 128,-1,2
 971 894 971 894 1019.5 845.5 c 128,-1,3
 1068 797 1068 797 1095 728 c 128,-1,4
 1122 659 1122 659 1122 574 c 0,5,6
 1122 467 1122 467 1087 368.5 c 128,-1,7
 1052 270 1052 270 985.5 194 c 128,-1,8
 919 118 919 118 823 73 c 128,-1,9
 727 28 727 28 604 28 c 0,10,11
 504 28 504 28 432.5 72 c 128,-1,12
 361 116 361 116 316 194 c 1,13,-1
 236 -257 l 1,14,-1
 488 -257 l 2,15,16
 522 -257 522 -257 534 -272 c 128,-1,17
 546 -287 546 -287 539 -325 c 256,18,19
 532 -363 532 -363 515 -378 c 128,-1,20
 498 -393 498 -393 464 -393 c 2,21,-1
 -20 -393 l 2,22,23
 -54 -393 -54 -393 -65.5 -378 c 128,-1,24
 -77 -363 -77 -363 -70 -325 c 0,25,26
 -64 -287 -64 -287 -47 -272 c 128,-1,27
 -30 -257 -30 -257 4 -257 c 2,28,-1
 86 -257 l 1,29,-1
 270 788 l 1,30,-1
 188 788 l 2,31,32
 154 788 154 788 142.5 803 c 128,-1,33
 131 818 131 818 137 856 c 0,34,35
 144 894 144 894 161 909 c 128,-1,36
 178 924 178 924 212 924 c 2,37,-1
 371 924 l 2,38,39
 405 924 405 924 417 909 c 128,-1,40
 429 894 429 894 422 856 c 2,41,-1
 410 786 l 1,42,43
 486 864 486 864 572 905 c 128,-1,44
 658 946 658 946 755 946 c 0,0,1
729 798 m 0,45,46
 636 798 636 798 566.5 763 c 128,-1,47
 497 728 497 728 451.5 673 c 128,-1,48
 406 618 406 618 383.5 550.5 c 128,-1,49
 361 483 361 483 361 418 c 0,50,51
 361 360 361 360 379.5 315 c 128,-1,52
 398 270 398 270 432 239 c 128,-1,53
 466 208 466 208 514 192 c 128,-1,54
 562 176 562 176 620 176 c 0,55,56
 704 176 704 176 768.5 209.5 c 128,-1,57
 833 243 833 243 876.5 297.5 c 128,-1,58
 920 352 920 352 942.5 421.5 c 128,-1,59
 965 491 965 491 965 562 c 0,60,61
 965 615 965 615 950 658.5 c 128,-1,62
 935 702 935 702 905 733 c 128,-1,63
 875 764 875 764 831 781 c 128,-1,64
 787 798 787 798 729 798 c 0,45,46
EndSplineSet
EndChar
StartChar: q
Encoding: 113 113 80
Width: 1228
Flags: W
LayerCount: 2
Back
Fore
SplineSet
670 946 m 0,0,1
 773 946 773 946 846.5 898 c 128,-1,2
 920 850 920 850 965 766 c 1,3,-1
 984 869 l 2,4,5
 990 904 990 904 1006.5 919 c 128,-1,6
 1023 934 1023 934 1065 934 c 256,7,8
 1107 934 1107 934 1118.5 919 c 128,-1,9
 1130 904 1130 904 1124 869 c 2,10,-1
 925 -257 l 1,11,-1
 1037 -257 l 2,12,13
 1071 -257 1071 -257 1083 -272 c 128,-1,14
 1095 -287 1095 -287 1088 -325 c 256,15,16
 1081 -363 1081 -363 1064 -378 c 128,-1,17
 1047 -393 1047 -393 1013 -393 c 2,18,-1
 529 -393 l 2,19,20
 495 -393 495 -393 483 -378 c 128,-1,21
 471 -363 471 -363 478 -325 c 256,22,23
 485 -287 485 -287 502 -272 c 128,-1,24
 519 -257 519 -257 553 -257 c 2,25,-1
 775 -257 l 1,26,-1
 851 174 l 1,27,28
 778 102 778 102 696.5 65 c 128,-1,29
 615 28 615 28 518 28 c 0,30,31
 437 28 437 28 369.5 54 c 128,-1,32
 302 80 302 80 254 128.5 c 128,-1,33
 206 177 206 177 179 245.5 c 128,-1,34
 152 314 152 314 152 400 c 0,35,36
 152 507 152 507 187 605.5 c 128,-1,37
 222 704 222 704 288.5 780 c 128,-1,38
 355 856 355 856 451 901 c 128,-1,39
 547 946 547 946 670 946 c 0,0,1
545 176 m 0,40,41
 638 176 638 176 707.5 211 c 128,-1,42
 777 246 777 246 822.5 301 c 128,-1,43
 868 356 868 356 890.5 423.5 c 128,-1,44
 913 491 913 491 913 556 c 0,45,46
 913 614 913 614 894.5 659 c 128,-1,47
 876 704 876 704 842 735 c 128,-1,48
 808 766 808 766 760 782 c 128,-1,49
 712 798 712 798 654 798 c 0,50,51
 570 798 570 798 505.5 764.5 c 128,-1,52
 441 731 441 731 397.5 676.5 c 128,-1,53
 354 622 354 622 331.5 552.5 c 128,-1,54
 309 483 309 483 309 412 c 0,55,56
 309 359 309 359 324 315.5 c 128,-1,57
 339 272 339 272 369 241 c 128,-1,58
 399 210 399 210 443 193 c 128,-1,59
 487 176 487 176 545 176 c 0,40,41
EndSplineSet
EndChar
StartChar: r
Encoding: 114 114 81
Width: 1228
Flags: W
LayerCount: 2
Back
Fore
SplineSet
536 924 m 2,0,1
 570 924 570 924 582 909 c 128,-1,2
 594 894 594 894 587 856 c 2,3,-1
 552 654 l 1,4,5
 601 721 601 721 656 775 c 128,-1,6
 711 829 711 829 769 867 c 128,-1,7
 827 905 827 905 885.5 925.5 c 128,-1,8
 944 946 944 946 999 946 c 0,9,10
 1074 946 1074 946 1135 906 c 0,11,12
 1161 889 1161 889 1171.5 862.5 c 128,-1,13
 1182 836 1182 836 1162 798 c 0,14,15
 1122 721 1122 721 1073 753 c 0,16,17
 1052 767 1052 767 1027.5 773 c 128,-1,18
 1003 779 1003 779 977 779 c 0,19,20
 931 779 931 779 881.5 761.5 c 128,-1,21
 832 744 832 744 782.5 713 c 128,-1,22
 733 682 733 682 687 638.5 c 128,-1,23
 641 595 641 595 603.5 543 c 128,-1,24
 566 491 566 491 539 431.5 c 128,-1,25
 512 372 512 372 501 310 c 2,26,-1
 470 136 l 1,27,-1
 807 136 l 2,28,29
 841 136 841 136 853 121 c 128,-1,30
 865 106 865 106 858 68 c 0,31,32
 852 30 852 30 835 15 c 128,-1,33
 818 0 818 0 784 0 c 2,34,-1
 140 0 l 2,35,36
 106 0 106 0 94 15 c 128,-1,37
 82 30 82 30 88 68 c 0,38,39
 95 106 95 106 112 121 c 128,-1,40
 129 136 129 136 163 136 c 2,41,-1
 320 136 l 1,42,-1
 435 788 l 1,43,-1
 308 788 l 2,44,45
 274 788 274 788 262.5 803 c 128,-1,46
 251 818 251 818 257 856 c 0,47,48
 264 894 264 894 281 909 c 128,-1,49
 298 924 298 924 332 924 c 2,50,-1
 536 924 l 2,0,1
EndSplineSet
EndChar
StartChar: s
Encoding: 115 115 82
Width: 1228
Flags: W
LayerCount: 2
Back
Fore
SplineSet
266 43 m 2,0,1
 260 8 260 8 241 -7 c 128,-1,2
 222 -22 222 -22 180 -22 c 256,3,4
 138 -22 138 -22 124 -7 c 128,-1,5
 110 8 110 8 116 43 c 2,6,-1
 158 283 l 2,7,8
 164 318 164 318 183.5 333 c 128,-1,9
 203 348 203 348 245 348 c 0,10,11
 267 348 267 348 277 338.5 c 128,-1,12
 287 329 287 329 292 307 c 0,13,14
 312 210 312 210 388 166.5 c 128,-1,15
 464 123 464 123 603 123 c 0,16,17
 682 123 682 123 734 140.5 c 128,-1,18
 786 158 786 158 816.5 184 c 128,-1,19
 847 210 847 210 859 239.5 c 128,-1,20
 871 269 871 269 871 293 c 0,21,22
 871 330 871 330 841 350.5 c 128,-1,23
 811 371 811 371 763 382 c 0,24,25
 717 393 717 393 669.5 398.5 c 128,-1,26
 622 404 622 404 574.5 409.5 c 128,-1,27
 527 415 527 415 479.5 423 c 128,-1,28
 432 431 432 431 385 447 c 0,29,30
 351 458 351 458 322.5 474 c 128,-1,31
 294 490 294 490 273 512 c 128,-1,32
 252 534 252 534 240.5 562.5 c 128,-1,33
 229 591 229 591 229 629 c 0,34,35
 229 691 229 691 254 748 c 128,-1,36
 279 805 279 805 329 849 c 128,-1,37
 379 893 379 893 455.5 919.5 c 128,-1,38
 532 946 532 946 634 946 c 0,39,40
 734 946 734 946 808.5 916.5 c 128,-1,41
 883 887 883 887 931 836 c 1,42,-1
 939 881 l 2,43,44
 945 916 945 916 964 931 c 128,-1,45
 983 946 983 946 1025 946 c 256,46,47
 1067 946 1067 946 1081 931 c 128,-1,48
 1095 916 1095 916 1089 881 c 2,49,-1
 1055 691 l 2,50,51
 1049 656 1049 656 1030 641 c 128,-1,52
 1011 626 1011 626 969 626 c 0,53,54
 934 626 934 626 925 652 c 0,55,56
 910 695 910 695 882.5 724 c 128,-1,57
 855 753 855 753 816 770 c 128,-1,58
 777 787 777 787 727 794 c 128,-1,59
 677 801 677 801 619 801 c 0,60,61
 560 801 560 801 516.5 788.5 c 128,-1,62
 473 776 473 776 444.5 755.5 c 128,-1,63
 416 735 416 735 402.5 708.5 c 128,-1,64
 389 682 389 682 389 655 c 0,65,66
 389 620 389 620 418.5 602 c 128,-1,67
 448 584 448 584 498 573 c 0,68,69
 544 563 544 563 590.5 557.5 c 128,-1,70
 637 552 637 552 684 546.5 c 128,-1,71
 731 541 731 541 778 533 c 128,-1,72
 825 525 825 525 870 510 c 0,73,74
 904 499 904 499 933.5 482.5 c 128,-1,75
 963 466 963 466 985 443 c 128,-1,76
 1007 420 1007 420 1019 389.5 c 128,-1,77
 1031 359 1031 359 1031 320 c 0,78,79
 1031 287 1031 287 1022.5 248.5 c 128,-1,80
 1014 210 1014 210 994 172 c 128,-1,81
 974 134 974 134 940.5 99 c 128,-1,82
 907 64 907 64 858 37 c 128,-1,83
 809 10 809 10 742 -6 c 128,-1,84
 675 -22 675 -22 588 -22 c 0,85,86
 479 -22 479 -22 403 8 c 128,-1,87
 327 38 327 38 276 99 c 1,88,-1
 266 43 l 2,0,1
EndSplineSet
EndChar
StartChar: t
Encoding: 116 116 171
Width: 1228
Flags: W
LayerCount: 2
Back
Fore
SplineSet
461 844 m 1,0,-1
 514 1144 l 2,1,2
 520 1179 520 1179 539.5 1194 c 128,-1,3
 559 1209 559 1209 601 1209 c 256,4,5
 643 1209 643 1209 656.5 1194 c 128,-1,6
 670 1179 670 1179 664 1144 c 2,7,-1
 611 844 l 1,8,-1
 1022 844 l 2,9,10
 1056 844 1056 844 1068 829 c 128,-1,11
 1080 814 1080 814 1073 776 c 0,12,13
 1067 738 1067 738 1049.5 723 c 128,-1,14
 1032 708 1032 708 998 708 c 2,15,-1
 587 708 l 1,16,-1
 523 344 l 2,17,18
 514 297 514 297 514 261 c 0,19,20
 514 192 514 192 547.5 158 c 128,-1,21
 581 124 581 124 661 124 c 0,22,23
 731 124 731 124 810 153 c 128,-1,24
 889 182 889 182 962 225 c 0,25,26
 987 240 987 240 1009 230.5 c 128,-1,27
 1031 221 1031 221 1045 186 c 0,28,29
 1059 150 1059 150 1051 128 c 128,-1,30
 1043 106 1043 106 1015 90 c 0,31,32
 973 66 973 66 927 45.5 c 128,-1,33
 881 25 881 25 833 10 c 128,-1,34
 785 -5 785 -5 737.5 -13.5 c 128,-1,35
 690 -22 690 -22 646 -22 c 0,36,37
 500 -22 500 -22 431.5 45 c 128,-1,38
 363 112 363 112 363 237 c 0,39,40
 363 261 363 261 365.5 287 c 128,-1,41
 368 313 368 313 373 341 c 2,42,-1
 437 708 l 1,43,-1
 234 708 l 2,44,45
 200 708 200 708 188.5 723 c 128,-1,46
 177 738 177 738 183 776 c 0,47,48
 190 814 190 814 207 829 c 128,-1,49
 224 844 224 844 258 844 c 2,50,-1
 461 844 l 1,0,-1
EndSplineSet
EndChar
StartChar: u
Encoding: 117 117 83
Width: 1228
Flags: W
LayerCount: 2
Back
Fore
SplineSet
352 319 m 2,0,1
 350 305 350 305 348.5 291.5 c 128,-1,2
 347 278 347 278 347 265 c 0,3,4
 347 201 347 201 379 163.5 c 128,-1,5
 411 126 411 126 480 126 c 0,6,7
 544 126 544 126 607.5 157 c 128,-1,8
 671 188 671 188 724.5 242 c 128,-1,9
 778 296 778 296 816.5 368 c 128,-1,10
 855 440 855 440 870 522 c 2,11,-1
 917 788 l 1,12,-1
 775 788 l 2,13,14
 741 788 741 788 729.5 803 c 128,-1,15
 718 818 718 818 724 856 c 0,16,17
 731 894 731 894 748 909 c 128,-1,18
 765 924 765 924 799 924 c 2,19,-1
 1028 924 l 2,20,21
 1062 924 1062 924 1074 909 c 128,-1,22
 1086 894 1086 894 1079 856 c 2,23,-1
 952 136 l 1,24,-1
 1034 136 l 2,25,26
 1068 136 1068 136 1080 121 c 128,-1,27
 1092 106 1092 106 1085 68 c 0,28,29
 1079 30 1079 30 1062 15 c 128,-1,30
 1045 0 1045 0 1011 0 c 2,31,-1
 851 0 l 2,32,33
 817 0 817 0 805 15 c 128,-1,34
 793 30 793 30 800 68 c 2,35,-1
 821 188 l 1,36,37
 736 85 736 85 642 31.5 c 128,-1,38
 548 -22 548 -22 449 -22 c 0,39,40
 389 -22 389 -22 341.5 -3.5 c 128,-1,41
 294 15 294 15 261.5 49 c 128,-1,42
 229 83 229 83 211.5 131 c 128,-1,43
 194 179 194 179 194 238 c 0,44,45
 194 256 194 256 195.5 275 c 128,-1,46
 197 294 197 294 201 314 c 2,47,-1
 285 788 l 1,48,-1
 203 788 l 2,49,50
 169 788 169 788 157.5 803 c 128,-1,51
 146 818 146 818 152 856 c 0,52,53
 159 894 159 894 176 909 c 128,-1,54
 193 924 193 924 227 924 c 2,55,-1
 396 924 l 2,56,57
 430 924 430 924 442 909 c 128,-1,58
 454 894 454 894 447 856 c 2,59,-1
 352 319 l 2,0,1
EndSplineSet
EndChar
StartChar: v
Encoding: 118 118 84
Width: 1228
Flags: W
LayerCount: 2
Back
Fore
SplineSet
181 788 m 2,0,1
 147 788 147 788 135.5 803 c 128,-1,2
 124 818 124 818 130 856 c 0,3,4
 137 894 137 894 154 909 c 128,-1,5
 171 924 171 924 205 924 c 2,6,-1
 559 924 l 2,7,8
 593 924 593 924 605 909 c 128,-1,9
 617 894 617 894 610 856 c 0,10,11
 604 818 604 818 586.5 803 c 128,-1,12
 569 788 569 788 535 788 c 2,13,-1
 403 788 l 1,14,-1
 561 136 l 1,15,-1
 952 788 l 1,16,-1
 869 788 l 2,17,18
 835 788 835 788 823.5 803 c 128,-1,19
 812 818 812 818 818 856 c 0,20,21
 825 894 825 894 842 909 c 128,-1,22
 859 924 859 924 893 924 c 2,23,-1
 1207 924 l 2,24,25
 1241 924 1241 924 1253 909 c 128,-1,26
 1265 894 1265 894 1258 856 c 0,27,28
 1252 818 1252 818 1234.5 803 c 128,-1,29
 1217 788 1217 788 1183 788 c 2,30,-1
 1124 788 l 1,31,-1
 670 43 l 2,32,33
 650 9 650 9 620.5 -6.5 c 128,-1,34
 591 -22 591 -22 541 -22 c 256,35,36
 491 -22 491 -22 467.5 -6 c 128,-1,37
 444 10 444 10 436 43 c 2,38,-1
 247 788 l 1,39,-1
 181 788 l 2,0,1
EndSplineSet
EndChar
StartChar: w
Encoding: 119 119 85
Width: 1228
Flags: W
LayerCount: 2
Back
Fore
SplineSet
121 788 m 2,0,1
 87 788 87 788 75.5 803 c 128,-1,2
 64 818 64 818 70 856 c 0,3,4
 77 894 77 894 94 909 c 128,-1,5
 111 924 111 924 145 924 c 2,6,-1
 439 924 l 2,7,8
 473 924 473 924 485 909 c 128,-1,9
 497 894 497 894 490 856 c 0,10,11
 484 818 484 818 466.5 803 c 128,-1,12
 449 788 449 788 415 788 c 2,13,-1
 289 788 l 1,14,-1
 331 206 l 1,15,-1
 580 670 l 2,16,17
 591 690 591 690 611 703.5 c 128,-1,18
 631 717 631 717 664 717 c 0,19,20
 698 717 698 717 714 707 c 128,-1,21
 730 697 730 697 734 677 c 2,22,-1
 817 206 l 1,23,-1
 1067 788 l 1,24,-1
 969 788 l 2,25,26
 935 788 935 788 923.5 803 c 128,-1,27
 912 818 912 818 918 856 c 0,28,29
 925 894 925 894 942 909 c 128,-1,30
 959 924 959 924 993 924 c 2,31,-1
 1267 924 l 2,32,33
 1301 924 1301 924 1313 909 c 128,-1,34
 1325 894 1325 894 1318 856 c 0,35,36
 1312 818 1312 818 1294.5 803 c 128,-1,37
 1277 788 1277 788 1243 788 c 2,38,-1
 1222 788 l 1,39,-1
 894 43 l 2,40,41
 878 7 878 7 856 -7.5 c 128,-1,42
 834 -22 834 -22 796 -22 c 0,43,44
 753 -22 753 -22 731 -6.5 c 128,-1,45
 709 9 709 9 703 43 c 2,46,-1
 627 477 l 1,47,-1
 395 43 l 2,48,49
 377 8 377 8 349 -7 c 128,-1,50
 321 -22 321 -22 278 -22 c 0,51,52
 240 -22 240 -22 223.5 -7 c 128,-1,53
 207 8 207 8 204 43 c 2,54,-1
 142 788 l 1,55,-1
 121 788 l 2,0,1
EndSplineSet
EndChar
StartChar: x
Encoding: 120 120 86
Width: 1228
Flags: W
LayerCount: 2
Back
Fore
SplineSet
474 788 m 1,0,-1
 644 561 l 1,1,-1
 893 788 l 1,2,-1
 849 788 l 2,3,4
 815 788 815 788 803.5 803 c 128,-1,5
 792 818 792 818 798 856 c 0,6,7
 805 894 805 894 822 909 c 128,-1,8
 839 924 839 924 873 924 c 2,9,-1
 1177 924 l 2,10,11
 1211 924 1211 924 1223 909 c 128,-1,12
 1235 894 1235 894 1228 856 c 0,13,14
 1222 818 1222 818 1204.5 803 c 128,-1,15
 1187 788 1187 788 1153 788 c 2,16,-1
 1086 788 l 1,17,-1
 731 473 l 1,18,-1
 991 136 l 1,19,-1
 1048 136 l 2,20,21
 1082 136 1082 136 1094 121 c 128,-1,22
 1106 106 1106 106 1099 68 c 0,23,24
 1093 30 1093 30 1076 15 c 128,-1,25
 1059 0 1059 0 1025 0 c 2,26,-1
 681 0 l 2,27,28
 647 0 647 0 635 15 c 128,-1,29
 623 30 623 30 629 68 c 0,30,31
 636 106 636 106 653 121 c 128,-1,32
 670 136 670 136 704 136 c 2,33,-1
 805 136 l 1,34,-1
 613 390 l 1,35,-1
 332 136 l 1,36,-1
 400 136 l 2,37,38
 434 136 434 136 446 121 c 128,-1,39
 458 106 458 106 451 68 c 0,40,41
 445 30 445 30 428 15 c 128,-1,42
 411 0 411 0 377 0 c 2,43,-1
 63 0 l 2,44,45
 29 0 29 0 17 15 c 128,-1,46
 5 30 5 30 11 68 c 0,47,48
 18 106 18 106 35 121 c 128,-1,49
 52 136 52 136 86 136 c 2,50,-1
 138 136 l 1,51,-1
 525 479 l 1,52,-1
 288 788 l 1,53,-1
 211 788 l 2,54,55
 177 788 177 788 165.5 803 c 128,-1,56
 154 818 154 818 160 856 c 0,57,58
 167 894 167 894 184 909 c 128,-1,59
 201 924 201 924 235 924 c 2,60,-1
 579 924 l 2,61,62
 613 924 613 924 625 909 c 128,-1,63
 637 894 637 894 630 856 c 0,64,65
 624 818 624 818 606.5 803 c 128,-1,66
 589 788 589 788 555 788 c 2,67,-1
 474 788 l 1,0,-1
EndSplineSet
EndChar
StartChar: y
Encoding: 121 121 169
Width: 1228
Flags: W
LayerCount: 2
Back
Fore
SplineSet
1207 924 m 2,0,1
 1241 924 1241 924 1253 909 c 128,-1,2
 1265 894 1265 894 1258 856 c 0,3,4
 1252 818 1252 818 1234.5 803 c 128,-1,5
 1217 788 1217 788 1183 788 c 2,6,-1
 1124 788 l 1,7,-1
 568 -50 l 2,8,9
 503 -149 503 -149 446 -217 c 128,-1,10
 389 -285 389 -285 330 -327.5 c 128,-1,11
 271 -370 271 -370 205 -390.5 c 128,-1,12
 139 -411 139 -411 56 -414 c 0,13,14
 26 -415 26 -415 5.5 -401 c 128,-1,15
 -15 -387 -15 -387 -15 -347 c 0,16,17
 -15 -303 -15 -303 2.5 -284 c 128,-1,18
 20 -265 20 -265 47 -263 c 0,19,20
 117 -259 117 -259 168.5 -243.5 c 128,-1,21
 220 -228 220 -228 267.5 -190 c 128,-1,22
 315 -152 315 -152 365.5 -87.5 c 128,-1,23
 416 -23 416 -23 484 78 c 1,24,-1
 247 788 l 1,25,-1
 181 788 l 2,26,27
 147 788 147 788 135.5 803 c 128,-1,28
 124 818 124 818 130 856 c 0,29,30
 137 894 137 894 154 909 c 128,-1,31
 171 924 171 924 205 924 c 2,32,-1
 559 924 l 2,33,34
 593 924 593 924 605 909 c 128,-1,35
 617 894 617 894 610 856 c 0,36,37
 604 818 604 818 586.5 803 c 128,-1,38
 569 788 569 788 535 788 c 2,39,-1
 403 788 l 1,40,-1
 586 226 l 1,41,-1
 954 788 l 1,42,-1
 869 788 l 2,43,44
 835 788 835 788 823.5 803 c 128,-1,45
 812 818 812 818 818 856 c 0,46,47
 825 894 825 894 842 909 c 128,-1,48
 859 924 859 924 893 924 c 2,49,-1
 1207 924 l 2,0,1
EndSplineSet
EndChar
StartChar: z
Encoding: 122 122 87
Width: 1228
Flags: W
LayerCount: 2
Back
Fore
SplineSet
863 136 m 1,0,-1
 894 308 l 2,1,2
 900 343 900 343 919 358 c 128,-1,3
 938 373 938 373 980 373 c 256,4,5
 1022 373 1022 373 1036 358 c 128,-1,6
 1050 343 1050 343 1044 308 c 2,7,-1
 1001 68 l 2,8,9
 994 30 994 30 977.5 15 c 128,-1,10
 961 0 961 0 927 0 c 2,11,-1
 181 0 l 2,12,13
 147 0 147 0 135 15 c 128,-1,14
 123 30 123 30 129 68 c 0,15,16
 134 97 134 97 151 113 c 2,17,-1
 852 788 l 1,18,-1
 406 788 l 1,19,-1
 380 639 l 2,20,21
 374 604 374 604 355 589 c 128,-1,22
 336 574 336 574 294 574 c 256,23,24
 252 574 252 574 238 589 c 128,-1,25
 224 604 224 604 230 639 c 2,26,-1
 268 856 l 2,27,28
 275 894 275 894 292 909 c 128,-1,29
 309 924 309 924 343 924 c 2,30,-1
 1059 924 l 2,31,32
 1093 924 1093 924 1105 909 c 128,-1,33
 1117 894 1117 894 1110 856 c 0,34,35
 1108 840 1108 840 1101.5 829 c 128,-1,36
 1095 818 1095 818 1087 810 c 2,37,-1
 387 136 l 1,38,-1
 863 136 l 1,0,-1
EndSplineSet
EndChar
StartChar: braceleft
Encoding: 123 123 88
Width: 1228
Flags: W
LayerCount: 2
Back
Fore
SplineSet
502 482 m 1,0,1
 568 438 568 438 592.5 366.5 c 128,-1,2
 617 295 617 295 600 203 c 2,3,-1
 563 -8 l 2,4,5
 551 -75 551 -75 555 -122.5 c 128,-1,6
 559 -170 559 -170 579 -200 c 128,-1,7
 599 -230 599 -230 637 -243.5 c 128,-1,8
 675 -257 675 -257 731 -257 c 0,9,10
 765 -257 765 -257 777 -272 c 128,-1,11
 789 -287 789 -287 782 -325 c 256,12,13
 775 -363 775 -363 758 -378 c 128,-1,14
 741 -393 741 -393 707 -393 c 0,15,16
 534 -393 534 -393 457 -293.5 c 128,-1,17
 380 -194 380 -194 414 -3 c 2,18,-1
 449 193 l 2,19,20
 468 302 468 302 425.5 357.5 c 128,-1,21
 383 413 383 413 272 413 c 0,22,23
 238 413 238 413 226 428 c 128,-1,24
 214 443 214 443 221 481 c 256,25,26
 228 519 228 519 245 534 c 128,-1,27
 262 549 262 549 296 549 c 0,28,29
 407 549 407 549 469 605 c 128,-1,30
 531 661 531 661 550 770 c 2,31,-1
 583 956 l 2,32,33
 600 1051 600 1051 635.5 1118.5 c 128,-1,34
 671 1186 671 1186 725 1229 c 128,-1,35
 779 1272 779 1272 850 1292 c 128,-1,36
 921 1312 921 1312 1008 1312 c 0,37,38
 1042 1312 1042 1312 1054 1297 c 128,-1,39
 1066 1282 1066 1282 1059 1244 c 256,40,41
 1052 1206 1052 1206 1035 1191 c 128,-1,42
 1018 1176 1018 1176 984 1176 c 0,43,44
 874 1176 874 1176 812 1116 c 128,-1,45
 750 1056 750 1056 728 927 c 2,46,-1
 699 760 l 2,47,48
 682 668 682 668 632.5 597 c 128,-1,49
 583 526 583 526 502 482 c 1,0,1
EndSplineSet
EndChar
StartChar: bar
Encoding: 124 124 89
Width: 1228
Flags: W
LayerCount: 2
Back
Fore
SplineSet
692 1269 m 2,0,1
 698 1304 698 1304 717.5 1319 c 128,-1,2
 737 1334 737 1334 779 1334 c 256,3,4
 821 1334 821 1334 834.5 1319 c 128,-1,5
 848 1304 848 1304 842 1269 c 2,6,-1
 557 -350 l 2,7,8
 551 -385 551 -385 531.5 -400 c 128,-1,9
 512 -415 512 -415 470 -415 c 256,10,11
 428 -415 428 -415 414.5 -400 c 128,-1,12
 401 -385 401 -385 407 -350 c 2,13,-1
 692 1269 l 2,0,1
EndSplineSet
EndChar
StartChar: braceright
Encoding: 125 125 90
Width: 1228
Flags: W
LayerCount: 2
Back
Fore
SplineSet
754 480 m 1,0,1
 688 524 688 524 663.5 595.5 c 128,-1,2
 639 667 639 667 656 759 c 2,3,-1
 686 927 l 2,4,5
 698 994 698 994 694 1041.5 c 128,-1,6
 690 1089 690 1089 670 1119 c 128,-1,7
 650 1149 650 1149 612 1162.5 c 128,-1,8
 574 1176 574 1176 518 1176 c 0,9,10
 484 1176 484 1176 472 1191 c 128,-1,11
 460 1206 460 1206 467 1244 c 256,12,13
 474 1282 474 1282 491 1297 c 128,-1,14
 508 1312 508 1312 542 1312 c 0,15,16
 714 1312 714 1312 791.5 1212 c 128,-1,17
 869 1112 869 1112 835 922 c 2,18,-1
 807 769 l 2,19,20
 788 660 788 660 830.5 604.5 c 128,-1,21
 873 549 873 549 984 549 c 0,22,23
 1018 549 1018 549 1030 534 c 128,-1,24
 1042 519 1042 519 1035 481 c 256,25,26
 1028 443 1028 443 1011 428 c 128,-1,27
 994 413 994 413 960 413 c 0,28,29
 849 413 849 413 787 357 c 128,-1,30
 725 301 725 301 706 192 c 2,31,-1
 666 -37 l 2,32,33
 649 -132 649 -132 613.5 -199.5 c 128,-1,34
 578 -267 578 -267 524 -310 c 128,-1,35
 470 -353 470 -353 399 -373 c 128,-1,36
 328 -393 328 -393 241 -393 c 0,37,38
 207 -393 207 -393 195 -378 c 128,-1,39
 183 -363 183 -363 190 -325 c 256,40,41
 197 -287 197 -287 214 -272 c 128,-1,42
 231 -257 231 -257 265 -257 c 0,43,44
 374 -257 374 -257 436 -197 c 128,-1,45
 498 -137 498 -137 521 -8 c 2,46,-1
 557 202 l 2,47,48
 574 294 574 294 623.5 365 c 128,-1,49
 673 436 673 436 754 480 c 1,0,1
EndSplineSet
EndChar
StartChar: asciitilde
Encoding: 126 126 91
Width: 1228
Flags: W
LayerCount: 2
Back
Fore
SplineSet
1091 561 m 0,0,1
 1017 505 1017 505 953 483.5 c 128,-1,2
 889 462 889 462 832 462 c 0,3,4
 778 462 778 462 728.5 475.5 c 128,-1,5
 679 489 679 489 631 505 c 128,-1,6
 583 521 583 521 535.5 534.5 c 128,-1,7
 488 548 488 548 438 548 c 0,8,9
 396 548 396 548 352 535 c 128,-1,10
 308 522 308 522 259 490 c 0,11,12
 240 478 240 478 221 487.5 c 128,-1,13
 202 497 202 497 191 517 c 0,14,15
 179 537 179 537 179.5 561.5 c 128,-1,16
 180 586 180 586 200 601 c 0,17,18
 274 657 274 657 338 678.5 c 128,-1,19
 402 700 402 700 460 700 c 0,20,21
 514 700 514 700 563.5 686.5 c 128,-1,22
 613 673 613 673 661 657 c 128,-1,23
 709 641 709 641 756.5 627.5 c 128,-1,24
 804 614 804 614 854 614 c 0,25,26
 896 614 896 614 940 627 c 128,-1,27
 984 640 984 640 1033 672 c 0,28,29
 1053 685 1053 685 1071.5 674 c 128,-1,30
 1090 663 1090 663 1101 643 c 256,31,32
 1112 623 1112 623 1111.5 599.5 c 128,-1,33
 1111 576 1111 576 1091 561 c 0,0,1
EndSplineSet
EndChar
StartChar: exclamdown
Encoding: 161 161 117
Width: 1228
Flags: W
LayerCount: 2
Back
Fore
SplineSet
743 1209 m 0,0,1
 772 1209 772 1209 796.5 1198.5 c 128,-1,2
 821 1188 821 1188 838.5 1170 c 128,-1,3
 856 1152 856 1152 865.5 1128 c 128,-1,4
 875 1104 875 1104 875 1077 c 0,5,6
 875 1041 875 1041 860 1009 c 128,-1,7
 845 977 845 977 820 953 c 128,-1,8
 795 929 795 929 763 915 c 128,-1,9
 731 901 731 901 697 901 c 0,10,11
 668 901 668 901 643.5 911.5 c 128,-1,12
 619 922 619 922 601.5 940 c 128,-1,13
 584 958 584 958 574.5 982 c 128,-1,14
 565 1006 565 1006 565 1034 c 0,15,16
 565 1070 565 1070 580 1102 c 128,-1,17
 595 1134 595 1134 619.5 1157.5 c 128,-1,18
 644 1181 644 1181 676 1195 c 128,-1,19
 708 1209 708 1209 743 1209 c 0,0,1
485 -22 m 2,20,21
 440 -22 440 -22 453 28 c 2,22,-1
 616 675 l 2,23,24
 628 723 628 723 682 723 c 0,25,26
 708 723 708 723 720.5 710.5 c 128,-1,27
 733 698 733 698 731 675 c 2,28,-1
 665 28 l 2,29,30
 661 -22 661 -22 615 -22 c 2,31,-1
 485 -22 l 2,20,21
EndSplineSet
EndChar
StartChar: cent
Encoding: 162 162 96
Width: 1228
Flags: W
LayerCount: 2
Back
Fore
SplineSet
936 378 m 0,0,1
 959 394 959 394 984 390 c 128,-1,2
 1009 386 1009 386 1029 351 c 0,3,4
 1066 285 1066 285 1004 245 c 0,5,6
 925 194 925 194 829.5 161.5 c 128,-1,7
 734 129 734 129 635 120 c 1,8,-1
 603 -60 l 2,9,10
 597 -95 597 -95 577.5 -110 c 128,-1,11
 558 -125 558 -125 521 -125 c 256,12,13
 484 -125 484 -125 470.5 -110 c 128,-1,14
 457 -95 457 -95 463 -60 c 2,15,-1
 495 123 l 1,16,17
 415 134 415 134 352.5 168.5 c 128,-1,18
 290 203 290 203 246.5 255 c 128,-1,19
 203 307 203 307 180 374.5 c 128,-1,20
 157 442 157 442 157 520 c 0,21,22
 157 623 157 623 193 719.5 c 128,-1,23
 229 816 229 816 295.5 893 c 128,-1,24
 362 970 362 970 455.5 1020.5 c 128,-1,25
 549 1071 549 1071 664 1083 c 1,26,-1
 693 1247 l 2,27,28
 699 1282 699 1282 718.5 1297 c 128,-1,29
 738 1312 738 1312 775 1312 c 256,30,31
 812 1312 812 1312 825.5 1297 c 128,-1,32
 839 1282 839 1282 833 1247 c 2,33,-1
 803 1078 l 1,34,35
 867 1064 867 1064 916 1031.5 c 128,-1,36
 965 999 965 999 996 951 c 1,37,-1
 1009 1021 l 2,38,39
 1016 1056 1016 1056 1034.5 1071 c 128,-1,40
 1053 1086 1053 1086 1095 1086 c 256,41,42
 1137 1086 1137 1086 1151 1071 c 128,-1,43
 1165 1056 1165 1056 1159 1021 c 2,44,-1
 1108 731 l 2,45,46
 1102 696 1102 696 1084 681 c 128,-1,47
 1066 666 1066 666 1024 666 c 256,48,49
 982 666 982 666 968 681 c 128,-1,50
 954 696 954 696 959 731 c 0,51,52
 970 811 970 811 925.5 865.5 c 128,-1,53
 881 920 881 920 778 934 c 1,54,-1
 661 271 l 1,55,56
 733 280 733 280 802 307 c 128,-1,57
 871 334 871 334 936 378 c 0,0,1
315 531 m 0,58,59
 315 480 315 480 329 436.5 c 128,-1,60
 343 393 343 393 369 359.5 c 128,-1,61
 395 326 395 326 433.5 303.5 c 128,-1,62
 472 281 472 281 521 272 c 1,63,-1
 637 930 l 1,64,65
 566 916 566 916 507 879 c 128,-1,66
 448 842 448 842 405 788.5 c 128,-1,67
 362 735 362 735 338.5 669 c 128,-1,68
 315 603 315 603 315 531 c 0,58,59
EndSplineSet
EndChar
StartChar: sterling
Encoding: 163 163 97
Width: 1228
Flags: W
LayerCount: 2
Back
Fore
SplineSet
412 620 m 1,0,1
 404 646 404 646 394.5 672 c 128,-1,2
 385 698 385 698 377.5 725 c 128,-1,3
 370 752 370 752 365 780.5 c 128,-1,4
 360 809 360 809 360 839 c 0,5,6
 360 903 360 903 385.5 969 c 128,-1,7
 411 1035 411 1035 460.5 1088.5 c 128,-1,8
 510 1142 510 1142 583 1175.5 c 128,-1,9
 656 1209 656 1209 751 1209 c 0,10,11
 845 1209 845 1209 926.5 1181 c 128,-1,12
 1008 1153 1008 1153 1065 1105 c 0,13,14
 1083 1090 1083 1090 1077 1051 c 2,15,-1
 1054 924 l 2,16,17
 1048 889 1048 889 1029 874 c 128,-1,18
 1010 859 1010 859 968 859 c 256,19,20
 926 859 926 859 912 874 c 128,-1,21
 898 889 898 889 904 924 c 2,22,-1
 920 1014 l 1,23,24
 888 1036 888 1036 841 1048.5 c 128,-1,25
 794 1061 794 1061 734 1061 c 0,26,27
 680 1061 680 1061 638.5 1040 c 128,-1,28
 597 1019 597 1019 569.5 986.5 c 128,-1,29
 542 954 542 954 527.5 914 c 128,-1,30
 513 874 513 874 513 837 c 0,31,32
 513 810 513 810 518.5 783.5 c 128,-1,33
 524 757 524 757 532.5 731 c 128,-1,34
 541 705 541 705 551 677.5 c 128,-1,35
 561 650 561 650 569 620 c 1,36,-1
 884 620 l 2,37,38
 918 620 918 620 930 605 c 128,-1,39
 942 590 942 590 935 552 c 256,40,41
 928 514 928 514 911 499 c 128,-1,42
 894 484 894 484 860 484 c 2,43,-1
 583 484 l 1,44,45
 576 381 576 381 524 294 c 128,-1,46
 472 207 472 207 389 135 c 1,47,48
 427 148 427 148 458.5 153 c 128,-1,49
 490 158 490 158 518 158 c 0,50,51
 552 158 552 158 580.5 152.5 c 128,-1,52
 609 147 609 147 635.5 140.5 c 128,-1,53
 662 134 662 134 687.5 128.5 c 128,-1,54
 713 123 713 123 740 123 c 0,55,56
 774 123 774 123 812.5 135 c 128,-1,57
 851 147 851 147 901 179 c 0,58,59
 921 192 921 192 941 181 c 128,-1,60
 961 170 961 170 974 148 c 0,61,62
 987 125 987 125 985.5 99 c 128,-1,63
 984 73 984 73 959 56 c 0,64,65
 889 10 889 10 836.5 -6 c 128,-1,66
 784 -22 784 -22 739 -22 c 0,67,68
 706 -22 706 -22 675.5 -16 c 128,-1,69
 645 -10 645 -10 613.5 -3.5 c 128,-1,70
 582 3 582 3 547 9 c 128,-1,71
 512 15 512 15 471 15 c 0,72,73
 425 15 425 15 369 4.5 c 128,-1,74
 313 -6 313 -6 241 -34 c 0,75,76
 219 -42 219 -42 198 -30.5 c 128,-1,77
 177 -19 177 -19 163 1 c 0,78,79
 147 24 147 24 144.5 50.5 c 128,-1,80
 142 77 142 77 161 92 c 0,81,82
 221 139 221 139 270 185 c 128,-1,83
 319 231 319 231 354 279 c 128,-1,84
 389 327 389 327 409 377.5 c 128,-1,85
 429 428 429 428 432 484 c 1,86,-1
 288 484 l 2,87,88
 254 484 254 484 242 499 c 128,-1,89
 230 514 230 514 237 552 c 256,90,91
 244 590 244 590 261 605 c 128,-1,92
 278 620 278 620 312 620 c 2,93,-1
 412 620 l 1,0,1
EndSplineSet
EndChar
StartChar: yen
Encoding: 165 165 227
Width: 1228
Flags: W
LayerCount: 2
Back
Fore
SplineSet
551 510 m 1,0,-1
 474 684 l 1,1,-1
 263 684 l 2,2,3
 229 684 229 684 217 699 c 128,-1,4
 205 714 205 714 212 752 c 256,5,6
 219 790 219 790 236 805 c 128,-1,7
 253 820 253 820 287 820 c 2,8,-1
 414 820 l 1,9,-1
 312 1051 l 1,10,-1
 238 1051 l 2,11,12
 204 1051 204 1051 192 1066 c 128,-1,13
 180 1081 180 1081 187 1119 c 256,14,15
 194 1157 194 1157 211 1172 c 128,-1,16
 228 1187 228 1187 262 1187 c 2,17,-1
 596 1187 l 2,18,19
 630 1187 630 1187 642 1172 c 128,-1,20
 654 1157 654 1157 647 1119 c 256,21,22
 640 1081 640 1081 623 1066 c 128,-1,23
 606 1051 606 1051 572 1051 c 2,24,-1
 475 1051 l 1,25,-1
 653 642 l 1,26,-1
 977 1051 l 1,27,-1
 916 1051 l 2,28,29
 882 1051 882 1051 870 1066 c 128,-1,30
 858 1081 858 1081 865 1119 c 256,31,32
 872 1157 872 1157 889 1172 c 128,-1,33
 906 1187 906 1187 940 1187 c 2,34,-1
 1244 1187 l 2,35,36
 1278 1187 1278 1187 1290 1172 c 128,-1,37
 1302 1157 1302 1157 1295 1119 c 256,38,39
 1288 1081 1288 1081 1271 1066 c 128,-1,40
 1254 1051 1254 1051 1220 1051 c 2,41,-1
 1156 1051 l 1,42,-1
 971 820 l 1,43,-1
 1089 820 l 2,44,45
 1123 820 1123 820 1135 805 c 128,-1,46
 1147 790 1147 790 1140 752 c 256,47,48
 1133 714 1133 714 1116 699 c 128,-1,49
 1099 684 1099 684 1065 684 c 2,50,-1
 862 684 l 1,51,-1
 723 510 l 1,52,-1
 1014 510 l 2,53,54
 1048 510 1048 510 1060 495 c 128,-1,55
 1072 480 1072 480 1065 442 c 0,56,57
 1059 404 1059 404 1041.5 389 c 128,-1,58
 1024 374 1024 374 990 374 c 2,59,-1
 684 374 l 1,60,-1
 642 136 l 1,61,-1
 878 136 l 2,62,63
 912 136 912 136 924 121 c 128,-1,64
 936 106 936 106 929 68 c 0,65,66
 923 30 923 30 906 15 c 128,-1,67
 889 0 889 0 855 0 c 2,68,-1
 253 0 l 2,69,70
 219 0 219 0 207 15 c 128,-1,71
 195 30 195 30 201 68 c 0,72,73
 208 106 208 106 225 121 c 128,-1,74
 242 136 242 136 276 136 c 2,75,-1
 492 136 l 1,76,-1
 534 374 l 1,77,-1
 228 374 l 2,78,79
 194 374 194 374 182.5 389 c 128,-1,80
 171 404 171 404 177 442 c 0,81,82
 184 480 184 480 201 495 c 128,-1,83
 218 510 218 510 252 510 c 2,84,-1
 551 510 l 1,0,-1
EndSplineSet
EndChar
StartChar: brokenbar
Encoding: 166 166 152
Width: 1228
Flags: W
LayerCount: 2
Back
Fore
SplineSet
516 269 m 2,0,1
 522 304 522 304 541 319 c 128,-1,2
 560 334 560 334 602 334 c 256,3,4
 644 334 644 334 658 319 c 128,-1,5
 672 304 672 304 666 269 c 2,6,-1
 557 -350 l 2,7,8
 551 -385 551 -385 531.5 -400 c 128,-1,9
 512 -415 512 -415 470 -415 c 256,10,11
 428 -415 428 -415 414.5 -400 c 128,-1,12
 401 -385 401 -385 407 -350 c 2,13,-1
 516 269 l 2,0,1
692 1269 m 2,14,15
 698 1304 698 1304 717.5 1319 c 128,-1,16
 737 1334 737 1334 779 1334 c 256,17,18
 821 1334 821 1334 834.5 1319 c 128,-1,19
 848 1304 848 1304 842 1269 c 2,20,-1
 733 650 l 2,21,22
 727 615 727 615 708 600 c 128,-1,23
 689 585 689 585 647 585 c 256,24,25
 605 585 605 585 591 600 c 128,-1,26
 577 615 577 615 583 650 c 2,27,-1
 692 1269 l 2,14,15
EndSplineSet
EndChar
StartChar: section
Encoding: 167 167 98
Width: 1228
Flags: W
LayerCount: 2
Back
Fore
SplineSet
710 1051 m 2,0,1
 638 1051 638 1051 598.5 1023.5 c 128,-1,2
 559 996 559 996 550 943 c 0,3,4
 541 889 541 889 564 846.5 c 128,-1,5
 587 804 587 804 643 766 c 2,6,-1
 905 584 l 2,7,8
 974 536 974 536 1012 470.5 c 128,-1,9
 1050 405 1050 405 1035 318 c 0,10,11
 1022 250 1022 250 977 203 c 128,-1,12
 932 156 932 156 856 109 c 1,13,14
 867 56 867 56 857 0 c 0,15,16
 839 -105 839 -105 762.5 -167.5 c 128,-1,17
 686 -230 686 -230 548 -230 c 2,18,-1
 192 -230 l 2,19,20
 158 -230 158 -230 146 -215 c 128,-1,21
 134 -200 134 -200 141 -162 c 2,22,-1
 179 55 l 2,23,24
 185 90 185 90 204.5 105 c 128,-1,25
 224 120 224 120 266 120 c 256,26,27
 308 120 308 120 321.5 105 c 128,-1,28
 335 90 335 90 329 55 c 2,29,-1
 303 -94 l 1,30,-1
 546 -94 l 2,31,32
 618 -94 618 -94 657.5 -66.5 c 128,-1,33
 697 -39 697 -39 706 14 c 0,34,35
 715 68 715 68 692 110.5 c 128,-1,36
 669 153 669 153 613 191 c 2,37,-1
 351 373 l 2,38,39
 282 421 282 421 244 486.5 c 128,-1,40
 206 552 206 552 221 639 c 0,41,42
 233 706 233 706 278 753 c 128,-1,43
 323 800 323 800 400 847 c 1,44,45
 395 873 395 873 394.5 900.5 c 128,-1,46
 394 928 394 928 399 957 c 0,47,48
 417 1062 417 1062 493.5 1124.5 c 128,-1,49
 570 1187 570 1187 708 1187 c 2,50,-1
 1064 1187 l 2,51,52
 1098 1187 1098 1187 1110 1172 c 128,-1,53
 1122 1157 1122 1157 1115 1119 c 2,54,-1
 1081 922 l 2,55,56
 1075 887 1075 887 1055.5 872 c 128,-1,57
 1036 857 1036 857 994 857 c 256,58,59
 952 857 952 857 938.5 872 c 128,-1,60
 925 887 925 887 931 922 c 2,61,-1
 953 1051 l 1,62,-1
 710 1051 l 2,0,1
706 313 m 2,63,64
 762 274 762 274 798 228 c 1,65,66
 835 251 835 251 856.5 275.5 c 128,-1,67
 878 300 878 300 883 332 c 0,68,69
 891 374 891 374 873 403 c 128,-1,70
 855 432 855 432 812 462 c 2,71,-1
 550 644 l 2,72,73
 523 663 523 663 499.5 684 c 128,-1,74
 476 705 476 705 457 729 c 1,75,76
 421 706 421 706 399.5 681.5 c 128,-1,77
 378 657 378 657 373 625 c 0,78,79
 365 583 365 583 383 554 c 128,-1,80
 401 525 401 525 444 495 c 2,81,-1
 706 313 l 2,63,64
EndSplineSet
EndChar
StartChar: dieresis
Encoding: 168 168 106
Width: 1228
Flags: W
LayerCount: 2
Back
Fore
SplineSet
516 1070 m 0,0,1
 468 1070 468 1070 438 1101.5 c 128,-1,2
 408 1133 408 1133 408 1178 c 0,3,4
 408 1207 408 1207 420 1232.5 c 128,-1,5
 432 1258 432 1258 452.5 1277.5 c 128,-1,6
 473 1297 473 1297 499 1308.5 c 128,-1,7
 525 1320 525 1320 553 1320 c 0,8,9
 601 1320 601 1320 630.5 1289 c 128,-1,10
 660 1258 660 1258 660 1213 c 0,11,12
 660 1183 660 1183 648 1157 c 128,-1,13
 636 1131 636 1131 616 1111.5 c 128,-1,14
 596 1092 596 1092 570 1081 c 128,-1,15
 544 1070 544 1070 516 1070 c 0,0,1
956 1070 m 0,16,17
 908 1070 908 1070 878 1101.5 c 128,-1,18
 848 1133 848 1133 848 1178 c 0,19,20
 848 1207 848 1207 860 1232.5 c 128,-1,21
 872 1258 872 1258 892.5 1277.5 c 128,-1,22
 913 1297 913 1297 939 1308.5 c 128,-1,23
 965 1320 965 1320 993 1320 c 0,24,25
 1041 1320 1041 1320 1070.5 1289 c 128,-1,26
 1100 1258 1100 1258 1100 1213 c 0,27,28
 1100 1183 1100 1183 1088 1157 c 128,-1,29
 1076 1131 1076 1131 1056 1111.5 c 128,-1,30
 1036 1092 1036 1092 1010 1081 c 128,-1,31
 984 1070 984 1070 956 1070 c 0,16,17
EndSplineSet
EndChar
StartChar: copyright
Encoding: 169 169 103
Width: 1228
Flags: W
LayerCount: 2
Back
Fore
SplineSet
714 937 m 0,0,1
 759 937 759 937 803.5 927 c 128,-1,2
 848 917 848 917 887 897 c 0,3,4
 913 883 913 883 921 863.5 c 128,-1,5
 929 844 929 844 913 812 c 256,6,7
 897 780 897 780 878 774 c 128,-1,8
 859 768 859 768 836 779 c 0,9,10
 803 796 803 796 771.5 803.5 c 128,-1,11
 740 811 740 811 702 811 c 0,12,13
 657 811 657 811 616.5 792 c 128,-1,14
 576 773 576 773 544 735 c 0,15,16
 512 696 512 696 494 642.5 c 128,-1,17
 476 589 476 589 476 535 c 0,18,19
 476 455 476 455 518 415 c 128,-1,20
 560 375 560 375 625 375 c 0,21,22
 663 375 663 375 697 382.5 c 128,-1,23
 731 390 731 390 770 407 c 0,24,25
 797 418 797 418 813 411 c 128,-1,26
 829 404 829 404 839 372 c 256,27,28
 849 340 849 340 840 321.5 c 128,-1,29
 831 303 831 303 799 289 c 0,30,31
 754 269 754 269 705.5 259 c 128,-1,32
 657 249 657 249 612 249 c 0,33,34
 552 249 552 249 503 268 c 128,-1,35
 454 287 454 287 418.5 323 c 128,-1,36
 383 359 383 359 363.5 410.5 c 128,-1,37
 344 462 344 462 344 526 c 0,38,39
 344 564 344 564 351 605 c 128,-1,40
 358 646 358 646 371.5 685.5 c 128,-1,41
 385 725 385 725 406 762 c 128,-1,42
 427 799 427 799 456 829 c 0,43,44
 506 883 506 883 571.5 910 c 128,-1,45
 637 937 637 937 714 937 c 0,0,1
550 -22 m 0,46,47
 438 -22 438 -22 347.5 16.5 c 128,-1,48
 257 55 257 55 193.5 123 c 128,-1,49
 130 191 130 191 95.5 283.5 c 128,-1,50
 61 376 61 376 61 484 c 0,51,52
 61 584 61 584 86 676.5 c 128,-1,53
 111 769 111 769 156.5 849.5 c 128,-1,54
 202 930 202 930 265 996 c 128,-1,55
 328 1062 328 1062 404 1109.5 c 128,-1,56
 480 1157 480 1157 567 1183 c 128,-1,57
 654 1209 654 1209 747 1209 c 0,58,59
 859 1209 859 1209 949.5 1170.5 c 128,-1,60
 1040 1132 1040 1132 1103.5 1064.5 c 128,-1,61
 1167 997 1167 997 1201 904.5 c 128,-1,62
 1235 812 1235 812 1235 705 c 0,63,64
 1235 605 1235 605 1210 512.5 c 128,-1,65
 1185 420 1185 420 1140 339 c 128,-1,66
 1095 258 1095 258 1032 191.5 c 128,-1,67
 969 125 969 125 893 77.5 c 128,-1,68
 817 30 817 30 730 4 c 128,-1,69
 643 -22 643 -22 550 -22 c 0,46,47
561 98 m 0,70,71
 636 98 636 98 706 119 c 128,-1,72
 776 140 776 140 837.5 179 c 128,-1,73
 899 218 899 218 950 273 c 128,-1,74
 1001 328 1001 328 1037.5 395 c 128,-1,75
 1074 462 1074 462 1094 539.5 c 128,-1,76
 1114 617 1114 617 1114 702 c 0,77,78
 1114 788 1114 788 1088 859 c 128,-1,79
 1062 930 1062 930 1013 981 c 128,-1,80
 964 1032 964 1032 894 1060.5 c 128,-1,81
 824 1089 824 1089 736 1089 c 0,82,83
 624 1089 624 1089 523.5 1042.5 c 128,-1,84
 423 996 423 996 347 915 c 128,-1,85
 271 834 271 834 226.5 724 c 128,-1,86
 182 614 182 614 182 487 c 0,87,88
 182 401 182 401 208 329.5 c 128,-1,89
 234 258 234 258 283 206.5 c 128,-1,90
 332 155 332 155 402 126.5 c 128,-1,91
 472 98 472 98 561 98 c 0,70,71
EndSplineSet
EndChar
StartChar: ordfeminine
Encoding: 170 170 112
Width: 1228
Flags: W
LayerCount: 2
Back
Fore
SplineSet
599 597 m 0,0,1
 667 597 667 597 717.5 621.5 c 128,-1,2
 768 646 768 646 801 687.5 c 128,-1,3
 834 729 834 729 850.5 783.5 c 128,-1,4
 867 838 867 838 867 898 c 0,5,6
 867 990 867 990 819.5 1033.5 c 128,-1,7
 772 1077 772 1077 685 1077 c 0,8,9
 628 1077 628 1077 581 1051.5 c 128,-1,10
 534 1026 534 1026 501 983 c 128,-1,11
 468 940 468 940 450 885 c 128,-1,12
 432 830 432 830 432 770 c 0,13,14
 432 687 432 687 476.5 642 c 128,-1,15
 521 597 521 597 599 597 c 0,0,1
952 483 m 2,16,17
 858 483 858 483 844 582 c 1,18,19
 785 519 785 519 719 492 c 128,-1,20
 653 465 653 465 579 465 c 0,21,22
 517 465 517 465 464 486 c 128,-1,23
 411 507 411 507 372 545.5 c 128,-1,24
 333 584 333 584 311 639 c 128,-1,25
 289 694 289 694 289 763 c 0,26,27
 289 813 289 813 300 865.5 c 128,-1,28
 311 918 311 918 333.5 967.5 c 128,-1,29
 356 1017 356 1017 390 1061 c 128,-1,30
 424 1105 424 1105 469 1138 c 128,-1,31
 514 1171 514 1171 570 1190 c 128,-1,32
 626 1209 626 1209 694 1209 c 0,33,34
 775 1209 775 1209 828.5 1174.5 c 128,-1,35
 882 1140 882 1140 910 1083 c 1,36,-1
 923 1150 l 2,37,38
 928 1176 928 1176 941.5 1188 c 128,-1,39
 955 1200 955 1200 995 1200 c 256,40,41
 1035 1200 1035 1200 1045.5 1188 c 128,-1,42
 1056 1176 1056 1176 1051 1150 c 2,43,-1
 964 657 l 2,44,45
 959 626 959 626 969.5 614 c 128,-1,46
 980 602 980 602 1005 602 c 2,47,-1
 1022 602 l 2,48,49
 1048 602 1048 602 1057 587.5 c 128,-1,50
 1066 573 1066 573 1060 541 c 0,51,52
 1055 509 1055 509 1041 496 c 128,-1,53
 1027 483 1027 483 1001 483 c 2,54,-1
 952 483 l 2,16,17
EndSplineSet
EndChar
StartChar: guillemotleft
Encoding: 171 171 121
Width: 1228
Flags: W
LayerCount: 2
Back
Fore
SplineSet
434 560 m 1,0,-1
 558 275 l 2,1,2
 569 250 569 250 552.5 231.5 c 128,-1,3
 536 213 536 213 510 204 c 256,4,5
 484 195 484 195 457 199 c 128,-1,6
 430 203 430 203 420 225 c 2,7,-1
 279 551 l 2,8,9
 269 575 269 575 288 599 c 2,10,-1
 543 925 l 2,11,12
 552 936 552 936 563.5 940.5 c 128,-1,13
 575 945 575 945 588 945 c 128,-1,14
 601 945 601 945 614 941 c 128,-1,15
 627 937 627 937 638 930 c 0,16,17
 660 916 660 916 669 893 c 128,-1,18
 678 870 678 870 659 845 c 2,19,-1
 434 560 l 1,0,-1
834 560 m 1,20,-1
 958 275 l 2,21,22
 969 250 969 250 952.5 231.5 c 128,-1,23
 936 213 936 213 910 204 c 256,24,25
 884 195 884 195 857 199 c 128,-1,26
 830 203 830 203 820 225 c 2,27,-1
 679 551 l 2,28,29
 669 575 669 575 688 599 c 2,30,-1
 943 925 l 2,31,32
 952 936 952 936 963.5 940.5 c 128,-1,33
 975 945 975 945 988 945 c 128,-1,34
 1001 945 1001 945 1014 941 c 128,-1,35
 1027 937 1027 937 1038 930 c 0,36,37
 1060 916 1060 916 1069 893 c 128,-1,38
 1078 870 1078 870 1059 845 c 2,39,-1
 834 560 l 1,20,-1
EndSplineSet
EndChar
StartChar: logicalnot
Encoding: 172 172 118
Width: 1228
Flags: W
LayerCount: 2
Back
Fore
SplineSet
258 709 m 2,0,1
 224 709 224 709 212 724 c 128,-1,2
 200 739 200 739 207 777 c 0,3,4
 213 815 213 815 230 830 c 128,-1,5
 247 845 247 845 281 845 c 2,6,-1
 1093 845 l 2,7,8
 1127 845 1127 845 1139 830 c 128,-1,9
 1151 815 1151 815 1145 777 c 2,10,-1
 1075 383 l 2,11,12
 1069 348 1069 348 1050 333 c 128,-1,13
 1031 318 1031 318 989 318 c 256,14,15
 947 318 947 318 933 333 c 128,-1,16
 919 348 919 348 925 383 c 2,17,-1
 983 709 l 1,18,-1
 258 709 l 2,0,1
EndSplineSet
EndChar
StartChar: registered
Encoding: 174 174 102
Width: 1228
Flags: W
LayerCount: 2
Back
Fore
SplineSet
550 -22 m 0,0,1
 438 -22 438 -22 347.5 16.5 c 128,-1,2
 257 55 257 55 193.5 123 c 128,-1,3
 130 191 130 191 95.5 283.5 c 128,-1,4
 61 376 61 376 61 484 c 0,5,6
 61 584 61 584 86 676.5 c 128,-1,7
 111 769 111 769 156.5 849.5 c 128,-1,8
 202 930 202 930 265 996 c 128,-1,9
 328 1062 328 1062 404 1109.5 c 128,-1,10
 480 1157 480 1157 567 1183 c 128,-1,11
 654 1209 654 1209 747 1209 c 0,12,13
 859 1209 859 1209 949.5 1170.5 c 128,-1,14
 1040 1132 1040 1132 1103.5 1064.5 c 128,-1,15
 1167 997 1167 997 1201 904.5 c 128,-1,16
 1235 812 1235 812 1235 705 c 0,17,18
 1235 605 1235 605 1210 512.5 c 128,-1,19
 1185 420 1185 420 1140 339 c 128,-1,20
 1095 258 1095 258 1032 191.5 c 128,-1,21
 969 125 969 125 893 77.5 c 128,-1,22
 817 30 817 30 730 4 c 128,-1,23
 643 -22 643 -22 550 -22 c 0,0,1
561 98 m 0,24,25
 636 98 636 98 706 119 c 128,-1,26
 776 140 776 140 837.5 179 c 128,-1,27
 899 218 899 218 950 273 c 128,-1,28
 1001 328 1001 328 1037.5 395 c 128,-1,29
 1074 462 1074 462 1094 539.5 c 128,-1,30
 1114 617 1114 617 1114 702 c 0,31,32
 1114 788 1114 788 1088 859 c 128,-1,33
 1062 930 1062 930 1013 981 c 128,-1,34
 964 1032 964 1032 894 1060.5 c 128,-1,35
 824 1089 824 1089 736 1089 c 0,36,37
 624 1089 624 1089 523.5 1042.5 c 128,-1,38
 423 996 423 996 347 915 c 128,-1,39
 271 834 271 834 226.5 724 c 128,-1,40
 182 614 182 614 182 487 c 0,41,42
 182 401 182 401 208 329.5 c 128,-1,43
 234 258 234 258 283 206.5 c 128,-1,44
 332 155 332 155 402 126.5 c 128,-1,45
 472 98 472 98 561 98 c 0,24,25
465 854 m 2,46,47
 471 888 471 888 489 902.5 c 128,-1,48
 507 917 507 917 541 917 c 2,49,-1
 718 917 l 2,50,51
 767 917 767 917 807 902.5 c 128,-1,52
 847 888 847 888 875 862.5 c 128,-1,53
 903 837 903 837 918 802 c 128,-1,54
 933 767 933 767 933 726 c 0,55,56
 933 642 933 642 886 580.5 c 128,-1,57
 839 519 839 519 751 491 c 1,58,-1
 842 369 l 2,59,60
 860 344 860 344 858 325 c 128,-1,61
 856 306 856 306 825 285 c 256,62,63
 794 264 794 264 777 267.5 c 128,-1,64
 760 271 760 271 746 291 c 2,65,-1
 622 470 l 1,66,-1
 521 470 l 1,67,-1
 498 335 l 2,68,69
 492 300 492 300 475 285 c 128,-1,70
 458 270 458 270 423 270 c 256,71,72
 388 270 388 270 377.5 285 c 128,-1,73
 367 300 367 300 374 335 c 2,74,-1
 465 854 l 2,46,47
580 800 m 1,75,-1
 542 587 l 1,76,-1
 648 587 l 2,77,78
 688 587 688 587 717.5 597.5 c 128,-1,79
 747 608 747 608 766 626 c 128,-1,80
 785 644 785 644 794 668 c 128,-1,81
 803 692 803 692 803 718 c 0,82,83
 803 756 803 756 776.5 778 c 128,-1,84
 750 800 750 800 695 800 c 2,85,-1
 580 800 l 1,75,-1
EndSplineSet
EndChar
StartChar: macron
Encoding: 175 175 233
Width: 1228
Flags: W
LayerCount: 2
Back
Fore
SplineSet
1044 1246 m 2,0,1
 1078 1246 1078 1246 1090 1231 c 128,-1,2
 1102 1216 1102 1216 1095 1178 c 256,3,4
 1088 1140 1088 1140 1071 1125 c 128,-1,5
 1054 1110 1054 1110 1020 1110 c 2,6,-1
 458 1110 l 2,7,8
 424 1110 424 1110 412 1125 c 128,-1,9
 400 1140 400 1140 407 1178 c 256,10,11
 414 1216 414 1216 431 1231 c 128,-1,12
 448 1246 448 1246 482 1246 c 2,13,-1
 1044 1246 l 2,0,1
EndSplineSet
EndChar
StartChar: degree
Encoding: 176 176 95
Width: 1228
Flags: W
LayerCount: 2
Back
Fore
SplineSet
580 649 m 0,0,1
 528 649 528 649 483.5 668 c 128,-1,2
 439 687 439 687 406.5 720 c 128,-1,3
 374 753 374 753 355.5 797.5 c 128,-1,4
 337 842 337 842 337 892 c 0,5,6
 337 949 337 949 360.5 1006 c 128,-1,7
 384 1063 384 1063 427 1108 c 128,-1,8
 470 1153 470 1153 529 1181 c 128,-1,9
 588 1209 588 1209 659 1209 c 0,10,11
 711 1209 711 1209 755.5 1190 c 128,-1,12
 800 1171 800 1171 832 1138 c 128,-1,13
 864 1105 864 1105 882.5 1061 c 128,-1,14
 901 1017 901 1017 901 967 c 0,15,16
 901 908 901 908 877.5 851 c 128,-1,17
 854 794 854 794 811 749 c 128,-1,18
 768 704 768 704 709 676.5 c 128,-1,19
 650 649 650 649 580 649 c 0,0,1
594 784 m 0,20,21
 627 784 627 784 658 798 c 128,-1,22
 689 812 689 812 713 835 c 128,-1,23
 737 858 737 858 751.5 889 c 128,-1,24
 766 920 766 920 766 954 c 0,25,26
 766 979 766 979 757 1001 c 128,-1,27
 748 1023 748 1023 732 1039.5 c 128,-1,28
 716 1056 716 1056 694 1065 c 128,-1,29
 672 1074 672 1074 645 1074 c 0,30,31
 612 1074 612 1074 581 1060 c 128,-1,32
 550 1046 550 1046 525.5 1023 c 128,-1,33
 501 1000 501 1000 486.5 969 c 128,-1,34
 472 938 472 938 472 904 c 0,35,36
 472 878 472 878 481 856.5 c 128,-1,37
 490 835 490 835 506 818.5 c 128,-1,38
 522 802 522 802 544.5 793 c 128,-1,39
 567 784 567 784 594 784 c 0,20,21
EndSplineSet
EndChar
StartChar: plusminus
Encoding: 177 177 224
Width: 1228
Flags: W
LayerCount: 2
Back
Fore
SplineSet
281 674 m 2,0,1
 247 674 247 674 235.5 689 c 128,-1,2
 224 704 224 704 230 742 c 0,3,4
 237 780 237 780 254 795 c 128,-1,5
 271 810 271 810 305 810 c 2,6,-1
 618 810 l 1,7,-1
 663 1063 l 2,8,9
 669 1097 669 1097 686.5 1111.5 c 128,-1,10
 704 1126 704 1126 742 1126 c 256,11,12
 780 1126 780 1126 792.5 1111.5 c 128,-1,13
 805 1097 805 1097 799 1063 c 2,14,-1
 754 810 l 1,15,-1
 1067 810 l 2,16,17
 1101 810 1101 810 1113 795 c 128,-1,18
 1125 780 1125 780 1118 742 c 0,19,20
 1112 704 1112 704 1094.5 689 c 128,-1,21
 1077 674 1077 674 1043 674 c 2,22,-1
 730 674 l 1,23,-1
 686 421 l 2,24,25
 680 387 680 387 662.5 372.5 c 128,-1,26
 645 358 645 358 607 358 c 256,27,28
 569 358 569 358 556.5 372.5 c 128,-1,29
 544 387 544 387 550 421 c 2,30,-1
 594 674 l 1,31,-1
 281 674 l 2,0,1
969 250 m 2,32,33
 1003 250 1003 250 1014.5 235 c 128,-1,34
 1026 220 1026 220 1020 182 c 0,35,36
 1013 144 1013 144 996 129 c 128,-1,37
 979 114 979 114 945 114 c 2,38,-1
 183 114 l 2,39,40
 149 114 149 114 137 129 c 128,-1,41
 125 144 125 144 132 182 c 0,42,43
 138 220 138 220 155.5 235 c 128,-1,44
 173 250 173 250 207 250 c 2,45,-1
 969 250 l 2,32,33
EndSplineSet
EndChar
StartChar: twosuperior
Encoding: 178 178 159
Width: 1228
Flags: W
LayerCount: 2
Back
Fore
SplineSet
563 1063 m 2,0,1
 558 1038 558 1038 541 1025 c 128,-1,2
 524 1012 524 1012 486 1012 c 0,3,4
 449 1012 449 1012 436 1025 c 128,-1,5
 423 1038 423 1038 428 1063 c 2,6,-1
 454 1210 l 2,7,8
 456 1224 456 1224 464 1234.5 c 128,-1,9
 472 1245 472 1245 483 1252 c 0,10,11
 550 1292 550 1292 629.5 1313 c 128,-1,12
 709 1334 709 1334 781 1334 c 0,13,14
 899 1334 899 1334 962.5 1276 c 128,-1,15
 1026 1218 1026 1218 1026 1121 c 0,16,17
 1026 1073 1026 1073 1012.5 1032 c 128,-1,18
 999 991 999 991 972 954 c 128,-1,19
 945 917 945 917 904.5 881 c 128,-1,20
 864 845 864 845 810 806 c 2,21,-1
 536 608 l 1,22,-1
 858 608 l 1,23,-1
 872 686 l 2,24,25
 877 711 877 711 894 724 c 128,-1,26
 911 737 911 737 949 737 c 0,27,28
 986 737 986 737 999 724 c 128,-1,29
 1012 711 1012 711 1007 686 c 2,30,-1
 980 536 l 2,31,32
 971 483 971 483 921 483 c 2,33,-1
 350 483 l 2,34,35
 313 483 313 483 313 533 c 0,36,37
 313 566 313 566 325.5 585.5 c 128,-1,38
 338 605 338 605 358 620 c 2,39,-1
 739 900 l 2,40,41
 812 953 812 953 847.5 997.5 c 128,-1,42
 883 1042 883 1042 883 1099 c 0,43,44
 883 1147 883 1147 849.5 1176 c 128,-1,45
 816 1205 816 1205 749 1205 c 0,46,47
 706 1205 706 1205 662.5 1194.5 c 128,-1,48
 619 1184 619 1184 581 1166 c 1,49,-1
 563 1063 l 2,0,1
EndSplineSet
EndChar
StartChar: threesuperior
Encoding: 179 179 160
Width: 1228
Flags: W
LayerCount: 2
Back
Fore
SplineSet
485 1265 m 0,0,1
 551 1300 551 1300 626 1317 c 128,-1,2
 701 1334 701 1334 769 1334 c 0,3,4
 831 1334 831 1334 879 1319 c 128,-1,5
 927 1304 927 1304 959.5 1277.5 c 128,-1,6
 992 1251 992 1251 1009 1213.5 c 128,-1,7
 1026 1176 1026 1176 1026 1131 c 0,8,9
 1026 1055 1026 1055 987 1002 c 128,-1,10
 948 949 948 949 878 915 c 1,11,12
 929 896 929 896 958 855.5 c 128,-1,13
 987 815 987 815 987 755 c 0,14,15
 987 692 987 692 963.5 639 c 128,-1,16
 940 586 940 586 893.5 547.5 c 128,-1,17
 847 509 847 509 778 487 c 128,-1,18
 709 465 709 465 617 465 c 0,19,20
 546 465 546 465 474.5 480.5 c 128,-1,21
 403 496 403 496 347 530 c 0,22,23
 332 540 332 540 332 561 c 0,24,25
 332 572 332 572 338 588 c 128,-1,26
 344 604 344 604 354 619 c 128,-1,27
 364 634 364 634 377 644.5 c 128,-1,28
 390 655 390 655 404 655 c 0,29,30
 413 655 413 655 423 650 c 0,31,32
 468 625 468 625 522 609.5 c 128,-1,33
 576 594 576 594 633 594 c 0,34,35
 733 594 733 594 789 632 c 128,-1,36
 845 670 845 670 845 741 c 0,37,38
 845 769 845 769 833 788.5 c 128,-1,39
 821 808 821 808 799.5 819 c 128,-1,40
 778 830 778 830 747.5 835 c 128,-1,41
 717 840 717 840 680 840 c 2,42,-1
 628 840 l 2,43,44
 609 840 609 840 601 852 c 128,-1,45
 593 864 593 864 593 884 c 0,46,47
 593 898 593 898 596 912.5 c 128,-1,48
 599 927 599 927 605.5 938.5 c 128,-1,49
 612 950 612 950 623 957.5 c 128,-1,50
 634 965 634 965 650 965 c 2,51,-1
 689 965 l 2,52,53
 782 965 782 965 832.5 998 c 128,-1,54
 883 1031 883 1031 883 1104 c 0,55,56
 883 1155 883 1155 843.5 1180 c 128,-1,57
 804 1205 804 1205 735 1205 c 0,58,59
 693 1205 693 1205 655.5 1197.5 c 128,-1,60
 618 1190 618 1190 583 1176 c 1,61,-1
 572 1113 l 2,62,63
 567 1088 567 1088 550 1075 c 128,-1,64
 533 1062 533 1062 495 1062 c 0,65,66
 458 1062 458 1062 445 1075 c 128,-1,67
 432 1088 432 1088 437 1113 c 2,68,-1
 457 1223 l 2,69,70
 462 1252 462 1252 485 1265 c 0,0,1
EndSplineSet
EndChar
StartChar: acute
Encoding: 180 180 105
Width: 1228
Flags: W
LayerCount: 2
Back
Fore
SplineSet
970 1363 m 2,0,1
 983 1370 983 1370 994.5 1373 c 128,-1,2
 1006 1376 1006 1376 1017.5 1371 c 128,-1,3
 1029 1366 1029 1366 1042 1351.5 c 128,-1,4
 1055 1337 1055 1337 1071 1309 c 0,5,6
 1086 1282 1086 1282 1091.5 1263.5 c 128,-1,7
 1097 1245 1097 1245 1096 1232.5 c 128,-1,8
 1095 1220 1095 1220 1088 1212.5 c 128,-1,9
 1081 1205 1081 1205 1071 1202 c 2,10,-1
 590 1039 l 2,11,12
 571 1033 571 1033 556.5 1043.5 c 128,-1,13
 542 1054 542 1054 535 1071 c 256,14,15
 528 1088 528 1088 532.5 1105.5 c 128,-1,16
 537 1123 537 1123 554 1133 c 2,17,-1
 970 1363 l 2,0,1
EndSplineSet
EndChar
StartChar: paragraph
Encoding: 182 182 100
Width: 1228
Flags: W
LayerCount: 2
Back
Fore
SplineSet
544 -350 m 2,0,1
 538 -385 538 -385 518.5 -400 c 128,-1,2
 499 -415 499 -415 457 -415 c 256,3,4
 415 -415 415 -415 401.5 -400 c 128,-1,5
 388 -385 388 -385 394 -350 c 2,6,-1
 544 502 l 1,7,8
 466 504 466 504 403.5 525 c 128,-1,9
 341 546 341 546 297 583 c 128,-1,10
 253 620 253 620 229 672 c 128,-1,11
 205 724 205 724 205 789 c 0,12,13
 205 867 205 867 234 939 c 128,-1,14
 263 1011 263 1011 322 1066 c 128,-1,15
 381 1121 381 1121 469.5 1154 c 128,-1,16
 558 1187 558 1187 677 1187 c 2,17,-1
 1193 1187 l 2,18,19
 1227 1187 1227 1187 1239 1172 c 128,-1,20
 1251 1157 1251 1157 1244 1119 c 256,21,22
 1237 1081 1237 1081 1220 1066 c 128,-1,23
 1203 1051 1203 1051 1169 1051 c 2,24,-1
 1101 1051 l 1,25,-1
 854 -350 l 2,26,27
 848 -385 848 -385 828.5 -400 c 128,-1,28
 809 -415 809 -415 767 -415 c 256,29,30
 725 -415 725 -415 711.5 -400 c 128,-1,31
 698 -385 698 -385 704 -350 c 2,32,-1
 951 1051 l 1,33,-1
 791 1051 l 1,34,-1
 544 -350 l 2,0,1
EndSplineSet
EndChar
StartChar: periodcentered
Encoding: 183 183 232
Width: 1228
Flags: W
LayerCount: 2
Back
Fore
SplineSet
621 413 m 0,0,1
 589 413 589 413 562.5 424.5 c 128,-1,2
 536 436 536 436 516.5 455.5 c 128,-1,3
 497 475 497 475 486 502 c 128,-1,4
 475 529 475 529 475 559 c 0,5,6
 475 599 475 599 491.5 634 c 128,-1,7
 508 669 508 669 536 695 c 128,-1,8
 564 721 564 721 599 736 c 128,-1,9
 634 751 634 751 672 751 c 0,10,11
 704 751 704 751 730.5 739.5 c 128,-1,12
 757 728 757 728 776.5 708.5 c 128,-1,13
 796 689 796 689 806.5 663 c 128,-1,14
 817 637 817 637 817 607 c 0,15,16
 817 567 817 567 800.5 531.5 c 128,-1,17
 784 496 784 496 757 470 c 128,-1,18
 730 444 730 444 694.5 428.5 c 128,-1,19
 659 413 659 413 621 413 c 0,0,1
EndSplineSet
EndChar
StartChar: cedilla
Encoding: 184 184 142
Width: 1228
Flags: W
LayerCount: 2
Back
Fore
SplineSet
463 28 m 1,0,-1
 598 28 l 1,1,-1
 573 -113 l 1,2,3
 619 -112 619 -112 652.5 -123.5 c 128,-1,4
 686 -135 686 -135 708 -154.5 c 128,-1,5
 730 -174 730 -174 740.5 -201 c 128,-1,6
 751 -228 751 -228 751 -258 c 0,7,8
 751 -273 751 -273 748 -291.5 c 128,-1,9
 745 -310 745 -310 738 -329 c 128,-1,10
 731 -348 731 -348 721 -365.5 c 128,-1,11
 711 -383 711 -383 697 -398 c 0,12,13
 664 -433 664 -433 609.5 -452.5 c 128,-1,14
 555 -472 555 -472 477 -472 c 0,15,16
 410 -472 410 -472 348.5 -460 c 128,-1,17
 287 -448 287 -448 239 -424 c 0,18,19
 222 -415 222 -415 221.5 -394.5 c 128,-1,20
 221 -374 221 -374 232 -354 c 0,21,22
 242 -335 242 -335 258 -323 c 128,-1,23
 274 -311 274 -311 291 -318 c 0,24,25
 328 -333 328 -333 377.5 -342.5 c 128,-1,26
 427 -352 427 -352 478 -352 c 0,27,28
 538 -352 538 -352 566 -329 c 128,-1,29
 594 -306 594 -306 594 -271 c 0,30,31
 594 -237 594 -237 559 -225 c 128,-1,32
 524 -213 524 -213 460 -217 c 0,33,34
 453 -217 453 -217 446 -216 c 128,-1,35
 439 -215 439 -215 434 -210.5 c 128,-1,36
 429 -206 429 -206 427 -197.5 c 128,-1,37
 425 -189 425 -189 428 -175 c 2,38,-1
 463 28 l 1,0,-1
EndSplineSet
EndChar
StartChar: onesuperior
Encoding: 185 185 158
Width: 1228
Flags: W
LayerCount: 2
Back
Fore
SplineSet
707 1179 m 1,0,-1
 523 1122 l 2,1,2
 506 1117 506 1117 497 1117 c 256,3,4
 488 1117 488 1117 481 1123 c 128,-1,5
 474 1129 474 1129 469 1139 c 128,-1,6
 464 1149 464 1149 461.5 1160.5 c 128,-1,7
 459 1172 459 1172 459 1184 c 0,8,9
 459 1208 459 1208 470.5 1220.5 c 128,-1,10
 482 1233 482 1233 503 1239 c 2,11,-1
 802 1330 l 2,12,13
 815 1334 815 1334 827 1334 c 0,14,15
 847 1334 847 1334 856 1323 c 128,-1,16
 865 1312 865 1312 862 1292 c 2,17,-1
 741 608 l 1,18,-1
 935 608 l 2,19,20
 975 608 975 608 975 564 c 0,21,22
 975 483 975 483 913 483 c 2,23,-1
 380 483 l 2,24,25
 339 483 339 483 339 528 c 0,26,27
 339 608 339 608 402 608 c 2,28,-1
 606 608 l 1,29,-1
 707 1179 l 1,0,-1
EndSplineSet
EndChar
StartChar: ordmasculine
Encoding: 186 186 113
Width: 1228
Flags: W
LayerCount: 2
Back
Fore
SplineSet
635 465 m 0,0,1
 563 465 563 465 502.5 488.5 c 128,-1,2
 442 512 442 512 399 553.5 c 128,-1,3
 356 595 356 595 332 652.5 c 128,-1,4
 308 710 308 710 308 778 c 0,5,6
 308 857 308 857 338 934.5 c 128,-1,7
 368 1012 368 1012 424.5 1073 c 128,-1,8
 481 1134 481 1134 562.5 1171.5 c 128,-1,9
 644 1209 644 1209 747 1209 c 0,10,11
 819 1209 819 1209 879 1185.5 c 128,-1,12
 939 1162 939 1162 982.5 1120 c 128,-1,13
 1026 1078 1026 1078 1050 1020.5 c 128,-1,14
 1074 963 1074 963 1074 895 c 0,15,16
 1074 817 1074 817 1044 740.5 c 128,-1,17
 1014 664 1014 664 958 602.5 c 128,-1,18
 902 541 902 541 820 503 c 128,-1,19
 738 465 738 465 635 465 c 0,0,1
649 597 m 0,20,21
 708 597 708 597 760 619 c 128,-1,22
 812 641 812 641 850.5 680 c 128,-1,23
 889 719 889 719 911.5 772 c 128,-1,24
 934 825 934 825 934 887 c 0,25,26
 934 972 934 972 881 1024.5 c 128,-1,27
 828 1077 828 1077 733 1077 c 0,28,29
 665 1077 665 1077 612 1051 c 128,-1,30
 559 1025 559 1025 522 983.5 c 128,-1,31
 485 942 485 942 466 890 c 128,-1,32
 447 838 447 838 447 787 c 0,33,34
 447 745 447 745 461 710 c 128,-1,35
 475 675 475 675 501 650 c 128,-1,36
 527 625 527 625 564.5 611 c 128,-1,37
 602 597 602 597 649 597 c 0,20,21
EndSplineSet
EndChar
StartChar: guillemotright
Encoding: 187 187 122
Width: 1228
Flags: W
LayerCount: 2
Back
Fore
SplineSet
456 590 m 1,0,-1
 332 875 l 2,1,2
 321 900 321 900 337.5 918.5 c 128,-1,3
 354 937 354 937 380 946 c 256,4,5
 406 955 406 955 433 951 c 128,-1,6
 460 947 460 947 470 925 c 2,7,-1
 611 599 l 2,8,9
 621 574 621 574 602 551 c 2,10,-1
 347 225 l 2,11,12
 338 214 338 214 326.5 209 c 128,-1,13
 315 204 315 204 302 204 c 128,-1,14
 289 204 289 204 276 208.5 c 128,-1,15
 263 213 263 213 252 220 c 0,16,17
 230 234 230 234 221 257 c 128,-1,18
 212 280 212 280 231 305 c 2,19,-1
 456 590 l 1,0,-1
856 590 m 1,20,-1
 732 875 l 2,21,22
 721 900 721 900 737.5 918.5 c 128,-1,23
 754 937 754 937 780 946 c 256,24,25
 806 955 806 955 833 951 c 128,-1,26
 860 947 860 947 870 925 c 2,27,-1
 1011 599 l 2,28,29
 1021 574 1021 574 1002 551 c 2,30,-1
 747 225 l 2,31,32
 738 214 738 214 726.5 209 c 128,-1,33
 715 204 715 204 702 204 c 128,-1,34
 689 204 689 204 676 208.5 c 128,-1,35
 663 213 663 213 652 220 c 0,36,37
 630 234 630 234 621 257 c 128,-1,38
 612 280 612 280 631 305 c 2,39,-1
 856 590 l 1,20,-1
EndSplineSet
EndChar
StartChar: questiondown
Encoding: 191 191 116
Width: 1228
Flags: W
LayerCount: 2
Back
Fore
SplineSet
782 1209 m 0,0,1
 808 1209 808 1209 830 1199.5 c 128,-1,2
 852 1190 852 1190 867.5 1174 c 128,-1,3
 883 1158 883 1158 892 1136.5 c 128,-1,4
 901 1115 901 1115 901 1090 c 0,5,6
 901 1057 901 1057 887.5 1028.5 c 128,-1,7
 874 1000 874 1000 851.5 979 c 128,-1,8
 829 958 829 958 800 945.5 c 128,-1,9
 771 933 771 933 741 933 c 0,10,11
 715 933 715 933 693 942.5 c 128,-1,12
 671 952 671 952 655 968 c 128,-1,13
 639 984 639 984 630.5 1006 c 128,-1,14
 622 1028 622 1028 622 1053 c 0,15,16
 622 1085 622 1085 635.5 1113.5 c 128,-1,17
 649 1142 649 1142 671.5 1163 c 128,-1,18
 694 1184 694 1184 723 1196.5 c 128,-1,19
 752 1209 752 1209 782 1209 c 0,0,1
924 120 m 2,20,21
 917 79 917 79 889 64 c 0,22,23
 724 -22 724 -22 545 -22 c 0,24,25
 470 -22 470 -22 412.5 -2.5 c 128,-1,26
 355 17 355 17 315.5 51.5 c 128,-1,27
 276 86 276 86 255.5 134.5 c 128,-1,28
 235 183 235 183 235 240 c 0,29,30
 235 283 235 283 246 326.5 c 128,-1,31
 257 370 257 370 278 410 c 256,32,33
 299 450 299 450 331 482 c 128,-1,34
 363 514 363 514 405.5 541 c 128,-1,35
 448 568 448 568 501 592.5 c 128,-1,36
 554 617 554 617 617 641 c 1,37,-1
 651 777 l 2,38,39
 657 800 657 800 677 814 c 128,-1,40
 697 828 697 828 729 828 c 256,41,42
 761 828 761 828 776.5 814 c 128,-1,43
 792 800 792 800 789 777 c 2,44,-1
 765 582 l 2,45,46
 761 544 761 544 726 531 c 2,47,-1
 652 503 l 2,48,49
 565 470 565 470 510.5 439 c 128,-1,50
 456 408 456 408 427 367 c 0,51,52
 410 344 410 344 402 315 c 128,-1,53
 394 286 394 286 394 257 c 0,54,55
 394 197 394 197 435.5 161.5 c 128,-1,56
 477 126 477 126 560 126 c 0,57,58
 621 126 621 126 676.5 137 c 128,-1,59
 732 148 732 148 783 168 c 1,60,-1
 798 252 l 2,61,62
 804 287 804 287 823 302 c 128,-1,63
 842 317 842 317 884 317 c 256,64,65
 926 317 926 317 940 302 c 128,-1,66
 954 287 954 287 948 252 c 2,67,-1
 924 120 l 2,20,21
EndSplineSet
EndChar
StartChar: AE
Encoding: 198 198 108
Width: 1228
Flags: W
LayerCount: 2
Back
Fore
SplineSet
340 374 m 1,0,-1
 227 136 l 1,1,-1
 310 136 l 2,2,3
 344 136 344 136 356 121 c 128,-1,4
 368 106 368 106 361 68 c 0,5,6
 355 30 355 30 338 15 c 128,-1,7
 321 0 321 0 287 0 c 2,8,-1
 -7 0 l 2,9,10
 -41 0 -41 0 -53 15 c 128,-1,11
 -65 30 -65 30 -59 68 c 0,12,13
 -52 106 -52 106 -35 121 c 128,-1,14
 -18 136 -18 136 16 136 c 2,15,-1
 66 136 l 1,16,-1
 503 1051 l 1,17,-1
 409 1051 l 2,18,19
 375 1051 375 1051 363 1066 c 128,-1,20
 351 1081 351 1081 358 1119 c 256,21,22
 365 1157 365 1157 382 1172 c 128,-1,23
 399 1187 399 1187 433 1187 c 2,24,-1
 1202 1187 l 2,25,26
 1236 1187 1236 1187 1248 1172 c 128,-1,27
 1260 1157 1260 1157 1253 1119 c 2,28,-1
 1208 865 l 2,29,30
 1202 830 1202 830 1183 815 c 128,-1,31
 1164 800 1164 800 1122 800 c 256,32,33
 1080 800 1080 800 1066 815 c 128,-1,34
 1052 830 1052 830 1058 865 c 2,35,-1
 1091 1051 l 1,36,-1
 831 1051 l 1,37,-1
 766 685 l 1,38,-1
 958 685 l 2,39,40
 992 685 992 685 1004 670 c 128,-1,41
 1016 655 1016 655 1009 617 c 256,42,43
 1002 579 1002 579 985 564 c 128,-1,44
 968 549 968 549 934 549 c 2,45,-1
 742 549 l 1,46,-1
 669 136 l 1,47,-1
 941 136 l 1,48,-1
 982 365 l 2,49,50
 988 400 988 400 1007 415 c 128,-1,51
 1026 430 1026 430 1068 430 c 256,52,53
 1110 430 1110 430 1124 415 c 128,-1,54
 1138 400 1138 400 1132 365 c 2,55,-1
 1079 68 l 2,56,57
 1073 30 1073 30 1056 15 c 128,-1,58
 1039 0 1039 0 1005 0 c 2,59,-1
 559 0 l 2,60,61
 525 0 525 0 513 15 c 128,-1,62
 501 30 501 30 507 68 c 2,63,-1
 561 374 l 1,64,-1
 340 374 l 1,0,-1
404 510 m 1,65,-1
 585 510 l 1,66,-1
 681 1051 l 1,67,-1
 661 1051 l 1,68,-1
 404 510 l 1,65,-1
EndSplineSet
EndChar
StartChar: Ccedilla
Encoding: 199 199 92
Width: 1228
Flags: W
LayerCount: 2
Back
Fore
SplineSet
495 -16 m 1,0,1
 412 -4 412 -4 346 34.5 c 128,-1,2
 280 73 280 73 234 134 c 128,-1,3
 188 195 188 195 164 275.5 c 128,-1,4
 140 356 140 356 140 453 c 256,5,6
 140 550 140 550 160 643.5 c 128,-1,7
 180 737 180 737 218 821 c 128,-1,8
 256 905 256 905 311.5 976 c 128,-1,9
 367 1047 367 1047 437 1099 c 128,-1,10
 507 1151 507 1151 591.5 1180 c 128,-1,11
 676 1209 676 1209 772 1209 c 0,12,13
 871 1209 871 1209 938.5 1174.5 c 128,-1,14
 1006 1140 1006 1140 1044 1080 c 1,15,-1
 1055 1144 l 2,16,17
 1061 1179 1061 1179 1080.5 1194 c 128,-1,18
 1100 1209 1100 1209 1142 1209 c 256,19,20
 1184 1209 1184 1209 1197.5 1194 c 128,-1,21
 1211 1179 1211 1179 1205 1144 c 2,22,-1
 1147 814 l 2,23,24
 1141 779 1141 779 1122 764 c 128,-1,25
 1103 749 1103 749 1061 749 c 256,26,27
 1019 749 1019 749 1005 764 c 128,-1,28
 991 779 991 779 997 814 c 0,29,30
 1006 863 1006 863 997 908 c 128,-1,31
 988 953 988 953 960 987 c 128,-1,32
 932 1021 932 1021 882.5 1041 c 128,-1,33
 833 1061 833 1061 761 1061 c 256,34,35
 689 1061 689 1061 626.5 1037 c 128,-1,36
 564 1013 564 1013 512.5 971 c 128,-1,37
 461 929 461 929 421 871.5 c 128,-1,38
 381 814 381 814 353.5 747.5 c 128,-1,39
 326 681 326 681 312 607.5 c 128,-1,40
 298 534 298 534 298 461 c 0,41,42
 298 382 298 382 317.5 320 c 128,-1,43
 337 258 337 258 374 215 c 128,-1,44
 411 172 411 172 464.5 149 c 128,-1,45
 518 126 518 126 586 126 c 0,46,47
 686 126 686 126 780 157 c 128,-1,48
 874 188 874 188 956 242 c 0,49,50
 979 257 979 257 1003 249.5 c 128,-1,51
 1027 242 1027 242 1045 207 c 0,52,53
 1062 172 1062 172 1057.5 148 c 128,-1,54
 1053 124 1053 124 1023 106 c 0,55,56
 833 -6 833 -6 629 -20 c 1,57,-1
 613 -113 l 1,58,59
 659 -112 659 -112 692.5 -123.5 c 128,-1,60
 726 -135 726 -135 748 -154.5 c 128,-1,61
 770 -174 770 -174 780.5 -201 c 128,-1,62
 791 -228 791 -228 791 -258 c 0,63,64
 791 -273 791 -273 788 -291.5 c 128,-1,65
 785 -310 785 -310 778 -329 c 128,-1,66
 771 -348 771 -348 761 -365.5 c 128,-1,67
 751 -383 751 -383 737 -398 c 0,68,69
 704 -433 704 -433 649.5 -452.5 c 128,-1,70
 595 -472 595 -472 517 -472 c 0,71,72
 450 -472 450 -472 388.5 -460 c 128,-1,73
 327 -448 327 -448 279 -424 c 0,74,75
 262 -415 262 -415 261.5 -394.5 c 128,-1,76
 261 -374 261 -374 272 -354 c 0,77,78
 282 -335 282 -335 298 -323 c 128,-1,79
 314 -311 314 -311 331 -318 c 0,80,81
 368 -333 368 -333 417.5 -342.5 c 128,-1,82
 467 -352 467 -352 518 -352 c 0,83,84
 578 -352 578 -352 606 -329 c 128,-1,85
 634 -306 634 -306 634 -271 c 0,86,87
 634 -237 634 -237 599 -225 c 128,-1,88
 564 -213 564 -213 500 -217 c 0,89,90
 493 -217 493 -217 486 -216 c 128,-1,91
 479 -215 479 -215 474 -210.5 c 128,-1,92
 469 -206 469 -206 467 -197.5 c 128,-1,93
 465 -189 465 -189 468 -175 c 2,94,-1
 495 -16 l 1,0,1
EndSplineSet
EndChar
StartChar: Eth
Encoding: 208 208 153
Width: 1228
Flags: W
LayerCount: 2
Back
Fore
SplineSet
280 544 m 1,0,-1
 138 544 l 2,1,2
 104 544 104 544 92.5 559 c 128,-1,3
 81 574 81 574 87 612 c 0,4,5
 94 650 94 650 111 665 c 128,-1,6
 128 680 128 680 162 680 c 2,7,-1
 304 680 l 1,8,-1
 370 1051 l 1,9,-1
 258 1051 l 2,10,11
 224 1051 224 1051 212 1066 c 128,-1,12
 200 1081 200 1081 207 1119 c 256,13,14
 214 1157 214 1157 231 1172 c 128,-1,15
 248 1187 248 1187 282 1187 c 2,16,-1
 738 1187 l 2,17,18
 840 1187 840 1187 923 1155 c 128,-1,19
 1006 1123 1006 1123 1064 1063 c 128,-1,20
 1122 1003 1122 1003 1153.5 917.5 c 128,-1,21
 1185 832 1185 832 1185 724 c 0,22,23
 1185 655 1185 655 1171 574.5 c 128,-1,24
 1157 494 1157 494 1126.5 413.5 c 128,-1,25
 1096 333 1096 333 1047 258.5 c 128,-1,26
 998 184 998 184 928.5 126.5 c 128,-1,27
 859 69 859 69 767.5 34.5 c 128,-1,28
 676 0 676 0 559 0 c 2,29,-1
 73 0 l 2,30,31
 39 0 39 0 27 15 c 128,-1,32
 15 30 15 30 21 68 c 0,33,34
 28 106 28 106 45 121 c 128,-1,35
 62 136 62 136 96 136 c 2,36,-1
 208 136 l 1,37,-1
 280 544 l 1,0,-1
544 136 m 2,38,39
 634 136 634 136 705 163 c 128,-1,40
 776 190 776 190 829.5 235.5 c 128,-1,41
 883 281 883 281 921 340.5 c 128,-1,42
 959 400 959 400 982.5 465 c 128,-1,43
 1006 530 1006 530 1017 595.5 c 128,-1,44
 1028 661 1028 661 1028 719 c 0,45,46
 1028 882 1028 882 942.5 966.5 c 128,-1,47
 857 1051 857 1051 706 1051 c 2,48,-1
 520 1051 l 1,49,-1
 454 680 l 1,50,-1
 644 680 l 2,51,52
 678 680 678 680 690 665 c 128,-1,53
 702 650 702 650 695 612 c 0,54,55
 689 574 689 574 671.5 559 c 128,-1,56
 654 544 654 544 620 544 c 2,57,-1
 430 544 l 1,58,-1
 358 136 l 1,59,-1
 544 136 l 2,38,39
EndSplineSet
EndChar
StartChar: multiply
Encoding: 215 215 234
Width: 1228
Flags: W
LayerCount: 2
Back
Fore
SplineSet
653 678 m 1,0,-1
 950 930 l 2,1,2
 976 952 976 952 997 950 c 128,-1,3
 1018 948 1018 948 1042 919 c 256,4,5
 1066 890 1066 890 1065 869 c 128,-1,6
 1064 848 1064 848 1038 826 c 2,7,-1
 742 574 l 1,8,-1
 964 315 l 2,9,10
 986 289 986 289 984 268 c 128,-1,11
 982 247 982 247 953 223 c 256,12,13
 924 199 924 199 903 200 c 128,-1,14
 882 201 882 201 860 227 c 2,15,-1
 638 486 l 1,16,-1
 341 234 l 2,17,18
 315 212 315 212 294 214 c 128,-1,19
 273 216 273 216 249 245 c 256,20,21
 225 274 225 274 226 295 c 128,-1,22
 227 316 227 316 253 338 c 2,23,-1
 549 590 l 1,24,-1
 328 849 l 2,25,26
 306 875 306 875 308 896 c 128,-1,27
 310 917 310 917 339 941 c 256,28,29
 368 965 368 965 389 964 c 128,-1,30
 410 963 410 963 432 937 c 2,31,-1
 653 678 l 1,0,-1
EndSplineSet
EndChar
StartChar: Oslash
Encoding: 216 216 109
Width: 1228
Flags: W
LayerCount: 2
Back
Fore
SplineSet
1185 728 m 0,0,1
 1185 638 1185 638 1166.5 547 c 128,-1,2
 1148 456 1148 456 1112 373 c 128,-1,3
 1076 290 1076 290 1023 217.5 c 128,-1,4
 970 145 970 145 900 92 c 128,-1,5
 830 39 830 39 743.5 8.5 c 128,-1,6
 657 -22 657 -22 555 -22 c 0,7,8
 474 -22 474 -22 407 -1 c 128,-1,9
 340 20 340 20 286 60 c 1,10,-1
 243 10 l 2,11,12
 219 -19 219 -19 191 -21.5 c 128,-1,13
 163 -24 163 -24 137 -3 c 0,14,15
 110 18 110 18 104 39.5 c 128,-1,16
 98 61 98 61 122 90 c 2,17,-1
 187 166 l 1,18,19
 150 225 150 225 130.5 298 c 128,-1,20
 111 371 111 371 111 458 c 0,21,22
 111 548 111 548 129.5 639 c 128,-1,23
 148 730 148 730 184 813.5 c 128,-1,24
 220 897 220 897 273.5 969 c 128,-1,25
 327 1041 327 1041 397 1094.5 c 128,-1,26
 467 1148 467 1148 553.5 1178.5 c 128,-1,27
 640 1209 640 1209 742 1209 c 0,28,29
 821 1209 821 1209 888 1188 c 128,-1,30
 955 1167 955 1167 1009 1128 c 1,31,-1
 1053 1179 l 2,32,33
 1078 1208 1078 1208 1106.5 1210.5 c 128,-1,34
 1135 1213 1135 1213 1161 1192 c 256,35,36
 1187 1171 1187 1171 1192.5 1149.5 c 128,-1,37
 1198 1128 1198 1128 1174 1099 c 2,38,-1
 1108 1021 l 1,39,40
 1146 962 1146 962 1165.5 888.5 c 128,-1,41
 1185 815 1185 815 1185 728 c 0,0,1
1028 722 m 0,42,43
 1028 818 1028 818 997 892 c 1,44,-1
 387 179 l 1,45,46
 458 126 458 126 566 126 c 0,47,48
 641 126 641 126 705 151 c 128,-1,49
 769 176 769 176 820 219.5 c 128,-1,50
 871 263 871 263 910 321.5 c 128,-1,51
 949 380 949 380 975.5 446 c 128,-1,52
 1002 512 1002 512 1015 583 c 128,-1,53
 1028 654 1028 654 1028 722 c 0,42,43
268 465 m 0,54,55
 268 366 268 366 298 296 c 1,56,-1
 907 1009 l 1,57,58
 835 1061 835 1061 731 1061 c 0,59,60
 655 1061 655 1061 591.5 1036 c 128,-1,61
 528 1011 528 1011 476.5 967.5 c 128,-1,62
 425 924 425 924 386 865.5 c 128,-1,63
 347 807 347 807 321 741 c 128,-1,64
 295 675 295 675 281.5 604 c 128,-1,65
 268 533 268 533 268 465 c 0,54,55
EndSplineSet
EndChar
StartChar: Thorn
Encoding: 222 222 156
Width: 1228
Flags: W
LayerCount: 2
Back
Fore
SplineSet
444 1051 m 1,0,-1
 278 1051 l 2,1,2
 244 1051 244 1051 232 1066 c 128,-1,3
 220 1081 220 1081 227 1119 c 256,4,5
 234 1157 234 1157 251 1172 c 128,-1,6
 268 1187 268 1187 302 1187 c 2,7,-1
 824 1187 l 2,8,9
 858 1187 858 1187 870 1172 c 128,-1,10
 882 1157 882 1157 875 1119 c 256,11,12
 868 1081 868 1081 851 1066 c 128,-1,13
 834 1051 834 1051 800 1051 c 2,14,-1
 594 1051 l 1,15,-1
 572 927 l 1,16,-1
 793 927 l 2,17,18
 872 927 872 927 931.5 906 c 128,-1,19
 991 885 991 885 1031 848.5 c 128,-1,20
 1071 812 1071 812 1091 762 c 128,-1,21
 1111 712 1111 712 1111 654 c 0,22,23
 1111 614 1111 614 1102 570.5 c 128,-1,24
 1093 527 1093 527 1073.5 485 c 128,-1,25
 1054 443 1054 443 1022.5 404.5 c 128,-1,26
 991 366 991 366 945 337 c 128,-1,27
 899 308 899 308 837.5 290.5 c 128,-1,28
 776 273 776 273 698 273 c 2,29,-1
 457 273 l 1,30,-1
 432 136 l 1,31,-1
 658 136 l 2,32,33
 692 136 692 136 704 121 c 128,-1,34
 716 106 716 106 709 68 c 0,35,36
 703 30 703 30 686 15 c 128,-1,37
 669 0 669 0 635 0 c 2,38,-1
 113 0 l 2,39,40
 79 0 79 0 67 15 c 128,-1,41
 55 30 55 30 61 68 c 0,42,43
 68 106 68 106 85 121 c 128,-1,44
 102 136 102 136 136 136 c 2,45,-1
 282 136 l 1,46,-1
 444 1051 l 1,0,-1
691 409 m 2,47,48
 766 409 766 409 816.5 431 c 128,-1,49
 867 453 867 453 897.5 486.5 c 128,-1,50
 928 520 928 520 940.5 561 c 128,-1,51
 953 602 953 602 953 641 c 0,52,53
 953 707 953 707 906.5 749 c 128,-1,54
 860 791 860 791 758 791 c 2,55,-1
 548 791 l 1,56,-1
 481 409 l 1,57,-1
 691 409 l 2,47,48
EndSplineSet
EndChar
StartChar: germandbls
Encoding: 223 223 101
Width: 1228
Flags: W
LayerCount: 2
Back
Fore
SplineSet
331 943 m 2,0,1
 345 1025 345 1025 381 1094 c 128,-1,2
 417 1163 417 1163 471.5 1212.5 c 128,-1,3
 526 1262 526 1262 598.5 1289.5 c 128,-1,4
 671 1317 671 1317 758 1317 c 0,5,6
 840 1317 840 1317 902.5 1295 c 128,-1,7
 965 1273 965 1273 1006 1234 c 128,-1,8
 1047 1195 1047 1195 1068 1142.5 c 128,-1,9
 1089 1090 1089 1090 1089 1029 c 0,10,11
 1089 917 1089 917 1030.5 833.5 c 128,-1,12
 972 750 972 750 862 697 c 1,13,14
 947 662 947 662 993 592 c 128,-1,15
 1039 522 1039 522 1039 425 c 0,16,17
 1039 383 1039 383 1029.5 333 c 128,-1,18
 1020 283 1020 283 997.5 233.5 c 128,-1,19
 975 184 975 184 939.5 138 c 128,-1,20
 904 92 904 92 851.5 56.5 c 128,-1,21
 799 21 799 21 729.5 -0.5 c 128,-1,22
 660 -22 660 -22 570 -22 c 0,23,24
 519 -22 519 -22 504 -5.5 c 128,-1,25
 489 11 489 11 493 55 c 0,26,27
 496 93 496 93 514 109.5 c 128,-1,28
 532 126 532 126 567 126 c 0,29,30
 656 126 656 126 716.5 153.5 c 128,-1,31
 777 181 777 181 813.5 224 c 128,-1,32
 850 267 850 267 866 319.5 c 128,-1,33
 882 372 882 372 882 422 c 0,34,35
 882 518 882 518 825 568.5 c 128,-1,36
 768 619 768 619 666 619 c 0,37,38
 632 619 632 619 620 635.5 c 128,-1,39
 608 652 608 652 615 688 c 0,40,41
 621 724 621 724 638.5 740 c 128,-1,42
 656 756 656 756 690 759 c 0,43,44
 756 765 756 765 802 790.5 c 128,-1,45
 848 816 848 816 877 852 c 128,-1,46
 906 888 906 888 919.5 930.5 c 128,-1,47
 933 973 933 973 933 1014 c 0,48,49
 933 1088 933 1088 884 1130 c 128,-1,50
 835 1172 835 1172 738 1172 c 0,51,52
 686 1172 686 1172 643 1155 c 128,-1,53
 600 1138 600 1138 566.5 1106.5 c 128,-1,54
 533 1075 533 1075 511 1031 c 128,-1,55
 489 987 489 987 479 932 c 2,56,-1
 324 55 l 2,57,58
 318 20 318 20 299 5 c 128,-1,59
 280 -10 280 -10 238 -10 c 256,60,61
 196 -10 196 -10 182 5 c 128,-1,62
 168 20 168 20 174 55 c 2,63,-1
 331 943 l 2,0,1
EndSplineSet
EndChar
StartChar: ae
Encoding: 230 230 114
Width: 1228
Flags: W
LayerCount: 2
Back
Fore
SplineSet
696 440 m 1,0,1
 684 363 684 363 684 308 c 0,2,3
 684 256 684 256 693 220.5 c 128,-1,4
 702 185 702 185 718 163.5 c 128,-1,5
 734 142 734 142 756 132.5 c 128,-1,6
 778 123 778 123 804 123 c 0,7,8
 852 123 852 123 895 141.5 c 128,-1,9
 938 160 938 160 988 201 c 0,10,11
 1010 220 1010 220 1036 218 c 128,-1,12
 1062 216 1062 216 1080 187 c 0,13,14
 1099 158 1099 158 1092 132.5 c 128,-1,15
 1085 107 1085 107 1056 84 c 0,16,17
 991 31 991 31 926 4.5 c 128,-1,18
 861 -22 861 -22 789 -22 c 0,19,20
 710 -22 710 -22 654.5 13 c 128,-1,21
 599 48 599 48 570 122 c 1,22,23
 510 55 510 55 431 16.5 c 128,-1,24
 352 -22 352 -22 271 -22 c 0,25,26
 219 -22 219 -22 177 -6.5 c 128,-1,27
 135 9 135 9 105.5 37.5 c 128,-1,28
 76 66 76 66 60 106 c 128,-1,29
 44 146 44 146 44 195 c 0,30,31
 44 293 44 293 94 377 c 128,-1,32
 144 461 144 461 236 510 c 0,33,34
 368 580 368 580 571 580 c 1,35,-1
 575 602 l 2,36,37
 584 651 584 651 584 689 c 0,38,39
 584 743 584 743 561 772 c 128,-1,40
 538 801 538 801 479 801 c 0,41,42
 433 801 433 801 385.5 782.5 c 128,-1,43
 338 764 338 764 286 729 c 0,44,45
 261 712 261 712 237.5 717 c 128,-1,46
 214 722 214 722 196 748 c 0,47,48
 157 804 157 804 211 844 c 0,49,50
 284 899 284 899 353.5 922.5 c 128,-1,51
 423 946 423 946 494 946 c 0,52,53
 575 946 575 946 623.5 915.5 c 128,-1,54
 672 885 672 885 695 830 c 1,55,56
 745 888 745 888 806.5 917 c 128,-1,57
 868 946 868 946 939 946 c 0,58,59
 1003 946 1003 946 1049 925 c 128,-1,60
 1095 904 1095 904 1124 865.5 c 128,-1,61
 1153 827 1153 827 1167 771.5 c 128,-1,62
 1181 716 1181 716 1181 647 c 0,63,64
 1181 580 1181 580 1169 502 c 0,65,66
 1164 468 1164 468 1146.5 454 c 128,-1,67
 1129 440 1129 440 1095 440 c 2,68,-1
 696 440 l 1,0,1
546 440 m 1,69,70
 474 440 474 440 416.5 430 c 128,-1,71
 359 420 359 420 316 398 c 0,72,73
 258 369 258 369 227.5 319 c 128,-1,74
 197 269 197 269 197 209 c 0,75,76
 197 165 197 165 221.5 142 c 128,-1,77
 246 119 246 119 289 119 c 0,78,79
 331 119 331 119 370.5 135.5 c 128,-1,80
 410 152 410 152 442.5 181 c 128,-1,81
 475 210 475 210 497.5 251 c 128,-1,82
 520 292 520 292 528 340 c 2,83,-1
 546 440 l 1,69,70
926 801 m 0,84,85
 857 801 857 801 808 750 c 128,-1,86
 759 699 759 699 726 580 c 1,87,-1
 1026 580 l 1,88,89
 1028 599 1028 599 1029.5 616 c 128,-1,90
 1031 633 1031 633 1031 649 c 0,91,92
 1031 721 1031 721 1007 761 c 128,-1,93
 983 801 983 801 926 801 c 0,84,85
EndSplineSet
EndChar
StartChar: ccedilla
Encoding: 231 231 93
Width: 1228
Flags: W
LayerCount: 2
Back
Fore
SplineSet
475 -17 m 1,0,1
 394 -7 394 -7 330.5 27 c 128,-1,2
 267 61 267 61 223 113.5 c 128,-1,3
 179 166 179 166 155.5 234 c 128,-1,4
 132 302 132 302 132 380 c 0,5,6
 132 490 132 490 173 592 c 128,-1,7
 214 694 214 694 288.5 773 c 128,-1,8
 363 852 363 852 467.5 899 c 128,-1,9
 572 946 572 946 700 946 c 0,10,11
 792 946 792 946 862 909.5 c 128,-1,12
 932 873 932 873 971 811 c 1,13,-1
 984 881 l 2,14,15
 991 916 991 916 1009.5 931 c 128,-1,16
 1028 946 1028 946 1070 946 c 256,17,18
 1112 946 1112 946 1126 931 c 128,-1,19
 1140 916 1140 916 1134 881 c 2,20,-1
 1083 591 l 2,21,22
 1077 556 1077 556 1059 541 c 128,-1,23
 1041 526 1041 526 999 526 c 256,24,25
 957 526 957 526 943 541 c 128,-1,26
 929 556 929 556 934 591 c 0,27,28
 941 636 941 636 929 674 c 128,-1,29
 917 712 917 712 886.5 739.5 c 128,-1,30
 856 767 856 767 807 782.5 c 128,-1,31
 758 798 758 798 689 798 c 0,32,33
 603 798 603 798 530 765 c 128,-1,34
 457 732 457 732 403.5 675.5 c 128,-1,35
 350 619 350 619 320 545.5 c 128,-1,36
 290 472 290 472 290 391 c 0,37,38
 290 332 290 332 308.5 283.5 c 128,-1,39
 327 235 327 235 362 200 c 128,-1,40
 397 165 397 165 447 145.5 c 128,-1,41
 497 126 497 126 561 126 c 0,42,43
 653 126 653 126 741.5 154.5 c 128,-1,44
 830 183 830 183 911 238 c 0,45,46
 934 254 934 254 959 250 c 128,-1,47
 984 246 984 246 1004 211 c 0,48,49
 1041 145 1041 145 979 105 c 0,50,51
 900 54 900 54 804.5 21.5 c 128,-1,52
 709 -11 709 -11 609 -19 c 1,53,-1
 593 -113 l 1,54,55
 639 -112 639 -112 672.5 -123.5 c 128,-1,56
 706 -135 706 -135 728 -154.5 c 128,-1,57
 750 -174 750 -174 760.5 -201 c 128,-1,58
 771 -228 771 -228 771 -258 c 0,59,60
 771 -273 771 -273 768 -291.5 c 128,-1,61
 765 -310 765 -310 758 -329 c 128,-1,62
 751 -348 751 -348 741 -365.5 c 128,-1,63
 731 -383 731 -383 717 -398 c 0,64,65
 684 -433 684 -433 629.5 -452.5 c 128,-1,66
 575 -472 575 -472 497 -472 c 0,67,68
 430 -472 430 -472 368.5 -460 c 128,-1,69
 307 -448 307 -448 259 -424 c 0,70,71
 242 -415 242 -415 241.5 -394.5 c 128,-1,72
 241 -374 241 -374 252 -354 c 0,73,74
 262 -335 262 -335 278 -323 c 128,-1,75
 294 -311 294 -311 311 -318 c 0,76,77
 348 -333 348 -333 397.5 -342.5 c 128,-1,78
 447 -352 447 -352 498 -352 c 0,79,80
 558 -352 558 -352 586 -329 c 128,-1,81
 614 -306 614 -306 614 -271 c 0,82,83
 614 -237 614 -237 579 -225 c 128,-1,84
 544 -213 544 -213 480 -217 c 0,85,86
 473 -217 473 -217 466 -216 c 128,-1,87
 459 -215 459 -215 454 -210.5 c 128,-1,88
 449 -206 449 -206 447 -197.5 c 128,-1,89
 445 -189 445 -189 448 -175 c 2,90,-1
 475 -17 l 1,0,1
EndSplineSet
EndChar
StartChar: eth
Encoding: 240 240 154
Width: 1228
Flags: W
LayerCount: 2
Back
Fore
SplineSet
636 1134 m 1,0,1
 611 1150 611 1150 585.5 1165.5 c 128,-1,2
 560 1181 560 1181 533 1195 c 0,3,4
 505 1210 505 1210 499 1232 c 128,-1,5
 493 1254 493 1254 513 1288 c 0,6,7
 533 1323 533 1323 555.5 1330.5 c 128,-1,8
 578 1338 578 1338 606 1323 c 0,9,10
 716 1265 716 1265 806 1194 c 1,11,-1
 1057 1282 l 2,12,13
 1090 1294 1090 1294 1110.5 1284.5 c 128,-1,14
 1131 1275 1131 1275 1142 1240 c 0,15,16
 1153 1208 1153 1208 1144.5 1187 c 128,-1,17
 1136 1166 1136 1166 1102 1154 c 2,18,-1
 917 1089 l 1,19,20
 1005 989 1005 989 1055.5 865.5 c 128,-1,21
 1106 742 1106 742 1106 587 c 0,22,23
 1106 545 1106 545 1102 501.5 c 128,-1,24
 1098 458 1098 458 1090 412 c 0,25,26
 1072 310 1072 310 1023.5 229.5 c 128,-1,27
 975 149 975 149 904 93 c 128,-1,28
 833 37 833 37 742.5 7.5 c 128,-1,29
 652 -22 652 -22 550 -22 c 0,30,31
 459 -22 459 -22 384 6.5 c 128,-1,32
 309 35 309 35 255 86 c 128,-1,33
 201 137 201 137 171.5 207.5 c 128,-1,34
 142 278 142 278 142 363 c 0,35,36
 142 466 142 466 180 561 c 128,-1,37
 218 656 218 656 288.5 728 c 128,-1,38
 359 800 359 800 460.5 843 c 128,-1,39
 562 886 562 886 690 886 c 0,40,41
 760 886 760 886 820.5 863.5 c 128,-1,42
 881 841 881 841 929 803 c 1,43,44
 902 870 902 870 860 927 c 128,-1,45
 818 984 818 984 764 1035 c 1,46,-1
 510 946 l 2,47,48
 476 934 476 934 456 945 c 128,-1,49
 436 956 436 956 425 988 c 0,50,51
 414 1022 414 1022 422.5 1042 c 128,-1,52
 431 1062 431 1062 465 1074 c 2,53,-1
 636 1134 l 1,0,1
674 738 m 0,54,55
 590 738 590 738 521 708.5 c 128,-1,56
 452 679 452 679 402.5 628.5 c 128,-1,57
 353 578 353 578 325.5 510.5 c 128,-1,58
 298 443 298 443 298 367 c 0,59,60
 298 311 298 311 316.5 266.5 c 128,-1,61
 335 222 335 222 369.5 191 c 128,-1,62
 404 160 404 160 453.5 143 c 128,-1,63
 503 126 503 126 566 126 c 0,64,65
 653 126 653 126 723 157 c 128,-1,66
 793 188 793 188 841.5 240 c 128,-1,67
 890 292 890 292 916 358.5 c 128,-1,68
 942 425 942 425 942 496 c 0,69,70
 942 552 942 552 923.5 596.5 c 128,-1,71
 905 641 905 641 870.5 672.5 c 128,-1,72
 836 704 836 704 786.5 721 c 128,-1,73
 737 738 737 738 674 738 c 0,54,55
EndSplineSet
EndChar
StartChar: divide
Encoding: 247 247 126
Width: 1228
Flags: W
LayerCount: 2
Back
Fore
SplineSet
679 806 m 0,0,1
 633 806 633 806 604 836 c 128,-1,2
 575 866 575 866 575 909 c 0,3,4
 575 937 575 937 587 962 c 128,-1,5
 599 987 599 987 618.5 1005.5 c 128,-1,6
 638 1024 638 1024 663 1034.5 c 128,-1,7
 688 1045 688 1045 715 1045 c 0,8,9
 760 1045 760 1045 788.5 1015.5 c 128,-1,10
 817 986 817 986 817 943 c 0,11,12
 817 914 817 914 805.5 889.5 c 128,-1,13
 794 865 794 865 774.5 846 c 128,-1,14
 755 827 755 827 730.5 816.5 c 128,-1,15
 706 806 706 806 679 806 c 0,0,1
579 120 m 0,16,17
 533 120 533 120 504 150 c 128,-1,18
 475 180 475 180 475 223 c 0,19,20
 475 251 475 251 487 276 c 128,-1,21
 499 301 499 301 518.5 319.5 c 128,-1,22
 538 338 538 338 563 348.5 c 128,-1,23
 588 359 588 359 615 359 c 0,24,25
 660 359 660 359 688.5 329.5 c 128,-1,26
 717 300 717 300 717 257 c 0,27,28
 717 228 717 228 705.5 203.5 c 128,-1,29
 694 179 694 179 674.5 160 c 128,-1,30
 655 141 655 141 630.5 130.5 c 128,-1,31
 606 120 606 120 579 120 c 0,16,17
1039 650 m 2,32,33
 1073 650 1073 650 1085 635 c 128,-1,34
 1097 620 1097 620 1090 582 c 256,35,36
 1083 544 1083 544 1066 529 c 128,-1,37
 1049 514 1049 514 1015 514 c 2,38,-1
 253 514 l 2,39,40
 219 514 219 514 207 529 c 128,-1,41
 195 544 195 544 202 582 c 256,42,43
 209 620 209 620 226 635 c 128,-1,44
 243 650 243 650 277 650 c 2,45,-1
 1039 650 l 2,32,33
EndSplineSet
EndChar
StartChar: oslash
Encoding: 248 248 115
Width: 1228
Flags: W
LayerCount: 2
Back
Fore
SplineSet
126 386 m 0,0,1
 126 496 126 496 167.5 597 c 128,-1,2
 209 698 209 698 284.5 775.5 c 128,-1,3
 360 853 360 853 465.5 899.5 c 128,-1,4
 571 946 571 946 700 946 c 0,5,6
 785 946 785 946 855.5 922 c 128,-1,7
 926 898 926 898 981 853 c 1,8,-1
 1064 923 l 2,9,10
 1093 947 1093 947 1121 945.5 c 128,-1,11
 1149 944 1149 944 1169 918 c 0,12,13
 1190 892 1190 892 1191.5 869 c 128,-1,14
 1193 846 1193 846 1163 822 c 2,15,-1
 1071 745 l 1,16,17
 1097 700 1097 700 1110.5 648 c 128,-1,18
 1124 596 1124 596 1124 538 c 0,19,20
 1124 428 1124 428 1082.5 327 c 128,-1,21
 1041 226 1041 226 965.5 148.5 c 128,-1,22
 890 71 890 71 784.5 24.5 c 128,-1,23
 679 -22 679 -22 550 -22 c 0,24,25
 465 -22 465 -22 394 2 c 128,-1,26
 323 26 323 26 268 71 c 1,27,-1
 185 1 l 2,28,29
 156 -23 156 -23 128.5 -21.5 c 128,-1,30
 101 -20 101 -20 81 6 c 0,31,32
 60 32 60 32 58 54.5 c 128,-1,33
 56 77 56 77 85 101 c 2,34,-1
 178 179 l 1,35,36
 126 269 126 269 126 386 c 0,0,1
967 530 m 0,37,38
 967 589 967 589 947 640 c 1,39,-1
 391 174 l 1,40,41
 462 126 462 126 566 126 c 0,42,43
 654 126 654 126 727.5 159 c 128,-1,44
 801 192 801 192 854.5 248 c 128,-1,45
 908 304 908 304 937.5 377 c 128,-1,46
 967 450 967 450 967 530 c 0,37,38
283 394 m 0,47,48
 283 335 283 335 303 284 c 1,49,-1
 858 750 l 1,50,51
 824 773 824 773 780.5 785.5 c 128,-1,52
 737 798 737 798 684 798 c 0,53,54
 596 798 596 798 522.5 765 c 128,-1,55
 449 732 449 732 395.5 676 c 128,-1,56
 342 620 342 620 312.5 547 c 128,-1,57
 283 474 283 474 283 394 c 0,47,48
EndSplineSet
EndChar
StartChar: thorn
Encoding: 254 254 157
Width: 1228
Flags: W
LayerCount: 2
Back
Fore
SplineSet
604 28 m 0,0,1
 504 28 504 28 432.5 72 c 128,-1,2
 361 116 361 116 316 194 c 1,3,-1
 236 -257 l 1,4,-1
 488 -257 l 2,5,6
 522 -257 522 -257 534 -272 c 128,-1,7
 546 -287 546 -287 539 -325 c 256,8,9
 532 -363 532 -363 515 -378 c 128,-1,10
 498 -393 498 -393 464 -393 c 2,11,-1
 -20 -393 l 2,12,13
 -54 -393 -54 -393 -65.5 -378 c 128,-1,14
 -77 -363 -77 -363 -70 -325 c 0,15,16
 -64 -287 -64 -287 -47 -272 c 128,-1,17
 -30 -257 -30 -257 4 -257 c 2,18,-1
 86 -257 l 1,19,-1
 339 1176 l 1,20,-1
 257 1176 l 2,21,22
 223 1176 223 1176 211.5 1191 c 128,-1,23
 200 1206 200 1206 206 1244 c 0,24,25
 213 1282 213 1282 230 1297 c 128,-1,26
 247 1312 247 1312 281 1312 c 2,27,-1
 450 1312 l 2,28,29
 484 1312 484 1312 496 1297 c 128,-1,30
 508 1282 508 1282 501 1244 c 2,31,-1
 422 798 l 1,32,33
 496 870 496 870 579 908 c 128,-1,34
 662 946 662 946 755 946 c 0,35,36
 836 946 836 946 903.5 920 c 128,-1,37
 971 894 971 894 1019.5 845.5 c 128,-1,38
 1068 797 1068 797 1095 728 c 128,-1,39
 1122 659 1122 659 1122 574 c 0,40,41
 1122 467 1122 467 1087 368.5 c 128,-1,42
 1052 270 1052 270 985.5 194 c 128,-1,43
 919 118 919 118 823 73 c 128,-1,44
 727 28 727 28 604 28 c 0,0,1
729 798 m 0,45,46
 636 798 636 798 566.5 763 c 128,-1,47
 497 728 497 728 451.5 673 c 128,-1,48
 406 618 406 618 383.5 550.5 c 128,-1,49
 361 483 361 483 361 418 c 0,50,51
 361 360 361 360 379.5 315 c 128,-1,52
 398 270 398 270 432 239 c 128,-1,53
 466 208 466 208 514 192 c 128,-1,54
 562 176 562 176 620 176 c 0,55,56
 704 176 704 176 768.5 209.5 c 128,-1,57
 833 243 833 243 876.5 297.5 c 128,-1,58
 920 352 920 352 942.5 421.5 c 128,-1,59
 965 491 965 491 965 562 c 0,60,61
 965 615 965 615 950 658.5 c 128,-1,62
 935 702 935 702 905 733 c 128,-1,63
 875 764 875 764 831 781 c 128,-1,64
 787 798 787 798 729 798 c 0,45,46
EndSplineSet
EndChar
StartChar: Aogonek
Encoding: 260 260 238
Width: 1228
Flags: W
LayerCount: 2
Back
Fore
SplineSet
884 -336 m 0,0,1
 913 -336 913 -336 940.5 -333.5 c 128,-1,2
 968 -331 968 -331 995 -326 c 0,3,4
 1035 -320 1035 -320 1042 -374 c 0,5,6
 1046 -402 1046 -402 1037.5 -418.5 c 128,-1,7
 1029 -435 1029 -435 1006 -443 c 0,8,9
 969 -456 969 -456 922 -464 c 128,-1,10
 875 -472 875 -472 827 -472 c 0,11,12
 746 -472 746 -472 702.5 -427 c 128,-1,13
 659 -382 659 -382 659 -310 c 0,14,15
 659 -227 659 -227 712 -151.5 c 128,-1,16
 765 -76 765 -76 863 0 c 1,17,-1
 731 0 l 2,18,19
 697 0 697 0 685 15 c 128,-1,20
 673 30 673 30 679 68 c 0,21,22
 686 106 686 106 703 121 c 128,-1,23
 720 136 720 136 754 136 c 2,24,-1
 894 136 l 1,25,-1
 854 374 l 1,26,-1
 369 374 l 1,27,-1
 244 136 l 1,28,-1
 360 136 l 2,29,30
 394 136 394 136 406 121 c 128,-1,31
 418 106 418 106 411 68 c 0,32,33
 405 30 405 30 388 15 c 128,-1,34
 371 0 371 0 337 0 c 2,35,-1
 3 0 l 2,36,37
 -31 0 -31 0 -43 15 c 128,-1,38
 -55 30 -55 30 -49 68 c 0,39,40
 -42 106 -42 106 -25 121 c 128,-1,41
 -8 136 -8 136 26 136 c 2,42,-1
 79 136 l 1,43,-1
 572 1051 l 1,44,-1
 388 1051 l 2,45,46
 354 1051 354 1051 342 1066 c 128,-1,47
 330 1081 330 1081 337 1119 c 256,48,49
 344 1157 344 1157 361 1172 c 128,-1,50
 378 1187 378 1187 412 1187 c 2,51,-1
 776 1187 l 2,52,53
 816 1187 816 1187 837.5 1172 c 128,-1,54
 859 1157 859 1157 865 1122 c 2,55,-1
 1044 136 l 1,56,-1
 1108 136 l 2,57,58
 1142 136 1142 136 1154 121 c 128,-1,59
 1166 106 1166 106 1159 68 c 0,60,61
 1153 30 1153 30 1136 15 c 128,-1,62
 1119 0 1119 0 1085 0 c 2,63,-1
 1035 0 l 1,64,65
 923 -88 923 -88 871 -155.5 c 128,-1,66
 819 -223 819 -223 819 -277 c 0,67,68
 819 -306 819 -306 836.5 -321 c 128,-1,69
 854 -336 854 -336 884 -336 c 0,0,1
440 510 m 1,70,-1
 832 510 l 1,71,-1
 742 1051 l 1,72,-1
 723 1051 l 1,73,-1
 440 510 l 1,70,-1
EndSplineSet
EndChar
StartChar: dcaron
Encoding: 271 271 304
Width: 1228
Flags: W
LayerCount: 2
Back
Fore
SplineSet
445 -22 m 0,0,1
 375 -22 375 -22 316.5 3.5 c 128,-1,2
 258 29 258 29 216 76.5 c 128,-1,3
 174 124 174 124 151 191.5 c 128,-1,4
 128 259 128 259 128 343 c 0,5,6
 128 408 128 408 140.5 474 c 128,-1,7
 153 540 153 540 178 601.5 c 128,-1,8
 203 663 203 663 241 716.5 c 128,-1,9
 279 770 279 770 329.5 810 c 128,-1,10
 380 850 380 850 444 873 c 128,-1,11
 508 896 508 896 586 896 c 0,12,13
 677 896 677 896 740.5 856 c 128,-1,14
 804 816 804 816 838 750 c 1,15,-1
 913 1176 l 1,16,-1
 731 1176 l 2,17,18
 697 1176 697 1176 685 1191 c 128,-1,19
 673 1206 673 1206 680 1244 c 256,20,21
 687 1282 687 1282 704 1297 c 128,-1,22
 721 1312 721 1312 755 1312 c 2,23,-1
 1024 1312 l 2,24,25
 1058 1312 1058 1312 1070 1297 c 128,-1,26
 1082 1282 1082 1282 1075 1244 c 2,27,-1
 879 136 l 1,28,-1
 961 136 l 2,29,30
 995 136 995 136 1007 121 c 128,-1,31
 1019 106 1019 106 1012 68 c 0,32,33
 1006 30 1006 30 989 15 c 128,-1,34
 972 0 972 0 938 0 c 2,35,-1
 779 0 l 2,36,37
 745 0 745 0 732.5 15 c 128,-1,38
 720 30 720 30 727 68 c 2,39,-1
 739 133 l 1,40,41
 712 100 712 100 681 72 c 128,-1,42
 650 44 650 44 614 23 c 128,-1,43
 578 2 578 2 536 -10 c 128,-1,44
 494 -22 494 -22 445 -22 c 0,0,1
471 126 m 0,45,46
 527 126 527 126 572.5 143.5 c 128,-1,47
 618 161 618 161 654 190.5 c 128,-1,48
 690 220 690 220 715.5 259.5 c 128,-1,49
 741 299 741 299 758 343 c 128,-1,50
 775 387 775 387 783 432.5 c 128,-1,51
 791 478 791 478 791 521 c 0,52,53
 791 630 791 630 735.5 689 c 128,-1,54
 680 748 680 748 580 748 c 0,55,56
 505 748 505 748 449.5 710.5 c 128,-1,57
 394 673 394 673 357.5 615 c 128,-1,58
 321 557 321 557 302.5 486.5 c 128,-1,59
 284 416 284 416 284 349 c 0,60,61
 284 299 284 299 295.5 258 c 128,-1,62
 307 217 307 217 330.5 187.5 c 128,-1,63
 354 158 354 158 389 142 c 128,-1,64
 424 126 424 126 471 126 c 0,45,46
1259 897 m 2,65,66
 1235 862 1235 862 1191 862 c 0,67,68
 1162 862 1162 862 1150.5 877 c 128,-1,69
 1139 892 1139 892 1149 918 c 2,70,-1
 1290 1280 l 2,71,72
 1302 1312 1302 1312 1338 1312 c 2,73,-1
 1491 1312 l 2,74,75
 1511 1312 1511 1312 1515.5 1297.5 c 128,-1,76
 1520 1283 1520 1283 1505 1261 c 2,77,-1
 1259 897 l 2,65,66
EndSplineSet
EndChar
